<svg width="1440" height="81" viewBox="0 0 1440 81" fill="none" xmlns="http://www.w3.org/2000/svg">
<g clip-path="url(#clip0_956_13410)">
<path d="M1243.16 1.99558C1239.85 2.37624 1236.58 2.7569 1233.23 3.1491C1238.08 3.42594 1243.03 3.70279 1247.91 3.97963L1264.03 2.92993C1258.81 2.69923 1248.38 2.22628 1243.16 1.99558ZM952.472 75.1171C921.577 74.8056 890.883 74.4942 860.323 74.1942C857.38 74.5288 854.304 74.8287 851.462 75.2093C889.545 78.1623 921.61 77.055 952.438 75.1171M990.856 68.3459C957.42 68.6112 924.653 69.3495 895.163 71.1951C930.337 72.4409 960.697 70.4684 990.856 68.3459ZM1155.69 67.8384C1130.02 66.904 1104.24 65.9697 1078.29 65.0238C1046.99 64.5508 1019.04 66.4887 990.856 68.3459C1049.87 68.2075 1110.22 69.188 1155.69 67.8384ZM1216.51 73.5713C1202.17 73.8366 1188.09 74.0904 1174.05 74.3442C1202.14 75.267 1230.16 76.086 1258.14 76.8473C1286.09 77.6779 1314.01 78.5084 1341.87 79.3389L1411.01 80.1579L1461.97 81V72.4755C1357.71 67.2039 1256.6 64.4816 1164.25 67.5731C1161.55 67.6538 1158.54 67.7461 1155.69 67.8384C1190.1 69.0842 1224.34 70.1454 1258.51 71.1028C1292.68 72.141 1326.72 73.1676 1360.76 74.1942L1288.67 73.5252C1264.66 73.3406 1240.55 73.4675 1216.51 73.5598M952.438 75.1055C972.667 75.2786 993.029 75.4054 1013.53 75.6938C1042.11 75.7746 1069.16 75.6592 1095.61 75.3824C1122.09 75.0248 1147.9 74.6787 1174.05 74.3211C1136.17 72.9946 1098.05 71.8526 1059.7 70.33C1021.08 69.7417 987.613 72.81 952.438 75.1055ZM1154.89 4.36029C1176.76 4.4295 1198.49 4.49871 1220.19 4.56792C1224.54 4.11805 1228.89 3.64511 1233.23 3.13756C1204.48 1.58031 1175.69 0.415261 1147.34 0.0115298C1118.95 -0.288385 1037.1 3.95656 1026.7 3.54129C977.147 2.46852 927.462 4.67174 950.8 4.57946H952.739C999.349 4.36029 1044.49 4.44104 1088.86 4.41797C1111.06 4.3949 1133.06 4.38336 1154.93 4.36029M1157.13 29.0917C1162.28 29.3224 1167.3 30.4298 1172.48 30.6605C1183.28 29.3801 1199.29 28.3188 1214.91 29.0225C1235.47 29.5877 1256.17 29.8876 1276.6 29.9568C1234.74 29.011 1192.54 28.042 1157.17 29.0917M1400.24 30.7412C1383.69 30.4183 1366.88 30.003 1349.92 29.5646C1326.25 30.0145 1301.64 30.0607 1276.6 29.9568C1321.77 31.1104 1366.41 32.3792 1402.15 30.9258C1401.51 30.8681 1400.88 30.7989 1400.24 30.7412ZM1367.28 29.1955C1379.68 29.1263 1390.18 29.7723 1400.24 30.7412C1401.82 30.7758 1403.35 30.7989 1404.89 30.8335C1403.99 30.8681 1403.05 30.9027 1402.15 30.9258C1417.2 32.4138 1431.44 34.5248 1449.43 36.082L1454.84 35.4937L1454.01 38.1122C1405.56 41.6189 1349.89 34.594 1297.33 34.5478C1263.16 34.6632 1227.85 34.271 1192.51 34.098C1174.82 34.0288 1157.17 34.0172 1139.58 34.271C1121.99 34.5824 1104.54 35.1131 1087.32 35.9782C1076.75 36.4396 1061.37 34.9516 1051.04 34.5478C1087.92 33.3828 1120.12 30.1299 1157.1 29.0917C1217.18 26.2771 1284.66 27.7075 1349.86 29.5646C1355.67 29.4378 1361.49 29.3224 1367.18 29.1955M1317.96 10.1279C1295.76 10.3586 1274.32 10.6816 1249.52 9.56265C1272.35 9.68954 1295.16 9.80489 1317.96 10.1279ZM181.809 61.4363C181.542 61.4709 181.274 61.5055 181.04 61.5402C181.04 61.4133 181.007 61.2748 180.973 61.1364L181.809 61.4363ZM1462 6.45969C1452.57 6.32127 1443.14 6.17131 1433.81 6.03289C1419.3 5.89447 1404.86 5.75605 1390.51 5.61762C1361.83 5.37539 1333.41 5.12161 1305.09 4.87937C1276.77 4.67174 1248.51 4.68328 1220.23 4.56792C1206.15 6.00982 1192.21 7.09413 1178.53 7.04799C1146.87 7.3133 1110.32 5.99829 1078.83 5.59455C1083.64 7.55553 1067.96 6.93263 1067.76 7.80931C1035.69 10.0702 999.482 7.71703 962.937 6.54044C957.754 6.36741 957.922 5.49074 952.706 4.57946C927.094 7.84391 803.682 6.84035 771.617 5.72144C755.267 5.51381 738.85 5.09854 722.132 4.32569C738.315 4.61406 754.933 5.14468 771.617 5.72144C808.898 6.24052 845.477 5.37539 882.123 4.67174C792.782 4.8217 708.323 4.25647 620.755 3.03375C578.993 2.38778 538.369 2.86072 498.447 3.52976C478.485 3.87581 458.658 4.31415 438.964 4.78709C419.237 5.39846 399.61 5.99829 379.95 6.59811C347.919 7.544 316.054 6.85189 284.223 5.98675C286.965 5.46767 289.64 4.92551 292.214 4.33722C252.626 3.3452 214.409 3.22984 173.885 4.01424C170.207 4.08345 166.563 4.16419 162.885 4.2334C99.7244 6.00982 43.3851 6.78268 -17 7.22101V75.2209C-6.03305 75.2555 4.9339 75.3132 15.9008 75.3708C36.4639 75.5323 57.0269 75.5785 77.5899 75.1978C99.5238 74.5288 121.19 73.9289 142.689 73.3983C164.189 72.8908 185.487 72.6024 206.719 72.2794C249.149 71.6911 291.245 71.1951 333.641 71.2989C333.106 71.1028 332.839 70.9067 332.939 70.7106C353.369 70.8144 373.865 70.9182 394.729 71.0221C415.292 71.2989 431.007 68.8188 451.603 69.2341C590.462 71.4835 723.938 73.0638 860.323 74.1942L869.785 69.7763C891.05 66.9732 915.993 65.2891 942.809 64.2855C969.624 63.2704 998.245 62.9013 1026.8 62.982C1083.94 63.0513 1140.95 63.8703 1183.04 62.3476C1230.79 60.8826 1280.98 60.6865 1332.64 61.9208C1358.48 62.4745 1384.73 63.2704 1411.28 64.2509C1428.06 64.8969 1444.98 65.6813 1461.97 66.5233V61.5748C1459.63 61.5517 1457.35 61.5171 1454.98 61.494C1457.29 61.494 1459.63 61.494 1461.97 61.4825V56.2916C1429.57 54.3537 1397.1 52.9234 1365.34 53.0503C1334.17 54.1461 1293.68 52.8657 1257.34 53.8231C1256.5 54.1 1255.7 54.4114 1254.93 54.7344C1252.22 54.5268 1249.58 54.3537 1246.91 54.1922C1242.16 54.5729 1237.04 55.1843 1233.87 55.5649C1196.12 55.8302 1158.27 56.3493 1118.81 55.9456C1115.4 56.0609 1111.96 56.1648 1108.48 56.2801C1097.92 56.7415 1082.67 55.265 1072.34 54.8498C1088.15 55.4726 1103.6 55.7956 1118.81 55.9456C1163.59 54.3653 1198.66 51.1585 1246.91 54.1922C1250.12 53.9269 1253.13 53.777 1255.2 53.8693L1257.34 53.8231C1271.25 49.2206 1304.99 50.9047 1334.11 52.3812C1329.43 50.3741 1344.71 52.0236 1345.21 50.2818C1377.21 48.3554 1409.27 46.3483 1435.99 45.1256C1444.71 44.8834 1453.37 44.8603 1461.97 44.9526V16.8529C1452.3 16.7145 1442.67 16.5876 1433.01 16.4492C1417.43 16.2761 1401.82 16.1031 1386.13 15.9416C1394.63 15.6302 1403.15 15.261 1411.68 14.8458C1415.76 14.5458 1420 14.3151 1424.25 14.1306C1436.29 13.623 1448.93 13.6 1461.97 13.8883V11.8351C1432.11 11.489 1402.05 11.143 1371.82 10.7969C1380.35 10.4855 1388.84 10.1048 1397.4 9.68954C1417.36 8.18997 1439.13 8.22457 1461.97 9.06664V6.47123L1462 6.45969Z" fill="#F6FAFB"/>
</g>
<defs>
<clipPath id="clip0_956_13410">
<rect width="1479" height="81" fill="white" transform="translate(-17)"/>
</clipPath>
</defs>
</svg>
