<svg width="286" height="78" viewBox="0 0 286 78" fill="none" xmlns="http://www.w3.org/2000/svg">
<g clip-path="url(#clip0_1863_16851)">
<path d="M180.525 21.561V48.7161H187.309V21.561H180.525Z" fill="#283C8C"/>
<path d="M97.9846 44.1819H71.9813V21.561H65.1973V48.7161H97.9846V44.1819Z" fill="#283C8C"/>
<path d="M102.504 48.7161V21.561H135.291V26.0827H109.288V32.8715H126.254V37.3931H109.288V44.1819H135.291V48.7161H102.504Z" fill="#283C8C"/>
<path d="M175.995 21.561H168.079L157.909 31.3349L147.739 21.561H139.822L153.957 35.1386L139.822 48.7161H147.739L157.909 38.9297L168.079 48.7161H175.995L161.861 35.1386L175.995 21.561Z" fill="#283C8C"/>
<path d="M267.573 21.561V42.4438L244.968 21.561H238.184V48.7161H244.968V27.8208L267.573 48.7161H274.357V21.561H267.573Z" fill="#283C8C"/>
<path d="M222.98 44.1819C223.43 44.1819 223.862 44.0028 224.181 43.6839C224.5 43.365 224.679 42.9325 224.679 42.4816V27.8083C224.682 27.5829 224.641 27.359 224.557 27.1498C224.473 26.9406 224.348 26.7502 224.19 26.5896C224.032 26.429 223.843 26.3015 223.636 26.2145C223.428 26.1275 223.205 26.0827 222.98 26.0827H203.697C203.473 26.0844 203.251 26.1304 203.045 26.2182C202.839 26.3059 202.652 26.4337 202.495 26.5941C202.338 26.7545 202.215 26.9443 202.132 27.1527C202.048 27.3611 202.007 27.5839 202.011 27.8083V42.4942C202.014 42.9408 202.193 43.3682 202.508 43.684C202.824 43.9998 203.251 44.1786 203.697 44.1819H222.98ZM195.29 23.8282C195.288 23.5311 195.345 23.2365 195.458 22.9616C195.57 22.6866 195.736 22.4365 195.945 22.2259C196.154 22.0152 196.403 21.848 196.678 21.7339C196.952 21.6198 197.246 21.5611 197.543 21.5611H229.197C229.495 21.5594 229.79 21.6169 230.066 21.7302C230.342 21.8436 230.592 22.0105 230.803 22.2214C231.014 22.4322 231.18 22.6828 231.294 22.9586C231.407 23.2344 231.464 23.53 231.463 23.8282V46.4994C231.463 46.7972 231.404 47.092 231.29 47.367C231.176 47.6421 231.01 47.892 230.799 48.1025C230.589 48.3131 230.339 48.4801 230.064 48.594C229.789 48.7079 229.495 48.7666 229.197 48.7666H197.48C196.883 48.7468 196.319 48.4923 195.909 48.0584C195.498 47.6245 195.276 47.0461 195.29 46.4491V23.7778V23.8282Z" fill="#283C8C"/>
<path d="M20.6674 31.0201L30.1575 17.0395L35.0032 24.1935C29.3394 26.7125 24.4936 29.0678 20.6674 31.0201ZM173.893 3.87754C173.893 3.87754 163.547 0.098999 135.278 0.098999C99.2815 0.098999 63.9517 11.8125 40.2139 21.9138L30.1449 7.98355L0.755859 48.7162H8.67265L12.3101 43.3507C15.721 41.3103 25.2866 35.7306 38.4644 29.2819L51.6297 48.7162H59.5465L43.7129 26.7755C68.6212 15.062 103.838 1.76156 135.303 1.76156C163.522 1.76156 173.352 4.79698 173.352 4.79698C173.467 4.81883 173.585 4.80471 173.691 4.75654C173.798 4.70836 173.887 4.6285 173.946 4.52787C174.005 4.42724 174.032 4.31075 174.022 4.19435C174.013 4.07794 173.968 3.96729 173.893 3.87754Z" fill="#283C8C"/>
<path d="M183.962 18.173C183.814 18.1668 183.674 18.1051 183.569 18.0002C183.464 17.8952 183.402 17.7546 183.396 17.6062C183.396 16.8631 184.315 15.3769 182.012 11.3842C179.696 7.39159 177.946 7.44197 177.317 7.07671C177.252 7.039 177.195 6.98879 177.15 6.929C177.105 6.8692 177.072 6.801 177.053 6.72836C177.034 6.65572 177.03 6.58009 177.041 6.50583C177.052 6.43158 177.077 6.3602 177.115 6.29581C177.192 6.16824 177.315 6.07564 177.458 6.03796C177.602 6.00027 177.754 6.0205 177.883 6.09429C178.525 6.45955 179.356 7.99616 183.962 7.99616C188.569 7.99616 189.4 6.45955 190.042 6.09429C190.17 6.0205 190.323 6.00027 190.467 6.03796C190.61 6.07564 190.733 6.16824 190.809 6.29581C190.884 6.42665 190.904 6.58133 190.867 6.72708C190.829 6.87284 190.736 6.99823 190.608 7.07671C189.966 7.44197 188.217 7.39159 185.913 11.3968C183.61 15.3895 184.529 16.8883 184.516 17.6188C184.516 17.7692 184.457 17.9133 184.35 18.0196C184.244 18.1259 184.1 18.1856 183.95 18.1856L183.962 18.173Z" fill="#D21E2D"/>
<path d="M281.329 22.2915H280.474V23.4125H281.405C281.745 23.4125 282.059 23.2614 282.059 22.8583C282.059 22.4553 281.694 22.2915 281.329 22.2915ZM282.059 25.8056L281.405 24.0926H280.474V25.8056H279.706V21.5106H281.128C282.11 21.5106 282.852 21.7373 282.852 22.8835C282.852 23.5007 282.613 23.6896 282.122 23.9289L282.903 25.7552L282.059 25.8056ZM281.229 20.3645C280.552 20.3645 279.89 20.5654 279.327 20.9418C278.764 21.3183 278.325 21.8533 278.066 22.4793C277.807 23.1053 277.739 23.7942 277.871 24.4587C278.003 25.1233 278.329 25.7337 278.808 26.2128C279.287 26.6919 279.897 27.0182 280.561 27.1504C281.225 27.2826 281.913 27.2147 282.539 26.9555C283.164 26.6962 283.699 26.2571 284.075 25.6937C284.451 25.1303 284.652 24.4679 284.652 23.7904C284.646 22.8838 284.283 22.0162 283.642 21.3752C283.002 20.7341 282.135 20.3711 281.229 20.3645ZM281.229 27.8082C280.432 27.8082 279.652 27.5715 278.99 27.1281C278.327 26.6846 277.811 26.0544 277.507 25.3172C277.202 24.58 277.123 23.769 277.279 22.9868C277.436 22.2046 277.821 21.4865 278.385 20.9233C278.95 20.3602 279.669 19.9773 280.451 19.8232C281.233 19.6691 282.043 19.7508 282.779 20.0577C283.515 20.3647 284.143 20.8833 284.584 21.5477C285.025 22.2122 285.259 22.9927 285.256 23.7904C285.253 24.8571 284.827 25.879 284.072 26.6322C283.317 27.3853 282.295 27.8082 281.229 27.8082Z" fill="#283C8C"/>
<path d="M9.80454 60.8705L16.3872 77.7354H13.8699L12.0323 72.6973H4.94623L3.0457 77.7354H0.767578L7.32504 60.8705H9.80454ZM11.3652 70.7703L8.54591 62.9109L5.65106 70.7703H11.3652Z" fill="#8C8F8F"/>
<path d="M18.8679 75.0149C19.0524 75.3152 19.3073 75.566 19.6105 75.7454C19.9344 75.9333 20.2875 76.0653 20.6552 76.1358C21.0449 76.2122 21.4411 76.2501 21.8383 76.2492C22.1706 76.2458 22.5025 76.2248 22.8326 76.1862C23.1617 76.1405 23.4833 76.0516 23.7891 75.9217C24.0708 75.7998 24.3174 75.6093 24.5066 75.3675C24.7061 75.0988 24.8082 74.77 24.7961 74.4355C24.8076 74.2039 24.7592 73.9732 24.6555 73.7658C24.5519 73.5584 24.3966 73.3813 24.2045 73.2515C23.7491 72.9638 23.2525 72.7472 22.7319 72.6092C22.1403 72.4329 21.4733 72.2943 20.8062 72.1558C20.148 72.0273 19.5033 71.8375 18.8805 71.589C18.3157 71.3646 17.8114 71.0108 17.4079 70.5562C16.9827 70.0416 16.7709 69.3834 16.8163 68.7173C16.8005 68.1595 16.9446 67.6088 17.2317 67.1303C17.497 66.6967 17.8588 66.3303 18.2889 66.0597C18.739 65.7762 19.2321 65.5678 19.7489 65.4426C20.2807 65.3135 20.8254 65.2459 21.3726 65.241C22.0144 65.2387 22.6551 65.2977 23.2857 65.4174C23.8311 65.5267 24.3517 65.736 24.8212 66.0345C25.2774 66.3299 25.6501 66.7376 25.9036 67.2185C26.1884 67.7956 26.3472 68.4267 26.3693 69.07H24.3681C24.3561 68.7362 24.2701 68.4092 24.1164 68.1127C23.9423 67.8603 23.7145 67.6495 23.4493 67.4956C23.1782 67.3307 22.8798 67.2155 22.5683 67.1555C22.2464 67.0806 21.917 67.0425 21.5865 67.0421C21.2829 67.0423 20.9798 67.0675 20.6803 67.1177C20.3886 67.1538 20.1042 67.2345 19.837 67.357C19.5992 67.4698 19.3887 67.6332 19.2203 67.8356C19.0633 68.0602 18.9837 68.33 18.9938 68.6039C18.988 68.7648 19.0178 68.9249 19.0808 69.0729C19.1439 69.2209 19.2388 69.3532 19.3588 69.4604C19.6309 69.7062 19.9469 69.8984 20.2902 70.0272C20.698 70.1892 21.1191 70.3156 21.5488 70.405L22.9585 70.7325C23.4605 70.8343 23.9564 70.9647 24.4436 71.123C24.8897 71.275 25.3131 71.4868 25.7023 71.7527C26.0661 72.0134 26.3706 72.3482 26.5959 72.7351C26.836 73.1836 26.9532 73.6877 26.9357 74.1962C26.96 74.8435 26.8031 75.4848 26.4826 76.0477C26.1641 76.5344 25.7322 76.9364 25.224 77.219C24.7097 77.5308 24.1421 77.7443 23.55 77.8488C22.9399 77.9636 22.3206 78.0226 21.6998 78.0251C21.0478 78.0257 20.3977 77.9539 19.7615 77.811C19.1817 77.684 18.6309 77.449 18.1379 77.1182C17.6643 76.796 17.2756 76.3639 17.0051 75.8587C16.7096 75.2463 16.5589 74.574 16.5646 73.8939H18.5784C18.5752 74.2865 18.675 74.673 18.8679 75.0149Z" fill="#8C8F8F"/>
<path d="M33.8322 65.5937V67.3696H31.403V74.9267C31.3808 75.115 31.3808 75.3052 31.403 75.4935C31.4403 75.6247 31.52 75.7399 31.6296 75.821C31.7711 75.9067 31.9305 75.9584 32.0953 75.9721C32.351 75.988 32.6074 75.988 32.8631 75.9721H33.7819V77.7354H32.2967C31.8497 77.7454 31.4029 77.7117 30.9625 77.6347C30.6372 77.5798 30.3303 77.4457 30.0689 77.2442C29.8227 77.031 29.6435 76.751 29.5529 76.4381C29.4346 75.9947 29.3795 75.5367 29.3892 75.0779V67.3067H27.3125V65.5937H29.3892V61.8152H31.403V65.5937H33.8322Z" fill="#8C8F8F"/>
<path d="M37.7469 65.5937V68.1128C38.1407 67.2383 38.757 66.4826 39.5341 65.9212C40.3404 65.4231 41.2822 65.1897 42.2276 65.2537V67.3822C41.5296 67.3667 40.8346 67.4777 40.176 67.7097C39.6456 67.9144 39.1742 68.2477 38.8041 68.6795C38.4492 69.1388 38.1921 69.6661 38.049 70.2287C37.8894 70.914 37.8133 71.616 37.8224 72.3195V77.748H35.8086V65.5937H37.7469Z" fill="#8C8F8F"/>
<path d="M54.6388 77.6977C54.1903 77.921 53.6918 78.0251 53.1914 78C52.9626 78.0175 52.7326 77.9873 52.5159 77.9115C52.2993 77.8356 52.1008 77.7156 51.9328 77.5591C51.761 77.367 51.631 77.1413 51.5508 76.8964C51.4707 76.6514 51.4421 76.3925 51.4671 76.1359C50.9589 76.7689 50.2954 77.2592 49.5414 77.5591C48.7894 77.8608 47.9852 78.0106 47.1751 78C46.6449 78.0023 46.1165 77.9388 45.6019 77.811C45.1473 77.699 44.7195 77.4978 44.3432 77.2191C43.9735 76.9494 43.6788 76.5895 43.4874 76.1737C43.259 75.681 43.147 75.1423 43.1601 74.5993C43.1412 74.0126 43.262 73.4298 43.5125 72.8989C43.74 72.4737 44.0632 72.1072 44.4565 71.8284C44.8547 71.5392 45.3027 71.3257 45.7781 71.1986C46.2749 71.0544 46.7791 70.9367 47.2884 70.8459C47.8422 70.7326 48.3708 70.657 48.8617 70.594C49.2877 70.5531 49.709 70.473 50.1203 70.3547C50.448 70.278 50.7537 70.1272 51.014 69.9139C51.131 69.803 51.2222 69.6676 51.281 69.5174C51.3397 69.3672 51.3646 69.2058 51.3538 69.0448C51.3697 68.6756 51.2825 68.3093 51.1021 67.9868C50.9477 67.7269 50.7259 67.5137 50.4602 67.3697C50.1915 67.2216 49.8965 67.1274 49.5917 67.0926C49.2753 67.0431 48.9555 67.0178 48.6352 67.017C47.897 66.9935 47.1651 67.1582 46.5081 67.4956C46.2131 67.7062 45.978 67.99 45.8257 68.319C45.6735 68.648 45.6093 69.011 45.6396 69.3723H43.6384C43.6446 68.7068 43.804 68.0517 44.1041 67.4578C44.3778 66.955 44.7658 66.5235 45.2369 66.1983C45.7322 65.8691 46.2819 65.6303 46.8605 65.493C47.5006 65.3479 48.1551 65.276 48.8114 65.2789C49.359 65.2832 49.9057 65.3253 50.4476 65.4048C50.9633 65.4743 51.4622 65.6364 51.9202 65.8835C52.3596 66.1255 52.725 66.4825 52.9774 66.9163C53.2723 67.4371 53.4121 68.0315 53.3802 68.6292V74.9268C53.3661 75.2734 53.3957 75.6204 53.4683 75.9596C53.4683 76.1863 53.7074 76.287 54.0221 76.287C54.2306 76.2844 54.4379 76.2548 54.6388 76.1989V77.6977ZM51.379 71.4001C51.0834 71.6101 50.7429 71.7481 50.3847 71.8032C49.9691 71.8961 49.549 71.9676 49.126 72.0173L47.7667 72.2062C47.3349 72.268 46.9123 72.3822 46.5081 72.5463C46.1598 72.6917 45.8528 72.921 45.6144 73.2138C45.3563 73.5804 45.236 74.0265 45.2746 74.4733C45.2631 74.7638 45.3329 75.0517 45.476 75.3046C45.6035 75.5263 45.78 75.7159 45.992 75.8588C46.22 76.0022 46.4713 76.1045 46.7346 76.1611C47.0327 76.2228 47.3365 76.2524 47.6408 76.2492C48.2183 76.2616 48.7935 76.172 49.34 75.9848C49.7632 75.8365 50.1525 75.6052 50.4853 75.3046C50.7671 75.0559 50.9942 74.7514 51.1524 74.4104C51.2834 74.1254 51.3561 73.817 51.3664 73.5035L51.379 71.4001Z" fill="#8C8F8F"/>
<path d="M66.4054 62.7723H56.7265V60.8705H69.0485V62.7723L58.6019 75.8461H69.338V77.7354H55.9336V75.8461L66.4054 62.7723Z" fill="#8C8F8F"/>
<path d="M79.709 76.9293C78.7112 77.6482 77.5014 78.0118 76.2729 77.9621C75.4108 77.981 74.554 77.8224 73.7557 77.4961C73.0679 77.2185 72.4524 76.7877 71.9558 76.2366C71.4505 75.6398 71.0734 74.9452 70.8482 74.1962C70.603 73.3781 70.4675 72.531 70.4455 71.6771C70.4401 70.82 70.5806 69.9681 70.8608 69.1581C71.1468 68.4153 71.5743 67.7352 72.1194 67.1555C72.6326 66.6177 73.2491 66.1893 73.9319 65.896C74.657 65.5747 75.4422 65.4116 76.2352 65.4174C77.1836 65.3802 78.1228 65.6163 78.9412 66.0975C79.6428 66.5245 80.2337 67.1115 80.6655 67.8104C81.0969 68.5064 81.3996 69.2743 81.5592 70.0776C81.7224 70.8429 81.79 71.6256 81.7605 72.4077H72.5348C72.5195 72.9223 72.5832 73.4363 72.7236 73.9317C72.8681 74.3935 73.1034 74.8218 73.4158 75.1912C73.7446 75.5697 74.1529 75.8708 74.6115 76.0728C75.1558 76.3056 75.7442 76.4173 76.3358 76.4003C77.0942 76.3969 77.8297 76.1398 78.4252 75.6698C78.9977 75.2274 79.3802 74.5833 79.495 73.8687H81.4711C81.2891 75.0743 80.66 76.1671 79.709 76.9293ZM79.2307 69.0825C79.0625 68.6724 78.8143 68.2999 78.5007 67.9868C78.1935 67.6719 77.8251 67.4233 77.4183 67.2563C76.9819 67.0657 76.5098 66.9712 76.0338 66.9792C75.5495 66.9699 75.0689 67.0644 74.6241 67.2563C74.2205 67.4282 73.8564 67.6811 73.5543 67.9994C73.2538 68.318 73.0148 68.6895 72.8494 69.0951C72.6727 69.5201 72.5664 69.971 72.5348 70.4302H79.495C79.4799 69.982 79.3906 69.5393 79.2307 69.1203V69.0825Z" fill="#8C8F8F"/>
<path d="M85.2864 65.5937V67.5333C85.6652 66.8214 86.24 66.233 86.9426 65.8379C87.6453 65.4428 88.4464 65.2575 89.2511 65.304C89.9342 65.2823 90.6147 65.3979 91.2523 65.6441C91.7412 65.842 92.1736 66.1578 92.5109 66.5635C92.8901 66.936 93.175 67.3937 93.3416 67.8986C93.4778 68.4935 93.5454 69.102 93.543 69.7123V77.7354H91.5292V69.473C91.5409 69.1424 91.4844 68.813 91.3631 68.5052C91.2418 68.1975 91.0584 67.9181 90.8244 67.6845C90.5795 67.4578 90.2921 67.282 89.9788 67.1674C89.6655 67.0528 89.3326 67.0017 88.9994 67.0169C88.4567 67.0063 87.9174 67.1048 87.4135 67.3066C86.9824 67.4783 86.5984 67.7503 86.2933 68.1001C85.9828 68.4689 85.7514 68.8976 85.6136 69.3596C85.4583 69.8525 85.3818 70.3669 85.3871 70.8837V77.7732H83.3984V65.5937H85.2864Z" fill="#8C8F8F"/>
<path d="M104.139 76.9293C103.141 77.6482 101.931 78.0118 100.703 77.9621C99.8405 77.981 98.9837 77.8224 98.1853 77.4961C97.4976 77.2185 96.8821 76.7877 96.3855 76.2366C95.8801 75.6398 95.5031 74.9452 95.2779 74.1962C95.0327 73.3781 94.8972 72.531 94.8751 71.6771C94.8698 70.82 95.0103 69.9681 95.2905 69.1581C95.5765 68.4153 96.004 67.7352 96.5491 67.1555C97.0623 66.6177 97.6788 66.1893 98.3615 65.896C99.0867 65.5747 99.8718 65.4116 100.665 65.4174C101.613 65.3802 102.553 65.6163 103.371 66.0975C104.07 66.5282 104.66 67.1144 105.095 67.8104C105.527 68.5064 105.829 69.2743 105.989 70.0776C106.152 70.8429 106.22 71.6256 106.19 72.4077H96.9645C96.9539 72.8616 97.0047 73.315 97.1155 73.7553C97.26 74.2172 97.4954 74.6454 97.8078 75.0149C98.1545 75.401 98.5851 75.7026 99.0664 75.8965C99.6107 76.1292 100.199 76.241 100.791 76.224C101.52 76.2662 102.244 76.0719 102.855 75.6698C103.429 75.2348 103.813 74.5936 103.925 73.8813H105.926C105.735 75.0861 105.096 76.1744 104.139 76.9293ZM103.66 69.1203C103.396 68.4921 102.951 67.9567 102.382 67.5822C101.812 67.2077 101.145 67.0109 100.463 67.0169C99.9792 67.0077 99.4986 67.1022 99.0538 67.294C98.6502 67.466 98.2861 67.7189 97.984 68.0372C97.6794 68.3525 97.4398 68.7249 97.2791 69.1329C97.1024 69.5579 96.9961 70.0088 96.9645 70.468H103.975C103.948 70.0041 103.842 69.5482 103.66 69.1203Z" fill="#8C8F8F"/>
<path d="M115.165 67.6592C114.589 67.2075 113.87 66.9794 113.139 67.0169C112.511 66.9982 111.888 67.1367 111.326 67.4199C110.853 67.6683 110.451 68.0323 110.156 68.4779C109.851 68.9409 109.637 69.4583 109.527 70.0019C109.4 70.5896 109.336 71.1892 109.338 71.7904C109.334 72.3468 109.402 72.9013 109.539 73.4404C109.658 73.9541 109.871 74.441 110.169 74.8763C110.449 75.2952 110.83 75.6372 111.276 75.8713C111.776 76.1343 112.335 76.2644 112.9 76.2491C113.748 76.3025 114.583 76.0223 115.228 75.4682C115.816 74.8814 116.178 74.1049 116.248 73.2767H118.312C118.174 74.6048 117.578 75.8432 116.625 76.7781C115.597 77.6534 114.273 78.1037 112.925 78.0376C112.064 78.0605 111.207 77.9062 110.408 77.5842C109.717 77.3114 109.101 76.88 108.608 76.3247C108.121 75.7475 107.753 75.0798 107.525 74.3599C107.277 73.5434 107.154 72.6941 107.16 71.8408C107.163 70.989 107.282 70.1416 107.513 69.3218C107.73 68.563 108.098 67.8561 108.595 67.2436C109.082 66.6507 109.698 66.1768 110.395 65.8581C111.186 65.5027 112.045 65.3264 112.912 65.3417C113.567 65.3391 114.219 65.4239 114.851 65.5936C115.431 65.7463 115.978 66.007 116.462 66.362C116.924 66.7006 117.314 67.1289 117.607 67.6215C117.924 68.2009 118.117 68.84 118.173 69.4981H116.16C116.054 68.7874 115.702 68.1364 115.165 67.6592Z" fill="#8C8F8F"/>
<path d="M130.911 77.6976C130.462 77.921 129.964 78.0251 129.463 77.9999C129.235 78.0174 129.005 77.9873 128.788 77.9114C128.571 77.8355 128.373 77.7156 128.205 77.5591C128.036 77.3653 127.907 77.1395 127.827 76.8949C127.747 76.6504 127.717 76.3922 127.739 76.1358C127.233 76.7654 126.574 77.2553 125.826 77.5591C125.07 77.8621 124.261 78.0119 123.447 77.9999C122.917 78.0022 122.388 77.9387 121.874 77.811C121.419 77.699 120.991 77.4978 120.615 77.219C120.253 76.9443 119.964 76.5855 119.772 76.1736C119.544 75.658 119.426 75.1002 119.426 74.5363C119.426 73.9723 119.544 73.4145 119.772 72.8989C119.991 72.4714 120.31 72.1039 120.703 71.8283C121.083 71.5459 121.509 71.3327 121.962 71.1985C122.463 71.053 122.971 70.9353 123.485 70.8459C124.026 70.7325 124.555 70.657 125.046 70.594C125.472 70.553 125.893 70.4729 126.304 70.3547C126.635 70.2753 126.944 70.1249 127.21 69.9138C127.323 69.8003 127.411 69.6642 127.467 69.5144C127.523 69.3646 127.548 69.2045 127.538 69.0448C127.554 68.6756 127.466 68.3092 127.286 67.9868C127.133 67.7304 126.916 67.5178 126.657 67.3696C126.383 67.2237 126.084 67.1297 125.776 67.0925C125.459 67.0424 125.139 67.0171 124.819 67.017C124.085 66.9917 123.356 67.1565 122.705 67.4956C122.423 67.7147 122.203 68.0022 122.064 68.3307C121.925 68.6592 121.873 69.0177 121.912 69.3723H119.91C119.917 68.7068 120.076 68.0517 120.376 67.4578C120.65 66.9549 121.038 66.5235 121.509 66.1983C122.004 65.8691 122.554 65.6303 123.132 65.4929C123.773 65.3491 124.427 65.2773 125.083 65.2788C125.631 65.2832 126.178 65.3253 126.72 65.4048C127.235 65.4742 127.734 65.6364 128.192 65.8834C128.633 66.1286 129.001 66.4846 129.262 66.9162C129.547 67.4405 129.682 68.0331 129.652 68.6291V74.9267C129.645 75.2731 129.674 75.6194 129.74 75.9595C129.74 76.1862 129.979 76.287 130.294 76.287C130.503 76.2843 130.71 76.2547 130.911 76.1988V77.6976ZM127.651 71.4001C127.355 71.61 127.015 71.748 126.657 71.8031C126.241 71.896 125.821 71.9675 125.398 72.0172L124.039 72.2062C123.607 72.268 123.184 72.3822 122.78 72.5462C122.432 72.6917 122.125 72.921 121.886 73.2138C121.628 73.5804 121.508 74.0265 121.547 74.4733C121.541 74.7631 121.611 75.0494 121.748 75.3046C121.879 75.5233 122.055 75.7121 122.264 75.8587C122.492 76.0022 122.743 76.1045 123.007 76.161C123.305 76.2228 123.608 76.2523 123.913 76.2492C124.49 76.2615 125.065 76.172 125.612 75.9847C126.038 75.8335 126.431 75.6027 126.77 75.3046C127.044 75.0521 127.267 74.7483 127.424 74.4103C127.555 74.1253 127.628 73.817 127.638 73.5035L127.651 71.4001Z" fill="#8C8F8F"/>
<path d="M147.688 60.8705C149.049 60.7899 150.392 61.2111 151.464 62.0544C151.918 62.4581 152.275 62.9584 152.511 63.5186C152.746 64.0787 152.853 64.6845 152.823 65.2914C152.846 66.2366 152.606 67.1696 152.131 67.9867C151.623 68.7855 150.824 69.3548 149.903 69.5737C150.327 69.6464 150.731 69.8096 151.086 70.0523C151.389 70.2553 151.639 70.5273 151.816 70.8458C152.006 71.1612 152.142 71.506 152.219 71.866C152.307 72.2569 152.374 72.6521 152.421 73.05C152.421 73.4614 152.446 73.8812 152.496 74.3095C152.508 74.7312 152.546 75.1518 152.609 75.569C152.669 75.9665 152.761 76.3583 152.886 76.7403C152.994 77.0967 153.174 77.4269 153.415 77.7102H150.898C150.727 77.5104 150.618 77.2654 150.583 77.0048C150.522 76.6719 150.484 76.3353 150.47 75.9972C150.47 75.632 150.47 75.2415 150.47 74.8133C150.451 74.3902 150.401 73.9692 150.319 73.5538C150.319 73.1507 150.18 72.7603 150.092 72.395C150.003 72.0462 149.849 71.7172 149.639 71.4252C149.431 71.1387 149.154 70.9091 148.833 70.7576C148.437 70.5829 148.008 70.4969 147.575 70.5057H142.1V77.7102H139.859V60.8705H147.688ZM148.166 68.5283C148.613 68.4673 149.042 68.3128 149.425 68.0749C149.781 67.8377 150.075 67.518 150.281 67.1428C150.506 66.6763 150.614 66.1618 150.596 65.644C150.624 64.8881 150.373 64.1481 149.891 63.5658C149.587 63.2792 149.225 63.0602 148.83 62.9235C148.435 62.7867 148.016 62.7352 147.6 62.7723H142.024V68.6417H146.694C147.187 68.6421 147.679 68.6042 148.166 68.5283Z" fill="#8C8F8F"/>
<path d="M165.914 77.6977C165.465 77.9211 164.967 78.0252 164.466 78C164.237 78.0175 164.007 77.9874 163.791 77.9115C163.574 77.8356 163.376 77.7157 163.208 77.5592C163.038 77.3654 162.91 77.1395 162.83 76.895C162.75 76.6505 162.72 76.3923 162.742 76.1359C162.236 76.7655 161.577 77.2554 160.829 77.5592C160.073 77.8621 159.264 78.012 158.45 78C157.92 78.0023 157.391 77.9388 156.877 77.8111C156.422 77.699 155.994 77.4978 155.618 77.2191C155.255 76.9423 154.962 76.5843 154.762 76.1737C154.534 75.658 154.416 75.1003 154.416 74.5363C154.416 73.9723 154.534 73.4146 154.762 72.899C154.981 72.4715 155.301 72.104 155.694 71.8284C156.092 71.5392 156.54 71.3257 157.015 71.1986C157.516 71.0531 158.024 70.9354 158.538 70.8459C159.079 70.7326 159.608 70.657 160.099 70.594C160.546 70.555 160.988 70.4749 161.42 70.3547C161.746 70.2726 162.051 70.1223 162.314 69.9139C162.427 69.8004 162.514 69.6642 162.571 69.5145C162.627 69.3647 162.651 69.2046 162.641 69.0448C162.657 68.6756 162.57 68.3093 162.389 67.9869C162.236 67.7304 162.019 67.5179 161.76 67.3697C161.486 67.2237 161.187 67.1298 160.879 67.0926C160.563 67.0424 160.243 67.0172 159.923 67.017C159.188 66.9934 158.461 67.1582 157.808 67.4956C157.507 67.6955 157.263 67.9699 157.1 68.2922C156.937 68.6145 156.86 68.9736 156.877 69.3345H154.875C154.888 68.6698 155.047 68.0161 155.341 67.4201C155.616 66.9138 156.009 66.4816 156.486 66.1606C156.975 65.8281 157.522 65.589 158.098 65.4552C158.738 65.3114 159.392 65.2396 160.048 65.2411C160.596 65.2455 161.143 65.2876 161.685 65.3671C162.2 65.4365 162.699 65.5986 163.157 65.8457C163.598 66.0909 163.966 66.4469 164.227 66.8785C164.512 67.4028 164.647 67.9954 164.617 68.5914V74.889C164.61 75.2354 164.639 75.5817 164.705 75.9218C164.705 76.1485 164.944 76.2493 165.259 76.2493C165.468 76.2466 165.675 76.217 165.876 76.1611L165.914 77.6977ZM162.654 71.4001C162.358 71.6101 162.018 71.7481 161.659 71.8032C161.244 71.8961 160.824 71.9676 160.401 72.0173L159.041 72.2062C158.61 72.2698 158.188 72.384 157.783 72.5463C157.437 72.6952 157.13 72.924 156.889 73.2138C156.631 73.5804 156.511 74.0265 156.549 74.4734C156.544 74.7632 156.613 75.0494 156.751 75.3046C156.882 75.5234 157.058 75.7122 157.267 75.8588C157.498 76.0043 157.754 76.1068 158.022 76.1611C158.316 76.2234 158.615 76.253 158.916 76.2493C159.493 76.2616 160.068 76.172 160.615 75.9848C161.04 75.8336 161.433 75.6027 161.773 75.3046C162.047 75.0521 162.269 74.7483 162.427 74.4104C162.558 74.1254 162.631 73.817 162.641 73.5035L162.654 71.4001Z" fill="#8C8F8F"/>
<path d="M169.689 65.5936V68.1127C170.088 67.2373 170.708 66.4817 171.489 65.9211C172.294 65.4198 173.237 65.1861 174.183 65.2536V67.3821C173.481 67.3678 172.782 67.4787 172.119 67.7096C171.59 67.9114 171.122 68.2453 170.759 68.6794C170.395 69.1326 170.136 69.6621 170.004 70.2286C169.834 70.9122 169.753 71.615 169.765 72.3194V77.7479H167.764V65.5936H169.689Z" fill="#8C8F8F"/>
<path d="M184.263 76.9293C183.261 77.6483 182.047 78.0117 180.815 77.9621C179.953 77.981 179.096 77.8224 178.297 77.4961C177.608 77.2155 176.989 76.7853 176.485 76.2366C175.988 75.6358 175.616 74.9422 175.39 74.1961C175.146 73.3773 175.007 72.5309 174.975 71.6771C174.973 70.8192 175.118 69.9674 175.403 69.1581C175.67 68.4203 176.076 67.7405 176.598 67.1555C177.109 66.615 177.726 66.1861 178.411 65.896C179.136 65.5747 179.921 65.4115 180.714 65.4173C181.662 65.3844 182.6 65.6202 183.42 66.0975C184.119 66.5282 184.709 67.1144 185.144 67.8104C185.576 68.5064 185.878 69.2743 186.038 70.0775C186.195 70.8438 186.263 71.6257 186.239 72.4076H177.102C177.086 72.9223 177.15 73.4363 177.29 73.9316C177.43 74.3956 177.666 74.8248 177.983 75.1912C178.309 75.5722 178.718 75.8737 179.178 76.0728C179.723 76.3055 180.311 76.4173 180.903 76.4003C181.645 76.4369 182.379 76.229 182.992 75.8083C183.567 75.3733 183.95 74.7321 184.062 74.0198H186.051C185.827 75.1744 185.192 76.2084 184.263 76.9293ZM183.785 69.0825C183.612 68.6749 183.364 68.3033 183.055 67.9867C182.723 67.6602 182.33 67.403 181.897 67.23C181.465 67.0571 181.003 66.9718 180.538 66.9791C180.053 66.9687 179.573 67.0633 179.128 67.2562C178.723 67.4249 178.358 67.6782 178.058 67.9993C177.754 68.3147 177.514 68.6871 177.353 69.0951C177.177 69.5201 177.07 69.971 177.039 70.4302H184.049C184.034 69.9819 183.945 69.5393 183.785 69.1203V69.0825Z" fill="#8C8F8F"/>
<path d="M201.066 60.8706C203.25 60.7294 205.402 61.443 207.07 62.8606C207.819 63.6679 208.393 64.6221 208.755 65.6627C209.117 66.7034 209.259 67.8079 209.172 68.9063C209.19 70.182 209.029 71.454 208.693 72.6848C208.416 73.7046 207.918 74.6507 207.233 75.4558C206.54 76.2157 205.678 76.8024 204.716 77.1687C203.549 77.5818 202.316 77.7781 201.079 77.7481H195.289V60.8706H201.066ZM201.255 75.8462C201.507 75.8462 201.821 75.8462 202.199 75.8462C202.629 75.802 203.052 75.7047 203.458 75.5565C203.902 75.3958 204.325 75.18 204.716 74.9142C205.162 74.6058 205.543 74.212 205.836 73.7554C206.196 73.1808 206.46 72.5511 206.617 71.8913C206.851 71.0254 206.961 70.1306 206.944 69.2338C206.955 68.3263 206.854 67.4209 206.642 66.5384C206.469 65.7964 206.139 65.1004 205.673 64.498C205.214 63.9337 204.615 63.4994 203.936 63.2385C203.099 62.9279 202.21 62.7825 201.318 62.8103H197.542V75.8462H201.255Z" fill="#8C8F8F"/>
<path d="M210.896 63.3392V60.8202H212.91V63.3392H210.896ZM212.91 65.5937V77.7984H210.896V65.5937H212.91Z" fill="#8C8F8F"/>
<path d="M217.102 75.0148C217.283 75.3178 217.539 75.5693 217.845 75.7453C218.165 75.9313 218.514 76.0632 218.877 76.1358C219.271 76.2116 219.671 76.2496 220.072 76.2491C220.405 76.2458 220.737 76.2248 221.067 76.1862C221.396 76.1405 221.718 76.0516 222.023 75.9217C222.305 75.7998 222.552 75.6092 222.741 75.3675C222.929 75.0858 223.014 74.7474 222.98 74.4102C222.994 74.1796 222.948 73.9493 222.847 73.7418C222.745 73.5343 222.592 73.3566 222.401 73.2263C221.942 72.9363 221.441 72.7196 220.916 72.5839C220.324 72.4076 219.657 72.2691 219.003 72.1305C218.344 72.0038 217.699 71.814 217.077 71.5637C216.51 71.3362 216.002 70.9831 215.592 70.5309C215.176 70.0121 214.969 69.3559 215.013 68.6921C214.993 68.1355 215.133 67.5848 215.416 67.1051C215.686 66.6709 216.052 66.3046 216.485 66.0345C216.935 65.751 217.429 65.5425 217.945 65.4173C218.477 65.2883 219.022 65.2207 219.569 65.2158C220.207 65.2129 220.843 65.272 221.47 65.3921C222.02 65.4992 222.545 65.7085 223.018 66.0093C223.471 66.308 223.843 66.7149 224.1 67.1932C224.385 67.7703 224.544 68.4015 224.566 69.0447H222.602C222.581 68.6962 222.472 68.3586 222.288 68.0623C222.121 67.8078 221.897 67.5963 221.633 67.4451C221.357 67.2803 221.055 67.1652 220.74 67.1051C220.422 67.0294 220.097 66.9914 219.77 66.9917C219.463 66.9924 219.155 67.0176 218.852 67.0673C218.564 67.105 218.284 67.1857 218.021 67.3066C217.783 67.4194 217.573 67.5827 217.404 67.7852C217.243 68.0082 217.159 68.2781 217.165 68.5535C217.163 68.7139 217.194 68.873 217.257 69.0205C217.32 69.168 217.413 69.3007 217.53 69.41C217.806 69.6503 218.121 69.8419 218.461 69.9768C218.87 70.138 219.291 70.2644 219.72 70.3546L221.13 70.6821C221.627 70.7855 222.119 70.9158 222.602 71.0725C223.048 71.2255 223.471 71.4373 223.861 71.7023C224.225 71.963 224.529 72.2978 224.755 72.6847C224.995 73.1332 225.112 73.6373 225.094 74.1457C225.119 74.7931 224.962 75.4344 224.641 75.9972C224.319 76.4811 223.888 76.8824 223.383 77.1686C222.868 77.4803 222.301 77.6939 221.709 77.7983C221.098 77.912 220.479 77.971 219.859 77.9747C219.207 77.9753 218.556 77.9035 217.92 77.7605C217.337 77.6311 216.783 77.3964 216.284 77.0678C215.816 76.7392 215.429 76.3085 215.151 75.8083C214.853 75.2094 214.693 74.5505 214.686 73.8812H216.687C216.726 74.2884 216.869 74.6787 217.102 75.0148Z" fill="#8C8F8F"/>
<path d="M235.566 76.9293C234.569 77.6482 233.359 78.0118 232.13 77.9621C231.268 77.981 230.411 77.8224 229.613 77.4961C228.925 77.2185 228.31 76.7877 227.813 76.2366C227.308 75.6398 226.931 74.9452 226.706 74.1962C226.46 73.3781 226.325 72.531 226.303 71.6771C226.298 70.82 226.438 69.9681 226.718 69.1581C226.985 68.4203 227.391 67.7405 227.914 67.1555C228.427 66.6177 229.044 66.1893 229.726 65.896C230.451 65.5747 231.237 65.4116 232.03 65.4174C232.978 65.3802 233.917 65.6163 234.736 66.0975C235.434 66.5282 236.025 67.1144 236.46 67.8104C236.891 68.5064 237.194 69.2743 237.354 70.0776C237.517 70.8429 237.584 71.6256 237.555 72.4077H228.417C228.402 72.9223 228.466 73.4363 228.606 73.9317C228.751 74.3935 228.986 74.8218 229.298 75.1912C229.645 75.5774 230.076 75.879 230.557 76.0728C231.101 76.3056 231.69 76.4173 232.281 76.4003C233.024 76.437 233.758 76.229 234.371 75.8083C234.945 75.3712 235.332 74.7318 235.453 74.0198H237.429C237.186 75.1857 236.523 76.2213 235.566 76.9293ZM235.088 69.0825C234.92 68.6724 234.672 68.2999 234.358 67.9868C234.051 67.6719 233.683 67.4233 233.276 67.2563C232.839 67.0668 232.367 66.9724 231.891 66.9792C231.407 66.9699 230.926 67.0644 230.482 67.2563C230.078 67.4282 229.714 67.6811 229.412 67.9994C229.107 68.3147 228.868 68.6871 228.707 69.0951C228.53 69.5201 228.424 69.971 228.392 70.4302H235.403C235.352 69.9754 235.224 69.5325 235.025 69.1203L235.088 69.0825Z" fill="#8C8F8F"/>
<path d="M250.393 77.6976C249.944 77.921 249.446 78.0251 248.945 77.9999C248.716 78.0174 248.486 77.9873 248.27 77.9114C248.053 77.8355 247.855 77.7156 247.687 77.5591C247.517 77.3654 247.389 77.1395 247.309 76.8949C247.229 76.6504 247.199 76.3922 247.221 76.1358C246.713 76.7688 246.049 77.2592 245.295 77.5591C244.543 77.8608 243.739 78.0106 242.929 77.9999C242.399 78.0022 241.87 77.9388 241.356 77.811C240.901 77.699 240.473 77.4978 240.097 77.219C239.727 76.9494 239.433 76.5895 239.241 76.1736C239.013 75.6809 238.901 75.1422 238.914 74.5992C238.895 74.0125 239.016 73.4297 239.266 72.8989C239.494 72.4736 239.817 72.1071 240.21 71.8283C240.609 71.5391 241.057 71.3257 241.532 71.1985C242.033 71.053 242.541 70.9353 243.055 70.8459C243.596 70.7325 244.125 70.657 244.616 70.594C245.042 70.553 245.463 70.4729 245.874 70.3547C246.205 70.2753 246.514 70.1249 246.78 69.9138C246.893 69.8003 246.981 69.6642 247.037 69.5144C247.094 69.3646 247.118 69.2045 247.108 69.0448C247.124 68.6756 247.036 68.3092 246.856 67.9868C246.702 67.7269 246.48 67.5136 246.214 67.3696C245.945 67.2215 245.65 67.1274 245.346 67.0925C245.029 67.043 244.709 67.0178 244.389 67.017C243.651 66.9934 242.919 67.1581 242.262 67.4956C241.964 67.6969 241.722 67.972 241.561 68.2942C241.4 68.6164 241.325 68.9747 241.343 69.3345H239.342C239.348 68.669 239.508 68.0139 239.808 67.42C240.081 66.9171 240.469 66.4857 240.94 66.1605C241.436 65.8313 241.985 65.5925 242.564 65.4552C243.204 65.31 243.859 65.2382 244.515 65.241C245.063 65.2454 245.609 65.2875 246.151 65.367C246.667 65.4364 247.166 65.5986 247.624 65.8456C248.063 66.0877 248.429 66.4447 248.681 66.8784C248.976 67.3992 249.116 67.9936 249.084 68.5914V74.8889C249.07 75.2355 249.099 75.5825 249.172 75.9217C249.172 76.1484 249.411 76.2492 249.726 76.2492C249.934 76.2466 250.141 76.2169 250.342 76.161L250.393 77.6976ZM247.133 71.4001C246.837 71.61 246.497 71.748 246.139 71.8031C245.723 71.896 245.303 71.9675 244.88 72.0172L243.521 72.2062C243.089 72.268 242.666 72.3822 242.262 72.5462C241.914 72.6917 241.607 72.921 241.368 73.2138C241.11 73.5804 240.99 74.0265 241.029 74.4733C241.017 74.7637 241.087 75.0516 241.23 75.3046C241.357 75.5263 241.534 75.7159 241.746 75.8587C241.974 76.0022 242.225 76.1045 242.489 76.161C242.787 76.2228 243.09 76.2523 243.395 76.2492C243.972 76.2615 244.547 76.172 245.094 75.9847C245.519 75.8335 245.912 75.6027 246.252 75.3046C246.522 75.0509 246.74 74.7472 246.894 74.4103C247.025 74.1253 247.097 73.817 247.108 73.5035L247.133 71.4001Z" fill="#8C8F8F"/>
<path d="M253.841 75.0149C254.026 75.3152 254.281 75.566 254.584 75.7454C254.909 75.9314 255.262 76.0633 255.629 76.1359C256.023 76.2122 256.423 76.2501 256.824 76.2492C257.153 76.2463 257.48 76.2252 257.806 76.1862C258.135 76.1418 258.457 76.0528 258.763 75.9217C259.044 75.7999 259.291 75.6093 259.48 75.3676C259.68 75.0988 259.782 74.7701 259.77 74.4355C259.781 74.2039 259.733 73.9733 259.629 73.7659C259.525 73.5585 259.37 73.3813 259.178 73.2516C258.725 72.96 258.228 72.7431 257.705 72.6092C257.114 72.4329 256.447 72.2943 255.78 72.1558C255.122 72.0273 254.477 71.8376 253.854 71.589C253.289 71.3646 252.785 71.0109 252.381 70.5562C251.962 70.0386 251.751 69.3827 251.79 68.7173C251.774 68.1595 251.918 67.6088 252.205 67.1303C252.474 66.6997 252.835 66.3341 253.263 66.0597C253.717 65.777 254.215 65.5686 254.735 65.4426C255.263 65.3136 255.803 65.246 256.346 65.2411C256.988 65.2382 257.629 65.2973 258.259 65.4174C258.808 65.5291 259.332 65.7381 259.807 66.0346C260.257 66.3336 260.625 66.7407 260.877 67.2185C261.166 67.7946 261.329 68.4258 261.355 69.07H259.342C259.335 68.7415 259.242 68.4206 259.072 68.1397C258.902 67.8588 258.661 67.6279 258.373 67.4704C258.103 67.3024 257.804 67.1871 257.491 67.1303C257.17 67.0554 256.84 67.0174 256.51 67.017C256.206 67.0171 255.903 67.0424 255.604 67.0925C255.312 67.1303 255.028 67.211 254.76 67.3319C254.524 67.4414 254.317 67.6054 254.156 67.8105C253.988 68.0303 253.904 68.3024 253.917 68.5788C253.915 68.7391 253.946 68.8982 254.009 69.0458C254.072 69.1933 254.165 69.326 254.282 69.4352C254.554 69.681 254.87 69.8733 255.213 70.002C255.622 70.1623 256.043 70.2887 256.472 70.3799L257.894 70.7074C258.392 70.8108 258.883 70.9411 259.367 71.0978C259.813 71.2498 260.236 71.4617 260.625 71.7276C260.993 71.9878 261.302 72.3225 261.532 72.71C261.772 73.1585 261.889 73.6625 261.872 74.171C261.898 74.8202 261.737 75.4633 261.406 76.0225C261.089 76.5102 260.656 76.9125 260.147 77.1939C259.628 77.5055 259.057 77.719 258.461 77.8236C257.851 77.9384 257.231 77.9974 256.61 77.9999C255.958 78.0006 255.308 77.9288 254.672 77.7858C254.093 77.6566 253.543 77.4218 253.049 77.0931C252.578 76.7672 252.19 76.3359 251.916 75.8336C251.613 75.2357 251.449 74.5768 251.438 73.9065H253.451C253.481 74.3041 253.615 74.6867 253.841 75.0149Z" fill="#8C8F8F"/>
<path d="M272.256 76.9294C271.252 77.6466 270.039 78.0099 268.807 77.9622C267.945 77.9833 267.088 77.8246 266.29 77.4962C265.6 77.2156 264.981 76.7854 264.477 76.2366C263.972 75.6421 263.598 74.9465 263.382 74.1962C263.139 73.3774 262.999 72.531 262.967 71.6772C262.96 70.8188 263.105 69.966 263.395 69.1582C263.676 68.4129 264.104 67.7318 264.654 67.1556C265.162 66.6125 265.78 66.1833 266.466 65.896C267.191 65.5748 267.976 65.4116 268.769 65.4174C269.714 65.3806 270.649 65.6167 271.463 66.0976C272.164 66.5246 272.755 67.1115 273.187 67.8105C273.622 68.5058 273.929 69.2737 274.093 70.0776C274.251 70.8439 274.318 71.6258 274.295 72.4077H265.157C265.142 72.9224 265.205 73.4364 265.346 73.9317C265.481 74.3949 265.713 74.8242 266.026 75.1913C266.371 75.5791 266.802 75.881 267.284 76.0729C267.828 76.3068 268.417 76.4186 269.008 76.4004C269.751 76.4352 270.484 76.2274 271.098 75.8084C271.669 75.3699 272.051 74.7304 272.168 74.0199H274.156C273.894 75.1873 273.219 76.2206 272.256 76.9294ZM271.777 69.0826C271.605 68.6719 271.352 68.2995 271.035 67.9868C270.728 67.672 270.359 67.4234 269.952 67.2563C269.062 66.8875 268.061 66.8875 267.171 67.2563C266.763 67.428 266.395 67.6808 266.088 67.9994C265.792 68.3211 265.553 68.6919 265.384 69.0952C265.205 69.519 265.103 69.9709 265.082 70.4303H272.067C272.038 69.9814 271.941 69.5396 271.777 69.1204V69.0826Z" fill="#8C8F8F"/>
</g>
<defs>
<clipPath id="clip0_1863_16851">
<rect width="284.488" height="77.9387" fill="white" transform="translate(0.755859 0.0612793)"/>
</clipPath>
</defs>
</svg>
