<svg width="165" height="93" viewBox="0 0 165 93" fill="none" xmlns="http://www.w3.org/2000/svg">
<g clip-path="url(#clip0_1134_12842)">
<path d="M52.2338 24.2799C50.4141 26.9498 52.9896 31.6572 56.7501 32.5311C59.1499 33.092 61.9955 31.7221 61.0956 27.7006C59.5824 22.9866 54.1431 21.4702 52.2355 24.2783" fill="#E7B4D3"/>
<path d="M41.2126 23.9137C37.4322 24.448 35.7484 28.8207 38.2626 31.5756C39.8652 33.3367 43.45 34.1956 46.0072 31.2327C48.6109 27.4874 45.1835 23.3494 41.2126 23.9153" fill="#E7B4D3"/>
<path d="M30.0954 29.5215C27.0775 29.9476 25.735 33.4381 27.7404 35.637C29.0198 37.0419 31.882 37.7277 33.9222 35.3624C36.0005 32.3728 33.2642 29.0687 30.0954 29.5215Z" fill="#E7B4D3"/>
<path d="M75.0305 65.2809C74.2483 66.4344 73.6367 67.6678 73.1975 68.9812C72.7567 70.2945 72.5379 71.6561 72.5379 73.0643C72.5379 74.4725 72.7666 75.7908 73.2224 77.0892C73.6781 78.3858 74.2814 79.606 75.0322 80.7478H74.2002C73.7544 80.117 73.3583 79.5027 73.0102 78.9102C72.6639 78.3176 72.3722 77.7117 72.1352 77.0975C71.8998 76.4833 71.7225 75.8391 71.6048 75.1683C71.4872 74.4975 71.4275 73.7684 71.4275 72.9811C71.4275 72.1937 71.4888 71.498 71.6115 70.8271C71.7341 70.1563 71.9131 69.5105 72.1501 68.8896C72.3854 68.2687 72.6738 67.6612 73.0169 67.0686C73.3583 66.476 73.7527 65.8801 74.1985 65.2809H75.0305Z" fill="#41273B"/>
<path d="M76.8883 76.1936C77.0408 76.936 77.3142 77.4603 77.712 77.7649C78.1081 78.0696 78.6765 78.2227 79.4157 78.2227C79.7754 78.2227 80.0836 78.1778 80.3455 78.0895C80.6057 78.0013 80.8211 77.8815 80.9885 77.7317C81.1576 77.5818 81.2852 77.4137 81.3714 77.224C81.4575 77.0359 81.5023 76.8361 81.5023 76.6247C81.5023 76.2036 81.3697 75.8907 81.1029 75.6859C80.836 75.4812 80.5029 75.3197 80.1002 75.2032C79.6975 75.0867 79.2632 74.9868 78.7959 74.9036C78.3285 74.8204 77.8943 74.6955 77.4916 74.5307C77.0888 74.3643 76.7557 74.1263 76.4889 73.815C76.222 73.5054 76.0895 73.0659 76.0895 72.5017C76.0895 71.7809 76.348 71.19 76.8634 70.7306C77.3789 70.2712 78.1097 70.0398 79.0561 70.0398C80.0024 70.0398 80.7101 70.2479 81.2819 70.664C81.852 71.0801 82.1967 71.7759 82.3177 72.7513H81.3233C81.2371 72.0855 80.9885 71.6178 80.5825 71.3448C80.1748 71.0735 79.661 70.937 79.0428 70.937C78.4246 70.937 77.9506 71.0735 77.6241 71.3448C77.2977 71.6178 77.1352 71.974 77.1352 72.4184C77.1352 72.8063 77.2678 73.1026 77.5346 73.309C77.8015 73.5137 78.1346 73.6802 78.5373 73.8083C78.9384 73.9365 79.3743 74.0497 79.8416 74.1496C80.309 74.2494 80.7432 74.3909 81.146 74.574C81.547 74.7571 81.8818 75.0035 82.1486 75.3147C82.4155 75.626 82.5481 76.0571 82.5481 76.6114C82.5481 77.0226 82.4602 77.3838 82.2879 77.7017C82.1138 78.018 81.8752 78.281 81.5702 78.4907C81.2653 78.7021 80.904 78.8602 80.4863 78.9651C80.067 79.07 79.608 79.1232 79.1091 79.1232C78.6103 79.1232 78.1661 79.0483 77.7799 78.8985C77.3938 78.7487 77.0656 78.5406 76.7938 78.2743C76.522 78.008 76.3099 77.6984 76.1574 77.3438C76.0049 76.9893 75.9188 76.6064 75.8972 76.1953H76.8916L76.8883 76.1936Z" fill="#41273B"/>
<path d="M84.9081 74.8121C84.9081 75.2782 84.9678 75.7193 85.0871 76.1337C85.2065 76.5499 85.3838 76.9111 85.6175 77.2157C85.8511 77.5203 86.1478 77.765 86.5058 77.9481C86.8638 78.1312 87.2764 78.2227 87.7438 78.2227C88.3852 78.2227 88.9338 78.0513 89.3895 77.7084C89.8453 77.3655 90.1502 76.8761 90.3027 76.2453H91.3949C91.2756 76.6564 91.1181 77.0359 90.9226 77.3838C90.727 77.7334 90.4834 78.038 90.1884 78.2976C89.895 78.559 89.547 78.7604 89.1459 78.9052C88.7432 79.05 88.2758 79.1216 87.7438 79.1216C87.0709 79.1216 86.4892 79.0051 86.0003 78.772C85.5114 78.539 85.1087 78.2211 84.7938 77.8149C84.4789 77.4104 84.2452 76.9344 84.0927 76.3851C83.9403 75.8358 83.864 75.2449 83.864 74.614C83.864 73.9831 83.9535 73.3889 84.1325 72.8346C84.3115 72.2803 84.5667 71.7959 84.8982 71.3798C85.2297 70.9637 85.634 70.6374 86.113 70.3994C86.5903 70.1597 87.1339 70.0415 87.7422 70.0415C88.9056 70.0415 89.8171 70.4493 90.4817 71.2633C91.1446 72.0789 91.4695 73.2607 91.4595 74.8138H84.9065L84.9081 74.8121ZM90.4171 73.9815C90.4171 73.5604 90.3591 73.1642 90.2464 72.7913C90.132 72.4201 89.9646 72.0989 89.7409 71.8276C89.5188 71.5562 89.2387 71.3399 88.9023 71.1784C88.5658 71.0186 88.1797 70.937 87.7455 70.937C87.3112 70.937 86.9268 71.0203 86.5969 71.1867C86.2655 71.3532 85.9837 71.5746 85.7484 71.8525C85.5147 72.1305 85.3274 72.4518 85.1866 72.8163C85.0457 73.1825 84.9529 73.5703 84.9098 73.9798H90.4187L90.4171 73.9815Z" fill="#41273B"/>
<path d="M94.3299 66.9138H93.3521V78.8869H94.3299V66.9138Z" fill="#41273B"/>
<path d="M102.545 70.2728H103.523V78.8869H102.545V77.6901C102.414 77.8465 102.268 78.0063 102.104 78.1728C101.942 78.3392 101.755 78.4924 101.543 78.6305C101.33 78.7687 101.083 78.8852 100.8 78.9801C100.518 79.0733 100.192 79.1216 99.8223 79.1216C99.2571 79.1216 98.7848 79.04 98.4036 78.8802C98.0224 78.7187 97.7158 78.4957 97.4821 78.2061C97.2484 77.9181 97.0794 77.5819 96.9766 77.2007C96.8739 76.8178 96.8225 76.4 96.8225 75.9456V70.2745H97.8003V75.929C97.8003 76.6713 97.9694 77.239 98.3058 77.6335C98.6422 78.028 99.1975 78.2227 99.9681 78.2227C100.369 78.2227 100.732 78.1428 101.052 77.9813C101.372 77.8215 101.64 77.5968 101.859 77.3072C102.076 77.0192 102.245 76.6763 102.365 76.2752C102.484 75.8774 102.544 75.4379 102.544 74.9619V70.2712L102.545 70.2728Z" fill="#41273B"/>
<path d="M106.735 78.8869H105.757V70.2729H106.735V71.5696H106.768C107.019 71.0702 107.377 70.6907 107.844 70.4294C108.311 70.1697 108.822 70.0382 109.375 70.0382C109.766 70.0382 110.098 70.0831 110.37 70.1714C110.641 70.2613 110.872 70.3794 111.062 70.5293C111.253 70.6791 111.41 70.8538 111.535 71.0536C111.659 71.2533 111.765 71.4697 111.853 71.7028C112.135 71.1385 112.513 70.719 112.987 70.4477C113.459 70.1764 113.999 70.0399 114.609 70.0399C115.184 70.0399 115.643 70.1364 115.986 70.3312C116.329 70.5259 116.591 70.7806 116.777 71.0969C116.961 71.4131 117.083 71.776 117.143 72.1855C117.203 72.5966 117.233 73.0177 117.233 73.4489V78.8869H116.255V72.9328C116.255 72.312 116.127 71.8243 115.872 71.4697C115.617 71.1152 115.141 70.9371 114.445 70.9371C114.087 70.9371 113.741 71.0186 113.411 71.1784C113.079 71.3399 112.789 71.5862 112.539 71.9191C112.43 72.064 112.34 72.2321 112.271 72.4268C112.199 72.6216 112.143 72.823 112.1 73.0344C112.057 73.2458 112.027 73.4555 112.01 73.6669C111.994 73.8783 111.986 74.0714 111.986 74.2495V78.8903H111.008V72.9362C111.008 72.3153 110.88 71.8276 110.625 71.473C110.37 71.1185 109.894 70.9404 109.198 70.9404C108.84 70.9404 108.494 71.022 108.164 71.1817C107.832 71.3432 107.541 71.5896 107.292 71.9225C107.183 72.0673 107.093 72.2354 107.024 72.4302C106.952 72.6249 106.896 72.8263 106.853 73.0377C106.81 73.2491 106.78 73.4588 106.763 73.6702C106.747 73.8816 106.738 74.0747 106.738 74.2528V78.8936L106.735 78.8869Z" fill="#41273B"/>
<path d="M120.068 74.8121C120.068 75.2782 120.128 75.7193 120.247 76.1337C120.367 76.5499 120.544 76.9111 120.778 77.2157C121.011 77.5203 121.308 77.765 121.666 77.9481C122.024 78.1312 122.437 78.2227 122.904 78.2227C123.545 78.2227 124.094 78.0513 124.55 77.7084C125.005 77.3655 125.31 76.8761 125.463 76.2453H126.555C126.436 76.6564 126.278 77.0359 126.083 77.3838C125.887 77.7334 125.644 78.038 125.349 78.2976C125.055 78.559 124.707 78.7604 124.306 78.9052C123.903 79.05 123.436 79.1216 122.904 79.1216C122.231 79.1216 121.649 79.0051 121.16 78.772C120.672 78.539 120.269 78.2211 119.954 77.8149C119.639 77.4104 119.405 76.9344 119.253 76.3851C119.1 75.8358 119.024 75.2449 119.024 74.614C119.024 73.9831 119.114 73.3889 119.293 72.8346C119.472 72.2803 119.727 71.7959 120.058 71.3798C120.39 70.9637 120.794 70.6374 121.273 70.3994C121.75 70.1597 122.294 70.0415 122.902 70.0415C124.066 70.0415 124.977 70.4493 125.642 71.2633C126.305 72.0789 126.63 73.2607 126.62 74.8138H120.067L120.068 74.8121ZM125.577 73.9815C125.577 73.5604 125.521 73.1642 125.407 72.7913C125.292 72.4201 125.125 72.0989 124.901 71.8276C124.679 71.5562 124.399 71.3399 124.062 71.1784C123.726 71.0186 123.34 70.937 122.906 70.937C122.471 70.937 122.087 71.0203 121.757 71.1867C121.426 71.3532 121.144 71.5746 120.91 71.8525C120.677 72.1305 120.489 72.4518 120.348 72.8163C120.207 73.1825 120.115 73.5703 120.072 73.9798H125.581L125.577 73.9815Z" fill="#41273B"/>
<path d="M131.496 78.9202C131.376 78.9418 131.219 78.9817 131.023 79.0367C130.828 79.0916 130.611 79.1199 130.372 79.1199C129.883 79.1199 129.51 78.9951 129.255 78.7454C129 78.4957 128.872 78.0496 128.872 77.4071V71.1035H127.682V70.2728H128.872V67.8776H129.85V70.2728H131.431V71.1035H129.85V77.0076C129.85 77.2173 129.855 77.4021 129.866 77.5569C129.876 77.7117 129.91 77.8399 129.964 77.9397C130.019 78.0396 130.103 78.1112 130.218 78.1561C130.332 78.2011 130.491 78.2227 130.698 78.2227C130.829 78.2227 130.962 78.2111 131.098 78.1894C131.234 78.1678 131.366 78.1395 131.497 78.1062V78.9218L131.496 78.9202Z" fill="#41273B"/>
<path d="M133.565 66.9138H134.641V68.3936H133.565V66.9138ZM133.613 70.2729H134.591V78.8869H133.613V70.2729Z" fill="#41273B"/>
<path d="M138.211 78.8868H137.233V70.2728H138.211V71.4696C138.602 71.0485 139.006 70.7056 139.426 70.4393C139.843 70.173 140.347 70.0398 140.934 70.0398C141.456 70.0398 141.94 70.1313 142.384 70.3144C142.83 70.4975 143.204 70.8155 143.509 71.2699C143.717 71.5812 143.838 71.8991 143.876 72.227C143.914 72.5549 143.934 72.8945 143.934 73.249V78.8868H142.956V73.2657C142.956 72.49 142.787 71.9074 142.45 71.5196C142.114 71.1317 141.554 70.937 140.772 70.937C140.467 70.937 140.19 70.9836 139.94 71.0785C139.689 71.1733 139.464 71.2982 139.263 71.453C139.063 71.6078 138.89 71.7859 138.75 71.9856C138.609 72.1854 138.499 72.3951 138.423 72.6165C138.325 72.8945 138.266 73.1608 138.244 73.4155C138.223 73.6702 138.211 73.9481 138.211 74.2478V78.8885V78.8868Z" fill="#41273B"/>
<path d="M146.541 66.9138H147.616V68.3936H146.541V66.9138ZM146.59 70.2729H147.568V78.8869H146.59V70.2729Z" fill="#41273B"/>
<path d="M151.561 78.8869H150.583V66.9138H151.561V71.6528C151.876 71.1201 152.308 70.719 152.857 70.4476C153.405 70.1763 153.979 70.0398 154.577 70.0398C155.219 70.0398 155.775 70.1647 156.248 70.4144C156.72 70.664 157.111 70.9969 157.421 71.4131C157.731 71.8292 157.961 72.3136 158.114 72.8679C158.266 73.4222 158.343 73.9981 158.343 74.5973C158.343 75.2299 158.271 75.8225 158.13 76.3767C157.99 76.931 157.764 77.4104 157.454 77.8149C157.144 78.2194 156.75 78.5373 156.273 78.772C155.794 79.0051 155.212 79.1216 154.529 79.1216C154.257 79.1216 153.981 79.0833 153.697 79.0051C153.414 78.9268 153.14 78.817 152.873 78.6722C152.607 78.529 152.363 78.3476 152.139 78.1312C151.915 77.9148 151.735 77.6634 151.592 77.3738H151.559V78.8869H151.561ZM151.561 74.5457C151.561 75.0667 151.624 75.5511 151.748 76.0006C151.872 76.45 152.055 76.8378 152.293 77.1641C152.532 77.492 152.832 77.7483 153.19 77.9381C153.55 78.1262 153.956 78.2211 154.413 78.2211C154.826 78.2211 155.205 78.1462 155.553 77.9963C155.901 77.8465 156.205 77.6285 156.467 77.3389C156.727 77.0509 156.931 76.698 157.078 76.2835C157.226 75.8674 157.298 75.388 157.298 74.8454C157.32 74.3027 157.277 73.795 157.168 73.324C157.058 72.8529 156.884 72.4401 156.645 72.0856C156.405 71.731 156.099 71.4514 155.724 71.245C155.349 71.0402 154.912 70.937 154.411 70.937C153.966 70.937 153.566 71.0336 153.213 71.2283C152.86 71.4231 152.562 71.6827 152.317 72.0107C152.071 72.3386 151.884 72.7197 151.755 73.1592C151.625 73.5986 151.559 74.0597 151.559 74.5474" fill="#41273B"/>
<path d="M159.353 80.7478C160.136 79.5943 160.747 78.3609 161.186 77.0475C161.626 75.7342 161.846 74.3726 161.846 72.9644C161.846 71.5562 161.617 70.2379 161.162 68.9395C160.704 67.6429 160.101 66.4228 159.352 65.2809H160.182C160.628 65.9117 161.024 66.526 161.372 67.1185C161.72 67.7111 162.008 68.317 162.239 68.9312C162.469 69.5454 162.645 70.1896 162.769 70.8604C162.894 71.5312 162.953 72.2603 162.953 73.0476C162.953 73.835 162.892 74.5308 162.769 75.2016C162.647 75.8724 162.466 76.5182 162.231 77.1391C161.995 77.76 161.704 78.3675 161.356 78.9601C161.009 79.5527 160.616 80.1486 160.182 80.7478H159.352H159.353Z" fill="#41273B"/>
<path d="M74.4934 84.7927H72.7085V84.3532C74.0194 84.3433 74.6045 83.8722 74.6476 83.1315H75.1547V90.2191H74.4934V84.7927Z" fill="#C724B1"/>
<path d="M78.7908 83.1315C80.5641 83.1315 80.9834 84.6429 80.9834 86.7352C80.9834 88.8275 80.5641 90.3389 78.7908 90.3389C77.0174 90.3389 76.5981 88.8275 76.5981 86.7352C76.5981 84.6429 77.0174 83.1315 78.7908 83.1315ZM78.7908 89.8379C79.8598 89.8379 80.2791 89.0073 80.2791 86.7352C80.2791 84.4631 79.8598 83.6325 78.7908 83.6325C77.7218 83.6325 77.3025 84.4631 77.3025 86.7352C77.3025 89.0073 77.7218 89.8379 78.7908 89.8379Z" fill="#C724B1"/>
<path d="M83.1116 84.9043H83.7066V85.645H83.7281C84.0364 85.0541 84.565 84.7844 85.2164 84.7844C85.9224 84.7844 86.3516 85.1739 86.4395 85.7149H86.461C86.7262 85.124 87.2002 84.7844 87.9493 84.7844C88.7647 84.7844 89.305 85.2039 89.305 86.156V90.2208H88.6437V86.2476C88.6437 85.6167 88.3239 85.2855 87.7289 85.2855C87.0676 85.2855 86.5389 85.8264 86.5389 86.6471V90.2208H85.8776V86.2476C85.8776 85.6167 85.5578 85.2855 84.9628 85.2855C84.3015 85.2855 83.7728 85.8264 83.7728 86.6471V90.2208H83.1116V84.9059V84.9043Z" fill="#C724B1"/>
<path d="M93.3722 84.9042H93.9671V89.8395C93.9671 91.311 93.3722 92.0617 92.0496 92.0617C90.9143 92.0617 90.3194 91.5207 90.3078 90.76H90.969C90.969 91.2611 91.4878 91.5607 92.0712 91.5607C92.875 91.5607 93.3059 91.0497 93.3059 90.1092V89.2686H93.2843C93.0755 89.9194 92.5236 90.2191 91.917 90.2191C91.0138 90.2191 90.1089 89.6781 90.1089 87.5558C90.1089 85.7231 90.6923 84.7827 91.9817 84.7827C92.6214 84.7827 93.1385 85.1222 93.349 85.7231H93.3705V84.9025L93.3722 84.9042ZM92.0612 89.7197C92.8435 89.7197 93.3059 89.1987 93.3059 87.4975C93.3059 85.7964 92.8435 85.2853 92.0612 85.2853C91.279 85.2853 90.8166 85.8047 90.8166 87.4975C90.8166 89.1904 91.279 89.7197 92.0612 89.7197Z" fill="#C724B1"/>
<path d="M100.139 89.3485C99.6981 89.9494 99.0153 90.3389 98.0458 90.3389C96.6901 90.3389 95.8416 89.4983 95.8416 88.4463C95.8416 87.6956 96.2609 87.1047 96.9768 86.6036L97.6265 86.1526C97.0647 85.4818 96.7232 84.9508 96.7232 84.3915C96.7232 83.5309 97.4624 83.0698 98.3325 83.0698C99.2474 83.0698 99.8423 83.6008 99.8423 84.3915C99.8423 84.9724 99.5772 85.5117 98.4535 86.2325L100.151 88.3947C100.349 87.9536 100.426 87.4842 100.437 87.0431H101.099C101.099 87.664 100.9 88.3248 100.547 88.8957L101.583 90.2174H100.833L100.139 89.3468V89.3485ZM97.9563 86.5554C96.8426 87.2562 96.5459 87.8171 96.5459 88.3764C96.5459 89.227 97.2735 89.7979 98.1436 89.7979C98.7833 89.7979 99.4877 89.4467 99.7959 88.8974L97.9563 86.5554ZM98.122 85.8246C98.9921 85.2237 99.1794 84.7643 99.1794 84.3732C99.1794 83.9121 98.7932 83.5725 98.2861 83.5725C97.779 83.5725 97.3829 83.9137 97.3829 84.3732C97.3829 84.7543 97.6795 85.2837 98.122 85.8246Z" fill="#C724B1"/>
<path d="M103.301 85.3536C103.322 83.982 104.038 83.1315 105.505 83.1315C106.563 83.1315 107.522 83.7024 107.522 85.054C107.522 85.9146 107.235 86.4855 106.233 87.2362L105.384 87.8671C104.569 88.478 104.14 88.9374 104.017 89.6798H107.587V90.2208H103.266C103.266 89.0489 103.849 88.2899 104.897 87.4876L105.734 86.8467C106.516 86.2458 106.814 85.7648 106.814 85.0856C106.814 84.1452 106.241 83.6342 105.437 83.6342C104.544 83.6342 104.048 84.1751 104.005 85.357H103.299L103.301 85.3536Z" fill="#C724B1"/>
<path d="M112.438 83.2513V83.7923H109.551L109.209 86.2641L109.231 86.2841C109.528 85.7631 110.167 85.5633 110.741 85.5633C111.942 85.5633 112.801 86.334 112.801 87.9054C112.801 89.3269 112.019 90.3373 110.487 90.3373C109.274 90.3373 108.416 89.6465 108.416 88.4047H109.122C109.122 89.2054 109.629 89.8362 110.565 89.8362C111.501 89.8362 112.096 89.1355 112.096 87.8038C112.096 86.8234 111.622 86.0627 110.575 86.0627C109.992 86.0627 109.451 86.3124 109.231 86.8833H108.57L109.022 83.2496H112.438V83.2513Z" fill="#C724B1"/>
<path d="M114.929 84.9043H115.524V85.645H115.545C115.854 85.0541 116.382 84.7844 117.034 84.7844C117.74 84.7844 118.169 85.1739 118.257 85.7149H118.278C118.544 85.124 119.018 84.7844 119.767 84.7844C120.582 84.7844 121.122 85.2039 121.122 86.156V90.2208H120.461V86.2476C120.461 85.6167 120.141 85.2855 119.546 85.2855C118.885 85.2855 118.356 85.8264 118.356 86.6471V90.2208H117.695V86.2476C117.695 85.6167 117.375 85.2855 116.78 85.2855C116.119 85.2855 115.59 85.8264 115.59 86.6471V90.2208H114.929V84.9059V84.9043Z" fill="#C724B1"/>
<path d="M125.19 84.9042H125.785V89.8395C125.785 91.311 125.19 92.0617 123.867 92.0617C122.732 92.0617 122.137 91.5207 122.125 90.76H122.786C122.786 91.2611 123.305 91.5607 123.889 91.5607C124.692 91.5607 125.123 91.0497 125.123 90.1092V89.2686H125.102C124.893 89.9194 124.341 90.2191 123.734 90.2191C122.831 90.2191 121.926 89.6781 121.926 87.5558C121.926 85.7231 122.51 84.7827 123.799 84.7827C124.439 84.7827 124.956 85.1222 125.166 85.7231H125.188V84.9025L125.19 84.9042ZM123.879 89.7197C124.661 89.7197 125.123 89.1987 125.123 87.4975C125.123 85.7964 124.661 85.2853 123.879 85.2853C123.096 85.2853 122.634 85.8047 122.634 87.4975C122.634 89.1904 123.096 89.7197 123.879 89.7197Z" fill="#C724B1"/>
<path d="M132.672 88.4563C132.573 89.5865 131.89 90.3389 130.809 90.3389C129.575 90.3389 128.847 89.5582 128.847 87.5558C128.847 85.7131 129.575 84.7827 130.864 84.7827C131.966 84.7827 132.606 85.3935 132.671 86.4838H132.009C131.931 85.6532 131.568 85.2837 130.864 85.2837C130.16 85.2837 129.553 85.6848 129.553 87.5658C129.553 89.5682 130.181 89.8379 130.798 89.8379C131.469 89.8379 131.9 89.3868 132.009 88.4563H132.671H132.672Z" fill="#C724B1"/>
<path d="M133.521 86.4856C133.521 85.3953 134.094 84.7844 135.329 84.7844C136.564 84.7844 136.981 85.3554 136.981 86.196V89.3386C136.981 89.6399 137.091 89.7797 137.323 89.7797H137.51V90.2208C137.389 90.2608 137.29 90.2808 137.202 90.2808C136.683 90.2808 136.353 90.1709 136.353 89.6199V89.4402H136.332C136.066 90.1409 135.471 90.3407 134.822 90.3407C133.796 90.3407 133.333 89.7598 133.333 88.8393C133.333 88.1385 133.687 87.5775 134.514 87.3678L135.758 87.0482C136.221 86.9284 136.32 86.8285 136.32 86.2076C136.32 85.5268 135.901 85.2871 135.306 85.2871C134.523 85.2871 134.182 85.7182 134.182 86.4889H133.521V86.4856ZM136.32 87.2163H136.298C136.232 87.3961 135.858 87.506 135.592 87.5676L135.041 87.6974C134.379 87.8572 134.038 88.1684 134.038 88.7993C134.038 89.4302 134.391 89.8413 134.963 89.8413C135.766 89.8413 136.318 89.2903 136.318 88.3399V87.2197L136.32 87.2163Z" fill="#C724B1"/>
<path d="M138.271 84.9043H138.866V85.665H138.887C139.096 85.1739 139.582 84.7844 140.331 84.7844C141.632 84.7844 142.194 85.7249 142.194 87.5675C142.194 89.4102 141.61 90.3407 140.321 90.3407C139.593 90.3407 139.098 89.9795 138.955 89.4202H138.932V91.9819H138.271V84.9043ZM140.231 85.2838C139.857 85.2838 139.525 85.4636 139.305 85.7549C139.018 86.126 138.93 86.6454 138.93 87.5675C138.93 89.53 139.537 89.8396 140.208 89.8396C140.879 89.8396 141.486 89.53 141.486 87.5675C141.486 85.605 140.869 85.2855 140.23 85.2855" fill="#C724B1"/>
<path d="M144.046 87.5758C143.219 87.2861 142.923 86.845 142.923 86.314C142.923 85.2221 143.672 84.7827 144.665 84.7827C145.767 84.7827 146.274 85.2937 146.274 86.2641V86.4139H145.613V86.2641C145.613 85.5733 145.26 85.282 144.653 85.282C143.882 85.282 143.584 85.6532 143.584 86.1825C143.584 86.5537 143.717 86.8434 144.378 87.0731L145.337 87.4026C146.131 87.6723 146.428 88.1733 146.428 88.7543C146.428 89.6648 145.854 90.3356 144.62 90.3356C143.385 90.3356 142.823 89.8845 142.823 88.6843V88.5146H143.485V88.6544C143.485 89.4351 143.859 89.8362 144.608 89.8362C145.314 89.8362 145.765 89.475 145.765 88.8858C145.765 88.4147 145.556 88.1151 144.971 87.9037L144.045 87.5741L144.046 87.5758Z" fill="#C724B1"/>
<path d="M147.297 84.9042H147.958V88.6477C147.958 89.5083 148.278 89.8395 148.972 89.8395C149.721 89.8395 150.25 89.2986 150.25 88.478V84.9042H150.911V90.2191H150.316V89.4783H150.295C149.965 90.0693 149.391 90.3389 148.797 90.3389C147.903 90.3389 147.297 89.9178 147.297 88.9174V84.9042Z" fill="#C724B1"/>
<path d="M152.786 83.0715H152.124V90.2191H152.786V83.0715Z" fill="#C724B1"/>
<path d="M157.711 88.4563C157.612 89.5865 156.929 90.3389 155.827 90.3389C154.592 90.3389 153.866 89.5582 153.866 87.5558C153.866 85.7131 154.594 84.7827 155.883 84.7827C157.173 84.7827 157.768 85.5933 157.768 87.366V87.5858H154.572V87.8354C154.572 89.3668 155.167 89.8379 155.817 89.8379C156.511 89.8379 156.941 89.3868 157.052 88.4563H157.713H157.711ZM157.062 87.0847C157.038 85.7631 156.632 85.2837 155.817 85.2837C155.001 85.2837 154.594 85.7647 154.572 87.0847H157.063H157.062Z" fill="#C724B1"/>
<path d="M159.728 87.5758C158.901 87.2861 158.604 86.845 158.604 86.314C158.604 85.2221 159.353 84.7827 160.346 84.7827C161.448 84.7827 161.955 85.2937 161.955 86.2641V86.4139H161.294V86.2641C161.294 85.5733 160.941 85.282 160.336 85.282C159.564 85.282 159.267 85.6532 159.267 86.1825C159.267 86.5537 159.4 86.8434 160.061 87.0731L161.019 87.4026C161.813 87.6723 162.11 88.1733 162.11 88.7543C162.11 89.6648 161.536 90.3356 160.303 90.3356C159.07 90.3356 158.507 89.8845 158.507 88.6843V88.5146H159.168V88.6544C159.168 89.4351 159.542 89.8362 160.292 89.8362C160.998 89.8362 161.448 89.475 161.448 88.8858C161.448 88.4147 161.24 88.1151 160.654 87.9037L159.73 87.5741L159.728 87.5758Z" fill="#C724B1"/>
<path d="M20.1035 14.965C21.9299 12.4083 18.96 10.9801 15.3387 11.6476C11.5169 12.35 9.79827 14.7353 11.9942 16.2867C12.1682 16.4099 12.4152 16.5514 12.6108 16.6379C14.6675 17.5717 18.1694 17.124 20.1035 14.965ZM30.8728 26.3106C32.8368 28.0217 37.1342 28.6343 40.0776 25.3451C42.9199 21.4085 39.1014 17.7382 34.4642 18.3174C29.7574 18.905 27.6742 23.5374 30.8728 26.3106ZM43.2216 22.1709C45.3346 23.9586 49.7829 24.8957 52.2987 21.9195C54.8493 17.6183 48.8051 14.0662 44.5822 15.1248C41.0173 16.0204 40.3047 19.7073 43.2216 22.1709ZM54.2245 20.4564C56.4023 22.3506 60.5953 23.7838 62.4797 21.4235C64.2745 17.7465 57.4596 13.0725 53.7141 14.3575C51.3143 15.1814 51.5629 18.146 54.2245 20.458M65.4297 23.9086C67.7268 26.4071 71.0812 27.9635 72.4153 26.2989C74.0942 22.9782 66.7771 16.6762 64.1072 17.7548C62.4531 18.424 63.0829 21.3569 65.4297 23.9086ZM32.2136 15.9272C32.4357 16.0969 32.7506 16.2983 32.9975 16.4298C35.452 17.7582 39.4296 17.7016 41.4466 15.5094C43.785 12.5065 39.2738 9.6385 34.7924 10.2777C30.8065 10.8486 29.4575 13.8032 32.2119 15.9255M30.7601 7.97229C31.2888 8.38177 32.0843 8.75463 33.0008 9.02262C35.7122 9.81661 39.5357 9.63684 40.903 8.10879C42.4012 5.99648 37.2817 4.31363 33.0953 4.96113C30.1917 5.40723 29.1674 6.73221 30.7601 7.97063M23.2408 3.8875C22.6326 4.17713 22.1006 4.59826 23.0519 4.97445C23.6336 5.20249 24.7059 5.36895 25.987 5.4322C28.5509 5.55871 32.5799 5.20416 33.5163 4.024C34.1941 2.28621 26.234 2.48596 23.2425 3.8875M12.4185 47.9447C12.4467 47.5152 12.4848 47.0774 12.5295 46.6446C12.4898 47.0591 12.45 47.4919 12.4185 47.9447ZM12.7417 44.1129C12.7467 44.0779 12.7516 44.048 12.7549 44.0147C12.7549 44.0047 12.7549 43.9914 12.7583 43.983C12.7533 44.0247 12.7483 44.0679 12.7417 44.1129ZM17.1783 32.1298C15.6304 34.322 14.1156 39.1126 14.409 39.4205C14.5034 39.3839 14.6642 39.3223 15.9469 37.1218C18.0385 33.5297 18.3103 32.0932 18.2821 31.5556C18.1545 30.8032 17.3408 31.9034 17.1767 32.1298M12.3771 51.9163C12.3605 51.5784 12.3472 51.2288 12.339 50.8676C12.3456 51.2471 12.3572 51.5817 12.3771 51.9163ZM24.8501 21.9811C25.0473 21.7997 25.2545 21.6016 25.465 21.3918C27.0693 21.2187 28.7133 20.508 29.9397 19.1364C32.2948 15.8639 28.8791 13.3271 24.7009 13.8897C20.019 14.5223 18.5456 18.1643 21.0399 20.2516C21.141 20.3399 21.2852 20.4431 21.3962 20.518C21.8404 20.8176 22.3558 21.044 22.916 21.1988C22.568 21.7614 22.2862 22.299 22.1172 22.7684C21.9083 23.3494 21.8354 23.9602 22.6823 23.5857C23.1994 23.356 23.9916 22.7701 24.8484 21.9828M16.3596 32.6591C16.4541 32.6508 16.6463 32.6358 18.3236 30.0658C19.2483 28.6409 21.3879 25.217 21.2636 24.1533C20.7416 23.2129 17.2944 28.8257 16.4093 32.0566C16.2751 32.5543 16.3281 32.6192 16.3596 32.6591ZM14.6609 35.8234C14.868 35.2692 15.2525 34.2388 15.8392 32.8406C17.459 28.9788 18.2678 27.0402 18.2655 27.0247C17.4684 27.6921 14.7653 34.2771 14.3559 36.5409C14.3935 36.5076 14.4951 36.269 14.6609 35.8251M18.5092 33.1452C17.1071 35.0095 15.4481 38.9045 16.8402 38.7297C17.2165 38.6815 17.7982 38.3302 18.4031 37.7876C19.84 36.4943 21.3333 34.1439 21.2703 32.3296C21.0929 30.8032 19.7008 31.5622 18.5092 33.1452ZM12.5411 46.5098C12.5345 46.5564 12.5312 46.603 12.5262 46.6513C12.5312 46.6114 12.5345 46.5714 12.5362 46.5348C12.5378 46.5265 12.5411 46.5198 12.5411 46.5098ZM14.5498 53.9537C13.9267 54.6578 14.9476 57.0081 15.942 58.17C17.1435 59.5732 18.1114 59.2369 18.2655 58.0484C18.2838 57.8953 18.2838 57.6856 18.2788 57.5291C18.0435 54.6045 15.3503 53.0498 14.5498 53.9537ZM15.8376 51.4369C15.5823 49.3379 14.1057 49.1065 13.3135 50.0719C12.4135 51.1705 14.0278 52.7735 14.0443 52.7918C14.9294 53.5925 15.9121 53.1747 15.8392 51.4369M13.1593 47.6633C12.7798 48.1394 12.508 48.9983 12.4019 49.6392C12.3688 49.8422 12.3804 49.8489 12.3953 49.8572C12.4102 49.8672 12.6538 49.9022 12.7997 49.8855C12.8229 49.8839 12.8527 49.8805 12.871 49.8772C13.519 49.7673 14.0427 48.8885 14.0178 47.9646C13.9482 47.2006 13.519 47.2139 13.1577 47.665M22.8812 49.9371C20.9454 52.4156 22.3956 56.1708 24.8468 57.058C26.8538 57.7838 28.9072 56.2407 28.7713 52.7935C28.2576 48.5272 24.8203 47.4503 22.8812 49.9371ZM13.8488 38.5799C14.0129 37.8492 14.0228 37.776 14.0178 37.7543C14.0079 37.7776 13.2505 40.1546 12.75 44.0247C12.7251 44.306 12.6986 44.5989 12.6721 44.8969C12.7268 44.4624 12.7914 43.9947 12.8693 43.487C13.1726 41.5395 13.5455 39.8999 13.8471 38.5799M21.2504 38.4767C20.7665 36.0898 18.7395 37.4181 17.5264 39.2474C15.99 41.5595 15.7762 44.0563 17.8114 43.6868C17.9507 43.6635 18.1346 43.6085 18.2689 43.5569C19.6163 43.0359 21.4029 40.9819 21.252 38.4767M15.115 45.7741C13.6449 47.9447 14.5482 49.3812 15.8392 49.4527C17.0806 49.5226 18.3832 48.0828 18.2655 45.9023C17.8628 43.5802 16.1293 44.2727 15.115 45.7741ZM12.3423 49.8822C12.3804 49.491 12.4782 49.1165 12.5842 48.722C12.7085 48.2326 12.8428 47.7233 12.8345 47.4286C12.8262 47.3854 12.8163 47.3071 12.7583 47.3854C12.634 47.5635 12.4533 48.2992 12.3688 49.3096C12.4268 48.5722 12.5345 47.8881 12.6605 47.1557C12.7997 46.3367 12.8428 46.0587 12.8262 45.9139C12.7284 46.0671 12.513 46.9925 12.397 48.5722C12.3738 48.9717 12.3555 49.3562 12.3406 49.7224C12.339 49.749 12.3356 49.7757 12.3356 49.8006C12.3489 49.3579 12.3688 48.945 12.397 48.5722C12.4052 48.4257 12.4168 48.2759 12.4251 48.1278C12.4102 48.2892 12.3953 48.449 12.3804 48.6071C12.3903 48.3924 12.4019 48.176 12.4152 47.9546C12.3804 48.4424 12.3555 48.9517 12.3373 49.4894C12.3439 49.2563 12.3472 49.0299 12.3555 48.8102C12.3506 48.95 12.3423 49.0849 12.3406 49.223C12.3356 49.3828 12.3307 49.5926 12.3274 49.7507V49.9055C12.3257 49.9321 12.3257 49.9604 12.324 49.9821V50.0903C12.324 50.0903 12.3224 50.0953 12.3224 50.0969V50.1352L12.329 50.027C12.3307 49.9837 12.3373 49.9255 12.3423 49.8789M12.8312 45.4046C13.0301 44.4241 13.2704 43.4987 13.5223 42.5182C13.9316 40.9353 14.041 40.4026 14.0095 40.1479C13.9151 40.2012 13.8007 40.4242 13.6731 40.7771C13.7825 40.2944 13.8935 39.8084 14.0443 39.334C15.252 35.5366 15.8503 33.6007 15.8392 33.5264C15.1962 33.5813 13.1858 40.6323 13.0317 42.8695C13.103 42.7163 13.1643 42.5632 13.2206 42.4084C12.9571 43.5619 12.7019 45.035 12.5378 46.5381C12.4997 47.0691 12.4599 47.6018 12.4268 48.1278C12.4981 47.3887 12.5942 46.5697 12.8328 45.4062M12.8328 44.0047C12.8295 44.0147 12.75 44.4125 12.6538 45.1532C12.6141 45.5927 12.5759 46.0504 12.5411 46.5132C12.6041 45.8989 12.677 45.3197 12.7483 44.7637C12.8361 44.0946 12.8395 44.0247 12.8328 44.0047ZM12.3439 50.8759C12.4251 53.2429 12.7367 54.9324 12.8279 55.0872C12.8345 55.0639 12.8362 55.0273 12.8345 55.0057C12.7881 54.4197 12.7135 53.8338 12.634 53.2512C12.7002 53.5658 12.7632 53.7689 12.8113 53.8205C12.8163 53.8172 12.8245 53.8122 12.8279 53.8072C12.8334 53.7794 12.8334 53.7212 12.8279 53.6324C12.7533 52.9949 12.6207 52.364 12.513 51.7348C12.5859 52.1293 12.6903 52.5987 12.8328 53.0531C13.2455 54.3798 13.7527 54.9158 13.9515 54.5662C14.0344 54.4214 14.0228 54.205 14.0112 53.9936C13.8355 52.8118 13.2621 52.0594 12.8013 51.4568C12.6411 51.2482 12.5036 51.013 12.3887 50.7511C12.3837 50.7944 12.3953 50.9125 12.4152 51.0857C12.3754 50.7894 12.3423 50.4914 12.3307 50.1918C12.3323 50.2234 12.334 50.26 12.339 50.29C12.4086 50.8792 12.6505 51.1872 12.7798 50.9808C12.8461 50.8776 12.8378 50.7061 12.8345 50.6146C12.7616 50.0486 12.4782 49.9288 12.3572 50.0753C12.3489 50.0853 12.334 50.1019 12.3257 50.1352V50.1851C12.3257 50.1851 12.3257 50.1901 12.3274 50.1935V50.3166C12.3307 50.4764 12.334 50.6945 12.3373 50.8593C12.3373 50.8643 12.339 50.8693 12.339 50.8743C12.3356 50.7428 12.3323 50.5963 12.3307 50.4531C12.3323 50.583 12.339 50.7477 12.3439 50.8743M18.3252 55.0672C19.8002 55.8229 21.3714 54.8192 21.2653 52.1676C20.851 48.7453 18.2606 48.3175 16.9331 49.997C15.531 51.7698 16.8104 54.2949 18.3252 55.0672Z" fill="#E7B4D3"/>
<path d="M14.074 54.2766C13.4509 54.979 14.4701 57.3294 15.4645 58.4929C16.6661 59.8961 17.6373 59.5582 17.7897 58.3697C17.8096 58.2182 17.8096 58.0068 17.803 57.8504C17.6141 55.4884 15.8192 54.0202 14.7137 54.0202C14.4502 54.0202 14.2265 54.1035 14.074 54.2782M11.8996 52.2458C11.883 51.9063 11.8698 51.5584 11.8631 51.1988C11.8698 51.5784 11.883 51.9113 11.8996 52.2458ZM12.8377 50.3965C11.9377 51.4951 13.5503 53.0998 13.5685 53.1147C14.4535 53.9154 15.4347 53.4959 15.3634 51.7615C15.201 50.4282 14.5464 49.8506 13.8884 49.8506C13.5089 49.8506 13.1277 50.042 12.8377 50.3965ZM16.4556 50.3216C15.0535 52.0944 16.333 54.6195 17.8461 55.3902C19.3211 56.1459 20.8939 55.1421 20.7862 52.4905C20.526 50.3333 19.399 49.3662 18.2704 49.3662C17.6091 49.3662 16.9445 49.6991 16.4556 50.32M11.8764 49.2197C11.8764 49.1914 11.8797 49.1598 11.8814 49.1315C11.8814 49.1598 11.8781 49.1914 11.8764 49.2197ZM22.4054 50.2567C20.4696 52.7352 21.9198 56.4904 24.3726 57.3776C26.3797 58.1034 28.4314 56.5603 28.2955 53.1131C27.9641 50.3632 26.4194 48.9384 24.845 48.9384C23.9765 48.9384 23.0982 49.3712 22.407 50.255M12.6835 47.9846C12.304 48.459 12.0305 49.3196 11.9261 49.9604C11.8946 50.1635 11.9062 50.1718 11.9195 50.1785C11.9344 50.1868 12.178 50.2218 12.3255 50.2051C12.3454 50.2018 12.3769 50.1985 12.3968 50.1951C13.0448 50.0869 13.5702 49.208 13.5437 48.2809C13.5039 47.8548 13.3531 47.67 13.1641 47.67C13.0166 47.67 12.8426 47.7832 12.6835 47.9829M11.941 48.2726C11.9709 47.8198 12.0106 47.387 12.0521 46.9709C12.0073 47.4037 11.9676 47.8415 11.941 48.2726ZM12.0521 46.9709C12.0521 46.9559 12.0521 46.9426 12.0554 46.9276C12.0554 46.9426 12.0554 46.9559 12.0521 46.9709ZM12.0571 46.886C12.0571 46.876 12.0571 46.866 12.0604 46.8544C12.0604 46.866 12.0604 46.876 12.0571 46.886ZM11.9195 48.8885C11.898 49.2863 11.8781 49.6725 11.8631 50.037C11.8631 50.0653 11.8582 50.0919 11.8565 50.1169C11.8714 49.6741 11.8913 49.2613 11.9178 48.8885C11.9261 48.742 11.9377 48.5922 11.946 48.444C11.9294 48.6055 11.9162 48.7653 11.9013 48.9234C11.9112 48.7087 11.9212 48.4923 11.9361 48.2709C11.9013 48.7586 11.8764 49.2663 11.8598 49.8056C11.8648 49.6042 11.8681 49.4078 11.8747 49.2164C11.8698 49.3262 11.8665 49.4328 11.8631 49.5426C11.8598 49.7024 11.8515 49.9122 11.8499 50.0703V50.2234C11.8499 50.25 11.8499 50.28 11.8466 50.3017V50.4082C11.8466 50.4082 11.8433 50.4148 11.8433 50.4165V50.5064C11.8433 50.5064 11.8433 50.5114 11.8466 50.5147V50.6379C11.8499 50.7977 11.8515 51.0157 11.8565 51.1789C11.8565 51.1855 11.8598 51.1889 11.8598 51.1955C11.8549 51.0623 11.8515 50.9175 11.8499 50.7744C11.8499 50.9042 11.8598 51.069 11.8631 51.1955C11.9444 53.5608 12.2543 55.252 12.3487 55.4051C12.3537 55.3818 12.3554 55.3452 12.3537 55.3236C12.309 54.7377 12.2327 54.1517 12.1532 53.5708C12.2211 53.8838 12.2825 54.0868 12.3322 54.1401C12.3355 54.1368 12.3438 54.1318 12.3504 54.1268C12.3548 54.1001 12.3548 54.0419 12.3504 53.952C12.2742 53.3145 12.1416 52.6819 12.0339 52.0544C12.1068 52.4506 12.2128 52.9166 12.3554 53.3711C12.7697 54.6977 13.2752 55.2337 13.4724 54.8841C13.5569 54.7393 13.5437 54.5229 13.5321 54.3115C13.3564 53.1297 12.7846 52.3773 12.3222 51.7748C12.1609 51.5662 12.0228 51.3309 11.9079 51.069C11.9029 51.1123 11.9129 51.2321 11.9344 51.4052C11.8946 51.109 11.8615 50.811 11.8482 50.5097C11.8482 50.5413 11.8515 50.578 11.8565 50.6079C11.9245 51.1988 12.1664 51.5068 12.2957 51.3004C12.3637 51.1988 12.3554 51.0274 12.3537 50.9358C12.2808 50.3699 11.9974 50.2484 11.8764 50.3949C11.8665 50.4065 11.8532 50.4215 11.8449 50.4548L11.8515 50.3466C11.8515 50.3033 11.8615 50.2451 11.8648 50.1985C11.9029 49.8073 12.0024 49.4328 12.1068 49.0399C12.2327 48.5489 12.3653 48.0412 12.357 47.7466C12.3504 47.7033 12.3388 47.6234 12.2825 47.7033C12.183 47.8415 12.0554 48.3192 11.9626 48.9967C12.0223 48.4906 12.0952 47.9913 12.183 47.4736C12.3222 46.653 12.3653 46.375 12.3504 46.2318C12.251 46.3833 12.0372 47.3105 11.9195 48.8901M14.6392 46.092C13.1691 48.2626 14.0724 49.6991 15.3634 49.7707C16.6064 49.8406 17.9074 48.4007 17.7897 46.2219C17.6025 45.1449 17.1301 44.7154 16.5749 44.7154C15.9335 44.7154 15.1828 45.2897 14.6392 46.0937M12.2626 44.4425C12.2626 44.4425 12.2659 44.4258 12.2675 44.4192C12.2675 44.4275 12.2642 44.4375 12.2626 44.4425ZM12.2775 44.3309C12.2775 44.3309 12.2775 44.3176 12.2775 44.3126C12.2775 44.316 12.2775 44.3243 12.2775 44.3309ZM12.2775 44.3442C12.2775 44.3442 12.2775 44.3359 12.2775 44.3309C12.2725 44.3592 12.2708 44.3892 12.2675 44.4192C12.2708 44.3959 12.2725 44.3692 12.2758 44.3442C12.251 44.6256 12.2244 44.9185 12.1996 45.2165C12.2543 44.782 12.3173 44.3143 12.3968 43.8066C12.7001 41.8591 13.0713 40.2195 13.3746 38.8995C13.5404 38.1688 13.5503 38.0956 13.5453 38.0739C13.5337 38.0972 12.7763 40.4725 12.2775 44.3442ZM17.0539 39.567C15.5175 41.8791 15.3038 44.3759 17.3389 44.0063C17.4782 43.983 17.6621 43.9264 17.7964 43.8765C19.1454 43.3555 20.932 41.2998 20.7796 38.7963C20.5939 37.8758 20.1763 37.508 19.6658 37.508C18.8537 37.508 17.8013 38.4434 17.0539 39.567ZM12.5559 43.1907C12.6272 43.0359 12.6885 42.8844 12.7432 42.7296C12.4946 43.8232 12.2543 45.2015 12.0885 46.6213C12.1466 46.0854 12.2079 45.5743 12.2692 45.0833C12.357 44.4142 12.362 44.3442 12.3554 44.3259C12.3521 44.3359 12.2708 44.7338 12.1764 45.4728C12.1383 45.9006 12.1001 46.3484 12.067 46.8011C12.0637 46.8194 12.0604 46.8394 12.0587 46.8577C12.0587 46.8577 12.0587 46.8511 12.062 46.8477C12.0587 46.866 12.0571 46.8793 12.0554 46.896C12.0554 46.896 12.0554 46.9027 12.0554 46.906C12.0554 46.906 12.0554 46.9027 12.0554 46.901C12.0554 46.9043 12.0554 46.9093 12.0554 46.9143V46.921C12.0554 46.921 12.0554 46.9293 12.0554 46.9326C12.0554 46.9293 12.0554 46.9276 12.0554 46.9243C12.0554 46.9276 12.0554 46.9293 12.0554 46.9326C12.0206 47.4386 11.9825 47.948 11.951 48.449C12.0223 47.7083 12.1184 46.891 12.3587 45.7275C12.5576 44.7471 12.7979 43.8232 13.0481 42.8412C13.4608 41.2582 13.5669 40.7255 13.537 40.4725C13.4409 40.5241 13.3282 40.7472 13.199 41.1001C13.3083 40.6157 13.4177 40.1296 13.5718 39.6552C14.7784 35.859 15.3767 33.9236 15.3667 33.8493C14.722 33.9042 12.7134 40.9552 12.5576 43.1924M18.035 33.4698C16.6329 35.3341 14.9756 39.2274 16.3694 39.0543C16.744 39.0061 17.3257 38.6548 17.9306 38.1122C19.3675 36.8172 20.8624 34.4685 20.7978 32.6525C20.7315 32.0732 20.4879 31.8235 20.1465 31.8235C19.5896 31.8235 18.7725 32.4877 18.035 33.4698ZM16.7009 32.4611C15.1529 34.6516 13.6381 39.4455 13.9331 39.7518C14.0276 39.7135 14.1884 39.6536 15.4695 37.4514C17.5627 33.8593 17.8328 32.4228 17.8047 31.8868C17.7732 31.6987 17.7002 31.6255 17.6025 31.6255C17.3124 31.6255 16.8235 32.2863 16.7009 32.4594M27.3575 31.0845C24.2699 32.1448 23.5489 36.0299 26.0913 37.8941C27.7121 39.086 30.8577 39.2091 32.535 36.3444C33.889 33.3549 31.5406 30.8398 28.8143 30.8381C28.3336 30.8381 27.8414 30.918 27.3575 31.0845ZM13.8818 36.8638C13.9204 36.8316 14.0226 36.593 14.1884 36.148C14.3955 35.5954 14.7784 34.5634 15.3651 33.1635C16.9848 29.3018 17.7936 27.3631 17.7914 27.3476C16.9942 28.0151 14.2911 34.6017 13.8801 36.8638M15.9352 32.3828C15.7993 32.8805 15.8523 32.9455 15.8855 32.9854C15.9799 32.9771 16.1722 32.9638 17.8494 30.3904C18.7758 28.9672 20.9155 25.5432 20.7895 24.4796C20.7497 24.4097 20.6917 24.3764 20.6221 24.3764C19.7603 24.3764 16.7539 29.4 15.9352 32.3845M51.9837 24.8008C50.1656 27.4708 52.7411 32.1781 56.4999 33.052C58.9013 33.6113 61.7453 32.2447 60.8454 28.2215C59.8444 25.1121 57.1363 23.3926 54.8608 23.3926C53.6874 23.3926 52.6333 23.8487 51.9837 24.8025M33.9851 18.6503C29.28 19.2363 27.1951 23.872 30.3937 26.6435C31.8422 27.9035 34.5519 28.5644 37.0561 27.514C36.6451 28.9139 36.9053 30.4986 38.0439 31.7486C39.62 33.4814 43.1468 34.327 45.6643 31.4091C48.2265 27.7254 44.8539 23.6523 40.9459 24.2099C40.7288 24.2399 40.5216 24.2848 40.3178 24.3414C41.4547 21.2254 38.6124 18.5904 34.953 18.5888C34.6364 18.5888 34.3133 18.6087 33.9851 18.6503ZM44.1047 15.4594C40.5398 16.3566 39.8255 20.0419 42.7424 22.5054C44.8539 24.2915 49.3038 25.2303 51.8196 22.2524C54.0603 18.4706 49.6618 15.2697 45.6958 15.2697C45.1522 15.2697 44.6152 15.3312 44.1047 15.4578M24.2251 14.2193C19.5432 14.8502 18.0698 18.4922 20.5641 20.5812C20.6635 20.6678 20.8094 20.771 20.9204 20.8459C21.3646 21.1438 21.88 21.3719 22.4385 21.5267C22.0905 22.091 21.8104 22.6269 21.6397 23.098C21.4325 23.6773 21.3596 24.2882 22.2065 23.9153C22.7253 23.6856 23.5158 23.0997 24.3743 22.3107C24.5715 22.1309 24.777 21.9328 24.9892 21.7214C26.5935 21.5483 28.2392 20.8376 29.4639 19.466C31.5986 16.5014 28.9966 14.1411 25.3803 14.1394C25.0041 14.1394 24.6179 14.1661 24.2268 14.2193M53.883 13.5801C51.4832 14.4041 51.7318 17.3686 54.3934 19.6807C56.5712 21.5766 60.7642 23.0098 62.6486 20.6495C62.6966 20.5496 62.7364 20.4497 62.7712 20.3498C62.99 21.505 63.7407 22.9249 64.9506 24.2415C67.2476 26.7417 70.6021 28.2964 71.9362 26.6302C73.6151 23.3111 66.298 17.0074 63.628 18.0861C63.2783 18.2276 63.0364 18.4756 62.8856 18.7952C62.3751 16.0437 58.3843 13.3638 55.2867 13.3638C54.7895 13.3638 54.3172 13.4337 53.883 13.5818M14.8612 11.9822C11.0395 12.6846 9.32081 15.0682 11.5151 16.6196C11.6891 16.7428 11.9361 16.8843 12.1333 16.9725C14.1884 17.9063 17.6936 17.4569 19.6261 15.2996C21.1525 13.1657 19.3344 11.8191 16.5882 11.8191C16.0429 11.8191 15.4612 11.8723 14.8612 11.9822ZM34.3133 10.6123C30.3291 11.1832 28.98 14.1378 31.7345 16.2601C31.9566 16.4298 32.2715 16.6313 32.5184 16.7628C34.9712 18.0911 38.9521 18.0328 40.9691 15.8423C43.0838 13.1257 39.5935 10.5207 35.5927 10.5207C35.1718 10.5207 34.7409 10.549 34.3133 10.6123ZM32.6178 5.29737C29.7142 5.74514 28.6883 7.07011 30.2843 8.30853C30.813 8.71968 31.6069 9.09087 32.5234 9.35886C35.2347 10.1528 39.0582 9.97308 40.4271 8.44503C41.7016 6.64732 38.1748 5.15755 34.5138 5.15755C33.8791 5.15755 33.2377 5.2025 32.6195 5.29904M22.765 4.22707C22.1551 4.51837 21.6248 4.93783 22.5744 5.31402C23.1562 5.5404 24.2301 5.70685 25.5096 5.77177C28.0734 5.89827 32.1024 5.54539 33.0388 4.36356C33.3736 3.50133 31.5919 3.11682 29.3463 3.11682C27.1006 3.11682 24.2749 3.51798 22.765 4.22707Z" fill="url(#paint0_linear_1134_12842)"/>
<path d="M50.9478 57.3909L39.6598 46.9892V57.3909H36.2258V36.8921H39.6598V45.9655L50.3197 36.8921H52.5588L42.406 45.5128L55.2768 57.3909H50.9478Z" fill="#41273B"/>
<path d="M36.2258 36.8904H39.6598V45.9655L50.3197 36.8904H52.5588L42.406 45.5127L55.2768 57.3909H50.9462L39.6598 46.9892V57.3909H36.2258V36.8904Z" stroke="#41273B" stroke-width="0.287488" stroke-miterlimit="10"/>
<path d="M62.8889 57.7222C61.694 57.7222 60.5902 57.5125 59.5742 57.0897C58.5583 56.6669 57.6882 56.0943 56.9606 55.3719C56.2331 54.6478 55.6613 53.8005 55.2437 52.8251C54.826 51.8514 54.6172 50.811 54.6172 49.7041C54.6172 48.5389 54.826 47.4436 55.2437 46.4183C55.6613 45.3929 56.2347 44.4991 56.9606 43.735C57.6866 42.971 58.5583 42.3684 59.5742 41.9257C60.5902 41.4846 61.694 41.2632 62.8889 41.2632C64.0838 41.2632 65.1893 41.4646 66.2035 41.8657C67.2195 42.2686 68.0896 42.8212 68.8155 43.5236C69.5414 44.2277 70.1148 45.0517 70.5325 45.9955C70.9501 46.9409 71.1589 47.9547 71.1589 49.0399C71.1589 50.2268 70.9501 51.347 70.5325 52.4007C70.1148 53.4543 69.5414 54.3748 68.8155 55.1588C68.0879 55.9428 67.2178 56.5653 66.2035 57.0281C65.1876 57.4908 64.0838 57.7205 62.8889 57.7205M63.4872 56.5753C64.1037 56.5753 64.6672 56.4139 65.1743 56.0926C65.6815 55.7714 66.119 55.3386 66.4886 54.7959C66.8565 54.2533 67.1466 53.6258 67.3554 52.9117C67.5642 52.1992 67.6686 51.4502 67.6686 50.6662C67.6686 49.521 67.5692 48.4457 67.3703 47.4403C67.1714 46.4349 66.8582 45.566 66.4289 44.8336C65.9997 44.0996 65.4329 43.517 64.7269 43.0842C64.0192 42.6514 63.159 42.4367 62.1431 42.4367C61.6244 42.4367 61.1222 42.5932 60.6349 42.9044C60.1477 43.2157 59.7135 43.6335 59.3356 44.1562C58.9561 44.6788 58.6577 45.2914 58.4406 45.9955C58.2219 46.6996 58.1125 47.4536 58.1125 48.2559C58.1125 49.4011 58.2318 50.4814 58.4705 51.4968C58.7091 52.5122 59.0572 53.396 59.5162 54.1501C59.9737 54.9041 60.5355 55.4967 61.2034 55.9278C61.8696 56.3606 62.632 56.5753 63.4872 56.5753Z" fill="#41273B"/>
<path d="M62.8889 57.7222C61.694 57.7222 60.5902 57.5108 59.5742 57.0897C58.5583 56.6669 57.6882 56.0943 56.9606 55.3719C56.2331 54.6478 55.6613 53.7989 55.2437 52.8251C54.826 51.8514 54.6172 50.811 54.6172 49.7041C54.6172 48.5389 54.826 47.4436 55.2437 46.4183C55.6613 45.3929 56.2347 44.4991 56.9606 43.735C57.6866 42.971 58.5583 42.3684 59.5742 41.9257C60.5902 41.4846 61.694 41.2632 62.8889 41.2632C64.0838 41.2632 65.1893 41.4646 66.2035 41.8657C67.2195 42.2686 68.0896 42.8212 68.8155 43.5236C69.5414 44.2277 70.1148 45.0517 70.5325 45.9955C70.9501 46.9409 71.1589 47.9547 71.1589 49.0399C71.1589 50.2268 70.9501 51.347 70.5325 52.4007C70.1148 53.4543 69.5414 54.3748 68.8155 55.1588C68.0879 55.9428 67.2178 56.5653 66.2035 57.0281C65.1876 57.4908 64.0838 57.7205 62.8889 57.7205V57.7222ZM63.4872 56.577C64.1037 56.577 64.6672 56.4155 65.1743 56.0943C65.6815 55.773 66.1207 55.3402 66.4886 54.7976C66.8565 54.255 67.1466 53.6274 67.3554 52.9133C67.5642 52.2009 67.6686 51.4519 67.6686 50.6679C67.6686 49.5227 67.5692 48.4474 67.3703 47.442C67.1714 46.4366 66.8582 45.5677 66.4306 44.8353C66.0014 44.1012 65.4345 43.5186 64.7285 43.0875C64.0208 42.6547 63.1607 42.44 62.1448 42.44C61.626 42.44 61.1238 42.5965 60.6366 42.9078C60.1493 43.219 59.7151 43.6368 59.3373 44.1595C58.9577 44.6822 58.6594 45.2947 58.4423 45.9988C58.2235 46.7029 58.1141 47.4553 58.1141 48.2593C58.1141 49.4045 58.2335 50.4848 58.4721 51.5001C58.7108 52.5155 59.0588 53.3994 59.5179 54.1534C59.9753 54.9075 60.5372 55.5 61.2051 55.9312C61.8713 56.3639 62.6337 56.5787 63.4888 56.5787L63.4872 56.577Z" stroke="#41273B" stroke-width="0.287488" stroke-miterlimit="10"/>
<path d="M78.7811 56.6369C79.6363 56.6369 80.339 56.3956 80.8859 55.9129C81.4328 55.4301 81.7063 54.8875 81.7063 54.2849C81.7063 53.6424 81.4975 53.1098 81.0798 52.687C80.6622 52.2658 80.1451 51.883 79.5269 51.5418C78.9087 51.2005 78.2375 50.8693 77.5116 50.5464C76.784 50.2251 76.1128 49.8523 75.4963 49.4311C74.8781 49.01 74.361 48.5023 73.9434 47.9081C73.5257 47.3155 73.3169 46.5664 73.3169 45.6626C73.3169 45.0401 73.4512 44.4575 73.7197 43.9148C73.9881 43.3722 74.3561 42.9044 74.8251 42.5133C75.2925 42.1204 75.8559 41.8158 76.5122 41.5928C77.1685 41.3731 77.8862 41.2615 78.6618 41.2615C79.1789 41.2615 79.6628 41.2965 80.1103 41.3664C80.5578 41.4363 81.0003 41.5778 81.4395 41.7892C81.877 42.0006 82.3096 42.2969 82.7388 42.6781C83.1664 43.0592 83.6205 43.5619 84.0978 44.1845L82.9626 45.2098C82.3841 44.2444 81.7278 43.522 80.992 43.0393C80.2561 42.5565 79.4689 42.3152 78.6336 42.3152C77.7387 42.3152 77.0161 42.5166 76.4692 42.9178C75.9206 43.3206 75.6471 43.8116 75.6471 44.3942C75.6471 45.0384 75.8709 45.5694 76.32 45.9922C76.7675 46.4133 77.331 46.7912 78.0071 47.1224C78.6833 47.4536 79.4159 47.7799 80.2031 48.1028C80.9887 48.4241 81.7212 48.7969 82.3974 49.2181C83.0736 49.6409 83.6371 50.1485 84.0846 50.7411C84.532 51.3337 84.7558 52.0728 84.7558 52.9566C84.7558 53.6191 84.6315 54.2433 84.3829 54.8259C84.1343 55.4085 83.7614 55.9162 83.2625 56.349C82.7653 56.7817 82.1422 57.118 81.3964 57.3593C80.6506 57.6007 79.7788 57.7206 78.7828 57.7206C78.3254 57.7206 77.853 57.6856 77.3641 57.6157C76.8769 57.5441 76.3879 57.4043 75.9007 57.1929C75.4134 56.9815 74.9245 56.6852 74.4373 56.304C73.95 55.9228 73.4661 55.4202 72.9888 54.7976L74.2732 53.6224C75.0289 54.7077 75.7466 55.4817 76.4227 55.9428C77.0989 56.4056 77.8862 56.6369 78.7811 56.6369Z" fill="#41273B"/>
<path d="M78.7811 56.6369C79.6363 56.6369 80.339 56.3956 80.8859 55.9128C81.4328 55.4301 81.7063 54.8875 81.7063 54.2849C81.7063 53.6424 81.4975 53.1097 81.0798 52.687C80.6622 52.2658 80.1451 51.883 79.5269 51.5417C78.9087 51.2005 78.2375 50.8693 77.5116 50.5463C76.784 50.2251 76.1128 49.8522 75.4963 49.4311C74.8781 49.01 74.361 48.5023 73.9434 47.908C73.5257 47.3155 73.3169 46.5664 73.3169 45.6626C73.3169 45.04 73.4512 44.4574 73.7197 43.9148C73.9881 43.3722 74.3561 42.9044 74.8251 42.5133C75.2925 42.1204 75.8559 41.8158 76.5122 41.5944C77.1685 41.373 77.8862 41.2632 78.6618 41.2632C79.1789 41.2632 79.6628 41.2981 80.1103 41.368C80.5578 41.438 81.0003 41.5794 81.4395 41.7908C81.877 42.0022 82.3096 42.2985 82.7388 42.6797C83.1664 43.0609 83.6205 43.5636 84.0978 44.1861L82.9626 45.2115C82.3841 44.246 81.7278 43.5236 80.992 43.0409C80.2561 42.5582 79.4689 42.3168 78.6336 42.3168C77.7387 42.3168 77.0161 42.5182 76.4692 42.9194C75.9206 43.3222 75.6471 43.8133 75.6471 44.3959C75.6471 45.04 75.8709 45.571 76.32 45.9938C76.7675 46.4149 77.331 46.7928 78.0071 47.124C78.6833 47.4553 79.4159 47.7815 80.2031 48.1028C80.9887 48.4241 81.7212 48.7969 82.3974 49.218C83.0736 49.6408 83.6371 50.1485 84.0846 50.7411C84.532 51.3337 84.7558 52.0727 84.7558 52.9566C84.7558 53.6191 84.6315 54.2433 84.3829 54.8259C84.1343 55.4085 83.7614 55.9162 83.2625 56.349C82.7653 56.7817 82.1422 57.118 81.3964 57.3593C80.6506 57.6007 79.7788 57.7205 78.7828 57.7205C78.3254 57.7205 77.853 57.6856 77.3641 57.6157C76.8769 57.5441 76.3879 57.4043 75.9007 57.1929C75.4134 56.9815 74.9245 56.6852 74.4373 56.304C73.95 55.9228 73.4661 55.4201 72.9888 54.7976L74.2732 53.6224C75.0289 54.7077 75.7466 55.4817 76.4227 55.9428C77.0989 56.4055 77.8862 56.6369 78.7811 56.6369V56.6369Z" stroke="#41273B" stroke-width="0.287488" stroke-miterlimit="10"/>
<path d="M94.4344 57.7222C93.3786 57.7222 92.3892 57.5208 91.4628 57.1196C90.5363 56.7168 89.7259 56.1692 89.0298 55.4767C88.3321 54.7826 87.7852 53.9753 87.3874 53.0498C86.9897 52.126 86.7908 51.1306 86.7908 50.0653C86.7908 48.7986 86.9747 47.6284 87.3427 46.5531C87.7106 45.4778 88.2277 44.549 88.8956 43.765C89.5618 42.981 90.3689 42.3684 91.3136 41.9257C92.2583 41.4846 93.309 41.2632 94.4642 41.2632C95.5 41.2632 96.4447 41.4446 97.3015 41.8058C98.1567 42.167 98.8942 42.6547 99.5107 43.2673C100.127 43.8798 100.606 44.5889 100.944 45.3929C101.282 46.1969 101.451 47.0408 101.451 47.9247H89.7756C89.7756 48.99 89.9099 49.9754 90.1783 50.8793C90.4468 51.7831 90.8247 52.5671 91.3136 53.2313C91.8009 53.8937 92.3842 54.4131 93.0604 54.7843C93.7366 55.1571 94.4841 55.3419 95.3011 55.3419C95.9773 55.3419 96.6303 55.232 97.2568 55.0107C97.8849 54.7893 98.4467 54.498 98.9439 54.1368C99.4411 53.7756 99.8687 53.3578 100.228 52.8867C100.586 52.414 100.835 51.9362 100.974 51.4552L101.871 51.8464C101.652 52.6703 101.292 53.4393 100.795 54.1534C100.298 54.8675 99.7096 55.485 99.0334 56.0077C98.3556 56.5304 97.6247 56.9482 96.8391 57.2595C96.0519 57.5707 95.2514 57.7272 94.4344 57.7272M97.5402 46.6646C97.5402 46.0621 97.4358 45.5044 97.227 44.9918C97.0181 44.4791 96.7298 44.033 96.3618 43.6501C95.9922 43.269 95.5663 42.971 95.0774 42.7613C94.5885 42.5499 94.0664 42.445 93.5096 42.445C93.0323 42.445 92.5798 42.5499 92.1506 42.7613C91.723 42.9727 91.3451 43.269 91.017 43.6501C90.6888 44.0313 90.4137 44.4791 90.1949 44.9918C89.9761 45.5044 89.8369 46.0621 89.7773 46.6646H97.5418H97.5402Z" fill="#41273B"/>
<path d="M94.4344 57.7222C93.3786 57.7222 92.3892 57.5208 91.4628 57.1196C90.5363 56.7168 89.7259 56.1692 89.0298 55.4767C88.3321 54.7826 87.7852 53.9736 87.3874 53.0498C86.9897 52.126 86.7908 51.1306 86.7908 50.0653C86.7908 48.7986 86.9747 47.6284 87.3427 46.5531C87.7106 45.4778 88.2277 44.549 88.8956 43.765C89.5618 42.981 90.3689 42.3684 91.3136 41.9257C92.2583 41.4846 93.309 41.2632 94.4642 41.2632C95.5 41.2632 96.4447 41.4446 97.3015 41.8058C98.1567 42.167 98.8942 42.6547 99.5107 43.2673C100.127 43.8798 100.606 44.5889 100.944 45.3929C101.282 46.1969 101.451 47.0408 101.451 47.9247H89.7756C89.7756 48.99 89.9099 49.9754 90.1783 50.8793C90.4468 51.7831 90.8247 52.5671 91.3136 53.2313C91.8009 53.8937 92.3842 54.4131 93.0604 54.7843C93.7366 55.1571 94.4841 55.3419 95.3011 55.3419C95.9773 55.3419 96.6303 55.232 97.2568 55.0107C97.8849 54.7893 98.4467 54.498 98.9439 54.1368C99.4411 53.7756 99.8687 53.3578 100.228 52.8867C100.586 52.414 100.835 51.9362 100.974 51.4552L101.871 51.8464C101.652 52.6703 101.292 53.4393 100.795 54.1534C100.298 54.8675 99.7096 55.485 99.0334 56.0077C98.3556 56.5304 97.6247 56.9482 96.8391 57.2595C96.0519 57.5707 95.2514 57.7272 94.4344 57.7272V57.7222ZM97.5402 46.6596C97.5402 46.0571 97.4358 45.4994 97.227 44.9868C97.0181 44.4741 96.7298 44.028 96.3618 43.6451C95.9922 43.264 95.5663 42.966 95.0774 42.7563C94.5885 42.5449 94.0664 42.44 93.5096 42.44C93.0323 42.44 92.5798 42.5449 92.1506 42.7563C91.723 42.9677 91.3451 43.264 91.017 43.6451C90.6888 44.0263 90.4137 44.4741 90.1949 44.9868C89.9761 45.4994 89.8369 46.0571 89.7773 46.6596H97.5418H97.5402Z" stroke="#41273B" stroke-width="0.287488" stroke-miterlimit="10"/>
<path d="M108.051 57.3893H104.945V34.3887L107.156 33.4848H108.051V57.3893Z" fill="#41273B"/>
<path d="M108.051 57.3893H104.945V34.3887L107.156 33.4848H108.051V57.3893Z" stroke="#41273B" stroke-width="0.287488" stroke-miterlimit="10"/>
<path d="M114.949 41.5944V52.8384C114.949 53.2413 115.038 53.6124 115.217 53.9537C115.396 54.2966 115.645 54.5929 115.965 54.8425C116.283 55.0939 116.646 55.2936 117.055 55.4451C117.463 55.5966 117.907 55.6715 118.384 55.6715C118.703 55.6715 119.036 55.6066 119.385 55.4751C119.734 55.3452 120.077 55.1638 120.416 54.9324C120.754 54.7011 121.068 54.4297 121.356 54.1185C121.644 53.8072 121.888 53.471 122.087 53.1081V41.5928H125.193V57.3893H122.087V54.4347C121.809 54.8975 121.465 55.3236 121.056 55.7164C120.648 56.1093 120.206 56.4555 119.727 56.7568C119.25 57.0581 118.756 57.2944 118.249 57.4659C117.741 57.6357 117.257 57.7222 116.8 57.7222C116.102 57.7222 115.456 57.5907 114.859 57.3294C114.263 57.068 113.739 56.7168 113.292 56.2741C112.844 55.833 112.489 55.3153 112.231 54.721C111.972 54.1285 111.843 53.4993 111.843 52.8368V41.5928H114.949V41.5944Z" fill="#41273B"/>
<path d="M114.949 41.5944V52.8384C114.949 53.2413 115.038 53.6124 115.217 53.9537C115.396 54.2966 115.645 54.5929 115.965 54.8425C116.283 55.0939 116.646 55.2953 117.055 55.4451C117.463 55.5949 117.907 55.6715 118.384 55.6715C118.702 55.6715 119.036 55.6066 119.385 55.4751C119.733 55.3452 120.076 55.1638 120.416 54.9324C120.754 54.7011 121.067 54.4297 121.358 54.1185C121.646 53.8072 121.89 53.471 122.088 53.1081V41.5928H125.194V57.3893H122.088V54.4347C121.81 54.8975 121.467 55.3236 121.058 55.7164C120.65 56.1093 120.207 56.4555 119.728 56.7568C119.251 57.0581 118.757 57.2944 118.25 57.4659C117.743 57.6357 117.259 57.7222 116.802 57.7222C116.104 57.7222 115.457 57.5907 114.861 57.3294C114.264 57.068 113.74 56.7168 113.293 56.2741C112.846 55.833 112.491 55.3153 112.232 54.721C111.974 54.1285 111.844 53.4993 111.844 52.8368V41.5928H114.95L114.949 41.5944Z" stroke="#41273B" stroke-width="0.287488" stroke-miterlimit="10"/>
<path d="M144.393 42.4084V43.7051H141.407C141.705 44.1478 141.948 44.6355 142.139 45.1665C142.328 45.6992 142.422 46.2269 142.422 46.7495C142.422 47.5735 142.243 48.3225 141.886 48.995C141.528 49.6691 141.029 50.2467 140.392 50.7278C139.756 51.2105 138.989 51.5867 138.094 51.858C137.199 52.1293 136.212 52.2642 135.137 52.2642C134.759 52.2642 134.361 52.2292 133.942 52.1593C133.524 52.0894 133.166 52.0028 132.866 51.9029C132.568 52.1443 132.318 52.4256 132.119 52.7469C131.92 53.0681 131.821 53.3994 131.821 53.7423C131.821 54.0635 131.99 54.3199 132.328 54.5113C132.666 54.7027 133.153 54.8176 133.791 54.8575L139.583 55.0989C140.498 55.1388 141.266 55.2487 141.884 55.4301C142.5 55.6116 142.998 55.8529 143.377 56.1542C143.755 56.4555 144.018 56.8167 144.168 57.2395C144.317 57.6623 144.391 58.1234 144.391 58.626C144.391 59.5499 144.178 60.3838 143.75 61.1279C143.321 61.8702 142.709 62.5094 141.914 63.0421C141.118 63.5747 140.142 63.9809 138.987 64.2639C137.832 64.5452 136.539 64.6866 135.105 64.6866C132.497 64.6866 130.556 64.3904 129.283 63.7978C128.009 63.2052 127.372 62.4262 127.372 61.4608C127.372 61.018 127.482 60.5969 127.7 60.194C127.919 59.7912 128.193 59.405 128.522 59.0339C128.851 58.661 129.219 58.3048 129.628 57.9636C130.036 57.6223 130.438 57.3011 130.838 56.9998C130.259 56.8184 129.777 56.567 129.389 56.2457C129.001 55.9245 128.808 55.5433 128.808 55.1005C128.808 54.7793 128.892 54.448 129.061 54.1051C129.23 53.7639 129.459 53.4377 129.747 53.1247C130.036 52.8135 130.374 52.5272 130.763 52.2658C131.153 52.0045 131.565 51.7931 132.003 51.6333C130.927 51.1705 130.097 50.538 129.509 49.734C128.922 48.9301 128.629 47.9963 128.629 46.931C128.629 46.147 128.808 45.4129 129.166 44.7304C129.524 44.048 130.011 43.4487 130.629 42.9377C131.247 42.4267 131.973 42.0189 132.81 41.7159C133.645 41.4147 134.542 41.2632 135.498 41.2632C136.454 41.2632 137.344 41.373 138.17 41.5944C138.995 41.8158 139.579 42.0871 139.917 42.4084H144.396H144.393ZM131.821 57.2694C131.363 57.6107 131.01 58.0335 130.76 58.5362C130.511 59.0372 130.387 59.4999 130.387 59.9227C130.387 60.6252 130.874 61.2494 131.85 61.792C132.827 62.3346 134.31 62.606 136.3 62.606C137.336 62.606 138.266 62.5194 139.093 62.3496C139.918 62.1782 140.616 61.9585 141.183 61.6871C141.75 61.4158 142.187 61.1145 142.497 60.7833C142.805 60.452 142.959 60.1141 142.959 59.7729C142.959 59.0688 142.611 58.5528 141.914 58.2216C141.218 57.8903 140.261 57.7239 139.047 57.7239C138.289 57.7239 137.533 57.7089 136.776 57.6789C136.02 57.649 135.308 57.609 134.641 57.5591C133.973 57.5091 133.392 57.4575 132.895 57.4076C132.397 57.3577 132.038 57.3127 131.819 57.2728M135.7 51.4552C136.138 51.4552 136.561 51.3553 136.97 51.1539C137.378 50.9525 137.736 50.6762 138.045 50.325C138.354 49.9737 138.597 49.5609 138.776 49.0882C138.955 48.6171 139.045 48.1078 139.045 47.5651C139.045 46.7811 138.94 46.0587 138.732 45.3946C138.523 44.7321 138.239 44.1595 137.881 43.6768C137.523 43.1941 137.106 42.8129 136.627 42.5316C136.148 42.2503 135.641 42.1088 135.104 42.1088C134.567 42.1088 134.138 42.2203 133.76 42.44C133.382 42.6614 133.067 42.9577 132.818 43.3289C132.568 43.7017 132.386 44.1478 132.266 44.6705C132.147 45.1932 132.087 45.7558 132.087 46.3584C132.087 47.0808 132.177 47.7499 132.356 48.3625C132.535 48.975 132.779 49.5127 133.087 49.9754C133.395 50.4382 133.773 50.7994 134.222 51.0607C134.67 51.322 135.163 51.4535 135.7 51.4535" fill="#41273B"/>
<path d="M144.393 42.4084V43.7051H141.407C141.705 44.1479 141.948 44.6356 142.139 45.1666C142.328 45.6992 142.422 46.2269 142.422 46.7495C142.422 47.5735 142.243 48.3225 141.886 48.995C141.528 49.6692 141.029 50.2468 140.392 50.7278C139.756 51.2105 138.989 51.5867 138.094 51.858C137.199 52.1294 136.212 52.2642 135.137 52.2642C134.759 52.2642 134.361 52.2292 133.942 52.1593C133.524 52.0894 133.166 52.0028 132.866 51.903C132.568 52.1443 132.318 52.4256 132.119 52.7469C131.92 53.0682 131.821 53.3994 131.821 53.7423C131.821 54.0636 131.99 54.3199 132.328 54.5113C132.666 54.7027 133.153 54.8176 133.791 54.8575L139.583 55.0989C140.498 55.1389 141.266 55.2504 141.884 55.4301C142.5 55.6116 142.998 55.8529 143.377 56.1542C143.755 56.4555 144.018 56.8167 144.168 57.2395C144.317 57.6623 144.391 58.1234 144.391 58.6261C144.391 59.5499 144.178 60.3838 143.75 61.1279C143.321 61.8703 142.709 62.5095 141.914 63.0421C141.118 63.5748 140.142 63.9809 138.987 64.2639C137.832 64.5452 136.539 64.6867 135.105 64.6867C132.497 64.6867 130.556 64.3904 129.283 63.7978C128.009 63.2052 127.372 62.4262 127.372 61.4625C127.372 61.0197 127.482 60.5986 127.7 60.1957C127.919 59.7929 128.193 59.4067 128.522 59.0355C128.851 58.6627 129.219 58.3065 129.628 57.9652C130.036 57.624 130.438 57.3028 130.838 57.0015C130.259 56.82 129.777 56.5687 129.389 56.2474C129.001 55.9262 128.808 55.545 128.808 55.1022C128.808 54.781 128.892 54.4497 129.061 54.1068C129.23 53.7656 129.459 53.4394 129.747 53.1264C130.036 52.8151 130.374 52.5288 130.763 52.2675C131.153 52.0062 131.565 51.7948 132.003 51.635C130.927 51.1722 130.097 50.5397 129.509 49.7357C128.922 48.9318 128.629 47.998 128.629 46.9326C128.629 46.1486 128.808 45.4146 129.166 44.7321C129.524 44.0497 130.011 43.4521 130.629 42.9394C131.245 42.4267 131.973 42.0189 132.81 41.7176C133.647 41.4164 134.542 41.2665 135.498 41.2665C136.454 41.2665 137.344 41.3764 138.17 41.5978C138.995 41.8192 139.579 42.0905 139.917 42.4117H144.396L144.393 42.4084ZM131.821 57.2695C131.363 57.6107 131.01 58.0335 130.76 58.5362C130.511 59.0372 130.387 59.5 130.387 59.9228C130.387 60.6252 130.874 61.2494 131.85 61.792C132.827 62.3347 134.31 62.606 136.3 62.606C137.336 62.606 138.266 62.5194 139.093 62.3497C139.918 62.1782 140.616 61.9585 141.183 61.6872C141.75 61.4158 142.187 61.1146 142.497 60.7833C142.805 60.4521 142.959 60.1142 142.959 59.7729C142.959 59.0688 142.611 58.5528 141.914 58.2216C141.218 57.8903 140.261 57.7239 139.047 57.7239C138.289 57.7239 137.533 57.7089 136.776 57.6789C136.02 57.649 135.308 57.609 134.641 57.5591C133.973 57.5092 133.392 57.4576 132.895 57.4076C132.397 57.3577 132.038 57.3127 131.819 57.2728L131.821 57.2695ZM135.702 51.4519C136.14 51.4519 136.562 51.352 136.972 51.1506C137.379 50.9492 137.737 50.6729 138.047 50.3217C138.355 49.9704 138.599 49.5576 138.778 49.0849C138.957 48.6138 139.047 48.1062 139.047 47.5618C139.047 46.7778 138.942 46.0554 138.733 45.3913C138.524 44.7288 138.241 44.1562 137.883 43.6735C137.525 43.1908 137.107 42.8096 136.628 42.5283C136.15 42.247 135.642 42.1055 135.105 42.1055C134.568 42.1055 134.139 42.217 133.761 42.4367C133.383 42.6581 133.069 42.9544 132.822 43.3256C132.571 43.6984 132.389 44.1445 132.27 44.6672C132.15 45.1899 132.091 45.7525 132.091 46.3551C132.091 47.0775 132.18 47.7466 132.359 48.3592C132.538 48.9717 132.782 49.511 133.09 49.9721C133.398 50.4349 133.776 50.7961 134.225 51.0574C134.673 51.3187 135.165 51.4502 135.704 51.4502L135.702 51.4519Z" stroke="#41273B" stroke-width="0.287488" stroke-miterlimit="10"/>
<path d="M154.138 57.7222C152.943 57.7222 151.839 57.5125 150.823 57.0897C149.807 56.6669 148.937 56.0943 148.21 55.3719C147.482 54.6478 146.91 53.8005 146.493 52.8251C146.075 51.8514 145.866 50.811 145.866 49.7041C145.866 48.5389 146.075 47.4436 146.493 46.4183C146.91 45.3929 147.484 44.4991 148.21 43.735C148.936 42.971 149.807 42.3684 150.823 41.9257C151.839 41.4846 152.943 41.2632 154.138 41.2632C155.333 41.2632 156.438 41.4646 157.453 41.8657C158.469 42.2686 159.339 42.8212 160.065 43.5236C160.79 44.2277 161.364 45.0517 161.782 45.9955C162.199 46.9409 162.408 47.9547 162.408 49.0399C162.408 50.2268 162.199 51.347 161.782 52.4007C161.364 53.456 160.79 54.3748 160.065 55.1588C159.337 55.9428 158.467 56.5653 157.453 57.0281C156.437 57.4908 155.333 57.7205 154.138 57.7205M154.736 56.5753C155.353 56.5753 155.916 56.4139 156.423 56.0926C156.931 55.7714 157.368 55.3386 157.738 54.7959C158.106 54.2533 158.396 53.6258 158.604 52.9117C158.813 52.1992 158.918 51.4502 158.918 50.6662C158.918 49.521 158.818 48.4457 158.619 47.4403C158.42 46.4349 158.107 45.566 157.678 44.8336C157.249 44.0996 156.682 43.517 155.976 43.0842C155.268 42.6514 154.408 42.4367 153.392 42.4367C152.873 42.4367 152.371 42.5932 151.884 42.9044C151.397 43.2157 150.962 43.6335 150.585 44.1562C150.205 44.6788 149.907 45.2914 149.69 45.9955C149.471 46.6996 149.362 47.4536 149.362 48.2559C149.362 49.4011 149.481 50.4814 149.719 51.4968C149.958 52.5122 150.306 53.396 150.765 54.1501C151.223 54.9041 151.785 55.4967 152.452 55.9278C153.119 56.3606 153.881 56.5753 154.736 56.5753Z" fill="#41273B"/>
<path d="M154.138 57.7222C152.943 57.7222 151.839 57.5108 150.823 57.0897C149.807 56.6669 148.937 56.0943 148.21 55.3719C147.482 54.6478 146.91 53.7989 146.493 52.8251C146.075 51.8514 145.866 50.811 145.866 49.7041C145.866 48.5389 146.075 47.4436 146.493 46.4183C146.91 45.3929 147.484 44.4991 148.21 43.735C148.936 42.971 149.807 42.3684 150.823 41.9257C151.839 41.4846 152.943 41.2632 154.138 41.2632C155.333 41.2632 156.438 41.4646 157.453 41.8657C158.469 42.2686 159.339 42.8212 160.065 43.5236C160.79 44.2277 161.364 45.0517 161.782 45.9955C162.199 46.9409 162.408 47.9547 162.408 49.0399C162.408 50.2268 162.199 51.347 161.782 52.4007C161.364 53.456 160.79 54.3748 160.065 55.1588C159.337 55.9428 158.467 56.5653 157.453 57.0281C156.437 57.4908 155.333 57.7205 154.138 57.7205V57.7222ZM154.736 56.577C155.353 56.577 155.916 56.4155 156.423 56.0943C156.931 55.773 157.37 55.3402 157.738 54.7976C158.106 54.255 158.396 53.6274 158.604 52.9133C158.813 52.2009 158.918 51.4519 158.918 50.6679C158.918 49.5227 158.818 48.4474 158.619 47.442C158.42 46.4366 158.107 45.5677 157.678 44.8353C157.249 44.1012 156.682 43.5186 155.976 43.0875C155.268 42.6547 154.408 42.44 153.392 42.44C152.873 42.44 152.371 42.5965 151.884 42.9078C151.397 43.219 150.962 43.6368 150.585 44.1595C150.205 44.6822 149.907 45.2947 149.69 45.9988C149.471 46.7029 149.362 47.4553 149.362 48.2593C149.362 49.4045 149.481 50.4848 149.719 51.5001C149.958 52.5155 150.306 53.3994 150.765 54.1534C151.223 54.9075 151.785 55.5 152.452 55.9312C153.119 56.3639 153.881 56.5787 154.736 56.5787V56.577Z" stroke="#41273B" stroke-width="0.287488" stroke-miterlimit="10"/>
<path d="M12.0273 53.4327C11.5484 54.2434 12.9919 56.3557 14.1868 57.3078C15.6304 58.4547 16.5187 57.9403 16.4441 56.7435C16.4342 56.5904 16.3927 56.384 16.3596 56.2308C15.7812 54.1318 14.0128 53.0332 12.8875 53.0332C12.498 53.0332 12.1864 53.1664 12.0273 53.4327ZM9.51152 51.8547C9.43197 51.5252 9.35408 51.1856 9.27784 50.8327C9.35574 51.2039 9.43032 51.5318 9.51152 51.8547ZM9.14526 50.0454C9.13697 50.057 9.12703 50.077 9.12537 50.107L9.13531 50.1586C9.13531 50.1586 9.13531 50.1652 9.13863 50.1652L9.16017 50.2867C9.19497 50.4432 9.23807 50.6579 9.27453 50.8194C9.27453 50.8244 9.27453 50.8277 9.27784 50.8327C9.24967 50.7045 9.21818 50.5614 9.19 50.4216C9.21652 50.5481 9.25298 50.7079 9.28281 50.8327C9.80653 53.1398 10.428 54.7394 10.5474 54.8742C10.5474 54.8493 10.544 54.8143 10.5374 54.7927C10.3816 54.2234 10.1977 53.6641 10.012 53.1081C10.1347 53.4044 10.2341 53.5909 10.2921 53.6341C10.2954 53.6308 10.3037 53.6225 10.307 53.6191C10.307 53.5903 10.2965 53.5326 10.2756 53.446C10.0816 52.8352 9.8347 52.2392 9.60931 51.645C9.75515 52.0179 9.9474 52.4573 10.1711 52.8751C10.8274 54.0985 11.4241 54.528 11.5533 54.1485C11.6097 53.9887 11.5533 53.7789 11.5036 53.5742C11.1092 52.4456 10.4065 51.8198 9.83967 51.3154C9.64411 51.1412 9.46457 50.9359 9.30104 50.6995C9.30436 50.7428 9.33751 50.8577 9.39054 51.0241C9.29607 50.7378 9.20823 50.4532 9.13863 50.1619C9.14691 50.1919 9.15686 50.2251 9.16514 50.2568C9.34413 50.8211 9.63748 51.0774 9.72698 50.8493C9.77504 50.7362 9.73195 50.568 9.71206 50.4798C9.58942 50.1053 9.40877 49.9605 9.27784 49.9605C9.21818 49.9605 9.17177 49.9904 9.1436 50.042M10.0816 49.8556C9.4038 51.1074 11.2915 52.3724 11.3081 52.3857C12.329 53.0033 13.214 52.4057 12.8162 50.7129C12.4516 49.5743 11.8152 49.0983 11.2235 49.0983C10.7678 49.0983 10.3402 49.3779 10.0816 49.8556ZM8.91986 48.8902C8.91489 48.8586 8.90991 48.8286 8.90494 48.797C8.90991 48.8269 8.91489 48.8569 8.91986 48.8902ZM8.81048 48.1644C8.81048 48.1461 8.80716 48.1278 8.80385 48.1078C8.80716 48.1278 8.80882 48.1461 8.81048 48.1644ZM8.80385 48.1078C8.80385 48.1078 8.80385 48.0945 8.80385 48.0895C8.80385 48.0962 8.80385 48.1045 8.80385 48.1078ZM8.80385 48.0895C8.80385 48.0762 8.80385 48.0646 8.80053 48.0529C8.80053 48.0646 8.80053 48.0779 8.80385 48.0895ZM13.6233 49.0883C12.5792 51.099 14.3095 53.3329 15.9403 53.8006C17.5297 54.2617 18.8837 52.975 18.2821 50.3933C17.6954 48.5523 16.6132 47.7683 15.6022 47.7683C14.8083 47.7683 14.0576 48.251 13.6233 49.0866M9.47838 47.5153C9.19497 48.0562 9.08891 48.9534 9.10548 49.6009C9.11211 49.8073 9.12537 49.814 9.14028 49.8157C9.15686 49.824 9.40048 49.8107 9.54301 49.7657C9.56456 49.7591 9.59273 49.7508 9.61096 49.7458C10.2275 49.5144 10.5772 48.5523 10.38 47.6451C10.2739 47.2722 10.1131 47.1124 9.94574 47.1124C9.77835 47.1124 9.61096 47.2639 9.47838 47.5153ZM8.80385 47.9431C8.74915 47.492 8.70606 47.0608 8.66795 46.6447C8.70441 47.0775 8.74915 47.5136 8.80385 47.9431ZM8.66297 46.5665C8.66297 46.5665 8.66297 46.5615 8.66297 46.5582C8.66297 46.5582 8.66297 46.5631 8.66297 46.5665ZM19.4538 47.8865C18.0169 50.6896 20.1449 54.1002 22.7204 54.503C24.8269 54.8309 26.5538 52.9234 25.7715 49.5643C25.0208 47.2107 23.5176 46.0771 22.1022 46.0771C21.0581 46.0771 20.0621 46.693 19.4522 47.8865M8.89997 48.5506C8.95301 48.9451 9.00604 49.3263 9.06073 49.6875V49.6908C9.06405 49.7175 9.06736 49.7441 9.07233 49.7707C9.00107 49.3329 8.94472 48.9235 8.89997 48.5506ZM8.89997 48.5506C8.88008 48.4058 8.86517 48.2543 8.84362 48.1078C8.85854 48.271 8.87345 48.4308 8.89003 48.5889C8.8602 48.3758 8.83036 48.1611 8.80219 47.9414C8.85854 48.4258 8.9298 48.9301 9.01598 49.4628C8.9845 49.2664 8.94969 49.0733 8.91986 48.8852C8.93643 48.9901 8.94969 49.0949 8.96958 49.2015C8.99444 49.3579 9.02924 49.566 9.05742 49.7208L9.08393 49.8723C9.08725 49.8989 9.09388 49.9289 9.09554 49.9488L9.11542 50.0554C9.11542 50.0554 9.11542 50.0604 9.11542 50.062L9.12205 50.0986L9.10714 49.9938C9.10051 49.9488 9.09554 49.8922 9.09056 49.8456C9.05576 49.4545 9.08228 49.0666 9.11045 48.6621C9.14028 48.1578 9.17674 47.6318 9.11377 47.3438C9.09719 47.3022 9.07233 47.2273 9.0309 47.3155C8.9414 47.5136 8.90163 48.2726 9.00935 49.2813C8.92815 48.5456 8.90494 47.8532 8.89169 47.1108C8.87345 46.2785 8.86682 45.9972 8.82208 45.859C8.75578 46.0272 8.71767 46.9776 8.89831 48.5506M11.0429 45.2848C10.0071 47.695 11.1622 48.9351 12.445 48.757C13.678 48.5889 14.6857 46.926 14.1603 44.8087C13.8206 43.9065 13.3565 43.5437 12.8776 43.5437C12.1864 43.5437 11.4639 44.2994 11.0429 45.2864M12.1864 38.4135C11.1125 40.9786 11.3694 43.4704 13.2985 42.7197C13.4328 42.6681 13.6018 42.5799 13.7228 42.505C14.9492 41.7343 16.3182 39.3756 15.6983 36.9454C15.3851 36.1864 14.9824 35.8768 14.5498 35.8768C13.7012 35.8768 12.7483 37.0719 12.1848 38.4152M8.65303 46.5299V46.5199C8.65303 46.5315 8.65303 46.5432 8.65634 46.5565C8.65634 46.5465 8.65303 46.5365 8.65303 46.5299ZM8.44918 42.8329C8.49061 42.6681 8.5221 42.5067 8.54862 42.3435C8.50719 43.527 8.53039 45.0218 8.65137 46.5282C8.65137 46.5382 8.65137 46.5465 8.65469 46.5548V46.5582C8.65469 46.5615 8.65469 46.5631 8.65469 46.5665V46.5698C8.65469 46.5798 8.65469 46.5881 8.658 46.5948C8.658 46.5898 8.658 46.5815 8.65469 46.5748C8.65469 46.5831 8.65469 46.5914 8.658 46.5981C8.658 46.6131 8.658 46.6281 8.66132 46.643C8.66132 46.6264 8.658 46.6131 8.658 46.5981C8.71767 47.1025 8.77733 47.6101 8.83699 48.1062C8.76904 47.3671 8.70938 46.5465 8.72595 45.358C8.73755 44.3593 8.80053 43.4038 8.86517 42.3918C8.96792 40.7589 8.97621 40.2146 8.89666 39.9715C8.81379 40.0415 8.74418 40.2812 8.68286 40.6524C8.70109 40.1563 8.71767 39.6586 8.77899 39.1659C9.25188 35.2065 9.47562 33.1908 9.4502 33.1186C8.82871 33.2984 8.17738 40.6024 8.44586 42.8296M10.5009 31.5024C9.3922 33.9492 8.8055 38.9429 9.15023 39.1876C9.23641 39.1343 9.38225 39.0444 10.2291 36.6375C11.608 32.7108 11.6047 31.2493 11.4788 30.7267C11.4191 30.5702 11.3445 30.507 11.2633 30.507C10.9733 30.507 10.5938 31.3043 10.5009 31.504M11.9992 32.2397C10.9733 34.3387 10.0734 38.4785 11.4108 38.0407C11.7705 37.9208 12.2743 37.4631 12.7682 36.8156C13.9349 35.2742 14.9608 32.6792 14.5581 30.9098C14.4056 30.4187 14.1636 30.2073 13.8819 30.2073C13.3184 30.2073 12.5809 31.0529 11.9992 32.2397ZM24.5269 25.4601C22.4718 26.1275 20.9868 27.6573 20.2377 29.4C20.2344 29.385 20.2311 29.3667 20.2278 29.3518C19.2533 26.6735 16.6877 28.1982 15.3486 31.276C13.9333 34.5235 14.8349 37.0336 17.1004 36.1597C17.2794 36.0898 17.5065 35.9717 17.6722 35.8701C18.5373 35.3308 19.3279 34.3471 19.8284 33.1802C20.0737 34.2655 20.667 35.2592 21.6564 35.9783C24.0827 37.7477 28.2923 37.0819 30.6921 33.2734C33.14 28.8474 30.3441 25.1371 26.5074 25.1371C25.8693 25.1371 25.2047 25.2387 24.5269 25.4584M9.73526 31.5723C9.69549 32.0866 9.75847 32.1399 9.79824 32.1732C9.88939 32.1465 10.075 32.0949 11.2418 29.2502C11.8832 27.6756 13.3399 23.902 13.0168 22.885C12.9737 22.8317 12.9256 22.8084 12.8742 22.8084C12.0489 22.8084 9.9822 28.4379 9.73526 31.5723ZM35.7304 19.1681C31.3219 20.6695 30.2712 26.1225 33.8924 28.7259C36.1994 30.3888 40.6858 30.5486 43.0939 26.5204C45.0363 22.3257 41.715 18.8152 37.8352 18.8152C37.1424 18.8152 36.4315 18.9267 35.7304 19.1664M47.0549 23.5858C48.2034 26.1292 51.9954 28.6277 56.1172 26.7051C60.6002 23.9953 58.2883 18.1677 53.487 16.9742C52.9252 16.8327 52.3733 16.7661 51.8446 16.7661C48.0957 16.7661 45.4722 20.0952 47.0549 23.5858ZM24.8932 14.6389C20.3819 16.117 19.2052 21.0657 22.8679 23.1763C25.1169 24.478 29.4508 24.2599 31.723 20.4681C33.4102 16.8444 30.7137 14.261 27.235 14.2593C26.4792 14.2593 25.6887 14.3808 24.8948 14.6389M14.4785 12.157C10.0004 13.6718 9.23641 17.5302 12.0787 19.1032C12.1947 19.1697 12.3555 19.2446 12.4781 19.2962C12.972 19.5043 13.5189 19.6308 14.0957 19.6741C13.8603 20.2933 13.6847 20.8759 13.6068 21.3703C13.5106 21.9778 13.5537 22.592 14.3161 22.0644C14.7802 21.7398 15.4497 21.0124 16.1425 20.0769C16.3016 19.8605 16.4673 19.6275 16.6347 19.3795C18.1777 18.9034 19.6577 17.8897 20.604 16.3101C21.9265 13.4604 19.9046 11.7159 17.0606 11.7159C16.2469 11.7159 15.3652 11.8591 14.4769 12.1603M4.86107 11.7509C1.23981 13.1707 0.000134706 15.8407 2.448 16.9426C2.64191 17.0308 2.9104 17.124 3.11922 17.1706C5.31352 17.695 8.6696 16.583 10.1629 14.0945C11.0661 12.1287 9.84299 11.12 7.87243 11.12C6.97913 11.12 5.93336 11.3297 4.86107 11.7475M34.2305 9.57031C30.8993 11.13 30.8894 14.8869 34.214 16.7495C36.6254 18.0994 41.1698 18.171 43.0806 14.767C44.3816 11.1516 40.7985 8.93779 37.2767 8.93779C36.2094 8.93779 35.147 9.14086 34.2289 9.57031M23.7049 6.68399C19.8996 8.00564 19.129 11.1649 22.2315 12.7213C22.4818 12.8461 22.8281 12.9826 23.0966 13.0659C25.755 13.8998 29.6513 13.0842 31.2192 10.5457C32.5517 7.93407 29.9248 6.17964 26.6947 6.17964C25.7218 6.17964 24.6943 6.33777 23.7032 6.68233M43.4734 5.85672C41.2725 7.12343 42.073 9.98812 45.1208 11.7475C47.6151 13.1924 52.002 13.7983 53.4074 11.12C53.4456 10.9769 53.4688 10.8354 53.487 10.6939C53.9643 11.7276 54.9206 12.8694 56.2531 13.8532C58.9777 15.869 62.5625 16.7545 63.5602 14.8652C64.5844 11.2831 56.2183 6.49424 53.7986 8.06557C53.4555 8.28862 53.2566 8.60987 53.1804 8.99272C52.1363 6.84878 48.805 5.2658 46.0207 5.2658C45.0711 5.2658 44.1861 5.4489 43.4751 5.85838M21.0415 1.7919C18.2721 2.78563 17.5164 4.28372 19.3146 5.19256C19.9096 5.49385 20.7614 5.70857 21.7094 5.79513C24.5219 6.05646 28.241 5.14928 29.2983 3.3882C29.9944 1.86181 28.0023 1.04119 25.4285 1.04119C24.0264 1.04119 22.4503 1.28588 21.0415 1.7919ZM11.1655 2.62251C10.6219 3.02366 10.1794 3.53801 11.1821 3.72443C11.7986 3.83596 12.8809 3.79435 14.1504 3.61291C16.6927 3.24671 20.5808 2.12814 21.2785 0.789843C21.3796 0.238879 20.7498 0.00750732 19.7438 0.00750732C17.4037 0.00750732 13.035 1.25924 11.1655 2.62251Z" fill="url(#paint1_linear_1134_12842)"/>
<path d="M163.419 40.4576C164.277 40.4576 165 41.1617 165 42.0605C165 42.9594 164.294 43.6568 163.419 43.6568C162.544 43.6568 161.838 42.9378 161.838 42.0605C161.838 41.1833 162.551 40.4576 163.419 40.4576ZM163.419 43.3689C164.132 43.3689 164.715 42.7796 164.715 42.0605C164.715 41.3415 164.132 40.7439 163.419 40.7439C162.706 40.7439 162.123 41.3248 162.123 42.0605C162.123 42.7963 162.706 43.3689 163.419 43.3689ZM163.112 42.9128H162.751V41.2016H163.542C163.641 41.2016 164.186 41.2016 164.186 41.7126C164.186 42.0372 163.956 42.1304 163.871 42.1687L164.186 42.9128H163.803L163.527 42.2303H163.112V42.9128ZM163.112 41.944H163.489C163.611 41.944 163.812 41.9124 163.812 41.7043C163.812 41.6045 163.742 41.4796 163.52 41.4796H163.114V41.944H163.112Z" fill="#41273B"/>
</g>
<defs>
<linearGradient id="paint0_linear_1134_12842" x1="10.5456" y1="31.2609" x2="72.1815" y2="31.2609" gradientUnits="userSpaceOnUse">
<stop stop-color="white"/>
<stop offset="1" stop-color="#E391D8"/>
</linearGradient>
<linearGradient id="paint1_linear_1134_12842" x1="1.17684" y1="28.9789" x2="63.6497" y2="28.9789" gradientUnits="userSpaceOnUse">
<stop stop-color="white"/>
<stop offset="1" stop-color="#C724B1"/>
</linearGradient>
<clipPath id="clip0_1134_12842">
<rect width="165" height="92.0526" fill="white" transform="translate(0 0.00744629)"/>
</clipPath>
</defs>
</svg>
