<svg width="18" height="18" viewBox="0 0 18 18" fill="none" xmlns="http://www.w3.org/2000/svg">
<path d="M12.5575 11.2059H11.7847L11.5107 10.9418C12.4694 9.82659 13.0466 8.37876 13.0466 6.80376C13.0466 3.29181 10.1999 0.445068 6.68792 0.445068C3.17596 0.445068 0.329224 3.29181 0.329224 6.80376C0.329224 10.3157 3.17596 13.1625 6.68792 13.1625C8.26292 13.1625 9.71075 12.5853 10.826 11.6266L11.0901 11.9005V12.6733L15.9814 17.5549L17.439 16.0972L12.5575 11.2059ZM6.68792 11.2059C4.25205 11.2059 2.28575 9.23963 2.28575 6.80376C2.28575 4.36789 4.25205 2.40159 6.68792 2.40159C9.12379 2.40159 11.0901 4.36789 11.0901 6.80376C11.0901 9.23963 9.12379 11.2059 6.68792 11.2059Z" fill="white"/>
</svg>
