<svg width="51" height="51" viewBox="0 0 51 51" fill="none" xmlns="http://www.w3.org/2000/svg">
<g clip-path="url(#clip0_1370_3531)">
<path d="M48.3605 19.7942H5.84874V17.6927H48.3605V19.7942ZM16.7031 25.2792C16.7031 25.0005 16.5904 24.7332 16.3898 24.5362C16.1892 24.3391 15.9171 24.2284 15.6334 24.2284H12.1888C11.9051 24.2284 11.633 24.3391 11.4323 24.5362C11.2317 24.7332 11.119 25.0005 11.119 25.2792C11.119 25.5579 11.2317 25.8251 11.4323 26.0222C11.633 26.2192 11.9051 26.33 12.1888 26.33H15.6334C15.9171 26.33 16.1892 26.2192 16.3898 26.0222C16.5904 25.8251 16.7031 25.5579 16.7031 25.2792ZM25.8601 25.2792C25.8583 25.0011 25.745 24.7349 25.5448 24.5382C25.3445 24.3416 25.0735 24.2303 24.7904 24.2284H21.3387C21.055 24.2284 20.7829 24.3391 20.5823 24.5362C20.3816 24.7332 20.2689 25.0005 20.2689 25.2792C20.2689 25.5579 20.3816 25.8251 20.5823 26.0222C20.7829 26.2192 21.055 26.33 21.3387 26.33H24.7904C25.0741 26.33 25.3462 26.2192 25.5468 26.0222C25.7474 25.8251 25.8601 25.5579 25.8601 25.2792ZM35.0101 25.2792C35.0101 25.0005 34.8974 24.7332 34.6967 24.5362C34.4961 24.3391 34.224 24.2284 33.9403 24.2284H30.4957C30.212 24.2284 29.9399 24.3391 29.7393 24.5362C29.5387 24.7332 29.426 25.0005 29.426 25.2792C29.426 25.5579 29.5387 25.8251 29.7393 26.0222C29.9399 26.2192 30.212 26.33 30.4957 26.33H33.9403C34.224 26.33 34.4961 26.2192 34.6967 26.0222C34.8974 25.8251 35.0101 25.5579 35.0101 25.2792ZM44.16 25.2792C44.16 25.0005 44.0473 24.7332 43.8466 24.5362C43.646 24.3391 43.3739 24.2284 43.0902 24.2284H39.6456C39.3619 24.2284 39.0898 24.3391 38.8892 24.5362C38.6886 24.7332 38.5759 25.0005 38.5759 25.2792C38.5759 25.5579 38.6886 25.8251 38.8892 26.0222C39.0898 26.2192 39.3619 26.33 39.6456 26.33H43.0902C43.3739 26.33 43.646 26.2192 43.8466 26.0222C44.0473 25.8251 44.16 25.5579 44.16 25.2792ZM16.7031 31.4717C16.7031 31.193 16.5904 30.9257 16.3898 30.7287C16.1892 30.5316 15.9171 30.4209 15.6334 30.4209H12.1888C11.9051 30.4209 11.633 30.5316 11.4323 30.7287C11.2317 30.9257 11.119 31.193 11.119 31.4717C11.119 31.7503 11.2317 32.0176 11.4323 32.2147C11.633 32.4117 11.9051 32.5224 12.1888 32.5224H15.6334C15.9171 32.5224 16.1892 32.4117 16.3898 32.2147C16.5904 32.0176 16.7031 31.7503 16.7031 31.4717ZM25.8601 31.4717C25.8601 31.193 25.7474 30.9257 25.5468 30.7287C25.3462 30.5316 25.0741 30.4209 24.7904 30.4209H21.3387C21.055 30.4209 20.7829 30.5316 20.5823 30.7287C20.3816 30.9257 20.2689 31.193 20.2689 31.4717C20.2689 31.7503 20.3816 32.0176 20.5823 32.2147C20.7829 32.4117 21.055 32.5224 21.3387 32.5224H24.7904C25.0741 32.5224 25.3462 32.4117 25.5468 32.2147C25.7474 32.0176 25.8601 31.7503 25.8601 31.4717ZM35.0101 31.4717C35.0101 31.193 34.8974 30.9257 34.6967 30.7287C34.4961 30.5316 34.224 30.4209 33.9403 30.4209H30.4957C30.212 30.4209 29.9399 30.5316 29.7393 30.7287C29.5387 30.9257 29.426 31.193 29.426 31.4717C29.426 31.7503 29.5387 32.0176 29.7393 32.2147C29.9399 32.4117 30.212 32.5224 30.4957 32.5224H33.9403C34.224 32.5224 34.4961 32.4117 34.6967 32.2147C34.8974 32.0176 35.0101 31.7503 35.0101 31.4717ZM44.16 31.4717C44.16 31.193 44.0473 30.9257 43.8466 30.7287C43.646 30.5316 43.3739 30.4209 43.0902 30.4209H39.6456C39.3619 30.4209 39.0898 30.5316 38.8892 30.7287C38.6886 30.9257 38.5759 31.193 38.5759 31.4717C38.5759 31.7503 38.6886 32.0176 38.8892 32.2147C39.0898 32.4117 39.3619 32.5224 39.6456 32.5224H43.0902C43.3739 32.5224 43.646 32.4117 43.8466 32.2147C44.0473 32.0176 44.16 31.7503 44.16 31.4717ZM16.7031 37.6571C16.7031 37.3785 16.5904 37.1112 16.3898 36.9141C16.1892 36.7171 15.9171 36.6064 15.6334 36.6064H12.1888C11.9051 36.6064 11.633 36.7171 11.4323 36.9141C11.2317 37.1112 11.119 37.3785 11.119 37.6571C11.119 37.9358 11.2317 38.2031 11.4323 38.4001C11.633 38.5972 11.9051 38.7079 12.1888 38.7079H15.6334C15.9171 38.7079 16.1892 38.5972 16.3898 38.4001C16.5904 38.2031 16.7031 37.9358 16.7031 37.6571ZM25.8601 37.6571C25.8601 37.3785 25.7474 37.1112 25.5468 36.9141C25.3462 36.7171 25.0741 36.6064 24.7904 36.6064H21.3387C21.055 36.6064 20.7829 36.7171 20.5823 36.9141C20.3816 37.1112 20.2689 37.3785 20.2689 37.6571C20.2689 37.9358 20.3816 38.2031 20.5823 38.4001C20.7829 38.5972 21.055 38.7079 21.3387 38.7079H24.7904C25.0741 38.7079 25.3462 38.5972 25.5468 38.4001C25.7474 38.2031 25.8601 37.9358 25.8601 37.6571ZM35.0101 37.6571C35.0101 37.3785 34.8974 37.1112 34.6967 36.9141C34.4961 36.7171 34.224 36.6064 33.9403 36.6064H30.4957C30.212 36.6064 29.9399 36.7171 29.7393 36.9141C29.5387 37.1112 29.426 37.3785 29.426 37.6571C29.426 37.9358 29.5387 38.2031 29.7393 38.4001C29.9399 38.5972 30.212 38.7079 30.4957 38.7079H33.9403C34.224 38.7079 34.4961 38.5972 34.6967 38.4001C34.8974 38.2031 35.0101 37.9358 35.0101 37.6571ZM44.16 37.6571C44.16 37.3785 44.0473 37.1112 43.8466 36.9141C43.646 36.7171 43.3739 36.6064 43.0902 36.6064H39.6456C39.3619 36.6064 39.0898 36.7171 38.8892 36.9141C38.6886 37.1112 38.5759 37.3785 38.5759 37.6571C38.5759 37.9358 38.6886 38.2031 38.8892 38.4001C39.0898 38.5972 39.3619 38.7079 39.6456 38.7079H43.0902C43.3739 38.7079 43.646 38.5972 43.8466 38.4001C44.0473 38.2031 44.16 37.9358 44.16 37.6571ZM21.4956 10.8067C21.5214 10.1216 21.4064 9.43836 21.1573 8.7979C20.9082 8.15743 20.5302 7.57287 20.0459 7.07917C19.5616 6.58547 18.9809 6.19277 18.3385 5.92454C17.6961 5.65631 17.0053 5.51807 16.3073 5.51807C15.6093 5.51807 14.9185 5.65631 14.2761 5.92454C13.6337 6.19277 13.053 6.58547 12.5687 7.07917C12.0844 7.57287 11.7064 8.15743 11.4573 8.7979C11.2082 9.43836 11.0932 10.1216 11.119 10.8067C11.119 11.0854 11.2317 11.3527 11.4323 11.5497C11.633 11.7468 11.9051 11.8575 12.1888 11.8575C12.4725 11.8575 12.7446 11.7468 12.9452 11.5497C13.1458 11.3527 13.2585 11.0854 13.2585 10.8067C13.2585 10.2137 13.4375 9.63408 13.7729 9.14103C14.1083 8.64799 14.585 8.26371 15.1428 8.03678C15.7005 7.80986 16.3143 7.75048 16.9064 7.86617C17.4984 7.98185 18.0423 8.2674 18.4692 8.6867C18.8961 9.106 19.1868 9.64023 19.3046 10.2218C19.4223 10.8034 19.3619 11.4062 19.1309 11.9541C18.8998 12.5019 18.5086 12.9702 18.0067 13.2996C17.5047 13.6291 16.9146 13.8049 16.3109 13.8049C16.0272 13.8049 15.7551 13.9156 15.5544 14.1127C15.3538 14.3097 15.2411 14.577 15.2411 14.8557C15.2411 15.1343 15.3538 15.4016 15.5544 15.5987C15.7551 15.7957 16.0272 15.9064 16.3109 15.9064C17.686 15.9027 19.0037 15.364 19.9754 14.4082C20.9471 13.4525 21.4937 12.1575 21.4956 10.8067ZM44.16 10.8067C44.1858 10.1216 44.0708 9.43836 43.8217 8.7979C43.5726 8.15743 43.1946 7.57287 42.7103 7.07917C42.2259 6.58547 41.6452 6.19277 41.0029 5.92454C40.3605 5.65631 39.6697 5.51807 38.9717 5.51807C38.2737 5.51807 37.5829 5.65631 36.9405 5.92454C36.2981 6.19277 35.7174 6.58547 35.2331 7.07917C34.7488 7.57287 34.3708 8.15743 34.1217 8.7979C33.8726 9.43836 33.7575 10.1216 33.7834 10.8067C33.7834 11.0854 33.8961 11.3527 34.0967 11.5497C34.2974 11.7468 34.5694 11.8575 34.8532 11.8575C35.1369 11.8575 35.409 11.7468 35.6096 11.5497C35.8102 11.3527 35.9229 11.0854 35.9229 10.8067C35.9229 10.2134 36.1021 9.63351 36.4378 9.14031C36.7735 8.64711 37.2507 8.26284 37.8088 8.03612C38.367 7.8094 38.9811 7.75044 39.5734 7.86669C40.1657 7.98295 40.7095 8.26919 41.1361 8.68919C41.5627 9.10919 41.8528 9.64407 41.9698 10.2261C42.0868 10.8082 42.0253 11.4112 41.7932 11.9589C41.5611 12.5067 41.1687 12.9744 40.6659 13.303C40.163 13.6316 39.5721 13.8063 38.9681 13.8049C38.6844 13.8049 38.4123 13.9156 38.2117 14.1127C38.0111 14.3097 37.8984 14.577 37.8984 14.8557C37.8984 15.1343 38.0111 15.4016 38.2117 15.5987C38.4123 15.7957 38.6844 15.9064 38.9681 15.9064C40.3445 15.9046 41.664 15.3667 42.6372 14.4107C43.6105 13.4547 44.1581 12.1587 44.16 10.8067ZM50.5 41.3908V13.8399C50.4981 12.7574 50.0595 11.7197 49.2801 10.9542C48.5008 10.1887 47.4444 9.75782 46.3422 9.75597H8.93674C7.83462 9.75782 6.77817 10.1887 5.99885 10.9542C5.21953 11.7197 4.78088 12.7574 4.77899 13.8399V41.3908C4.77899 42.4746 5.21681 43.5141 5.99633 44.2811C6.77586 45.0481 7.83338 45.4799 8.93674 45.4818H46.3422C47.4456 45.4799 48.5031 45.0481 49.2827 44.2811C50.0622 43.5141 50.5 42.4746 50.5 41.3908ZM46.3422 11.8575C46.8775 11.8575 47.3909 12.0664 47.7694 12.4381C48.1479 12.8099 48.3605 13.3141 48.3605 13.8399V41.3908C48.3605 41.9173 48.1481 42.4222 47.7698 42.7951C47.3915 43.168 46.8782 43.3784 46.3422 43.3803H8.93674C8.40081 43.3784 7.88748 43.168 7.50918 42.7951C7.13089 42.4222 6.91848 41.9173 6.91849 41.3908V13.8399C6.91849 13.3141 7.13112 12.8099 7.50962 12.4381C7.88812 12.0664 8.40147 11.8575 8.93674 11.8575H46.3422ZM8.93674 43.3803C8.40081 43.3784 7.88748 43.168 7.50918 42.7951C7.13089 42.4222 6.91848 41.9173 6.91849 41.3908V13.8399C6.91849 13.3141 7.13112 12.8099 7.50962 12.4381C7.88812 12.0664 8.40147 11.8575 8.93674 11.8575V9.75597H4.65775C3.55563 9.75782 2.49918 10.1887 1.71986 10.9542C0.940539 11.7197 0.501886 12.7574 0.5 13.8399L0.5 41.3908C0.499998 42.4746 0.937818 43.5141 1.71734 44.2811C2.49687 45.0481 3.55439 45.4799 4.65775 45.4818H8.93674V43.3803ZM5.30673 11.8575C4.96038 12.4628 4.77862 13.1456 4.77899 13.8399V41.3908C4.77836 42.0875 4.96009 42.7725 5.30673 43.3803H4.65775C4.12182 43.3784 3.60849 43.168 3.23019 42.7951C2.8519 42.4222 2.63949 41.9173 2.6395 41.3908V13.8399C2.6395 13.3141 2.85213 12.8099 3.23063 12.4381C3.60913 12.0664 4.12248 11.8575 4.65775 11.8575H5.30673Z" fill="#2A738D"/>
</g>
<defs>
<clipPath id="clip0_1370_3531">
<rect width="50" height="50" fill="white" transform="translate(0.5 0.5)"/>
</clipPath>
</defs>
</svg>
