<svg width="84" height="51" viewBox="0 0 84 51" fill="none" xmlns="http://www.w3.org/2000/svg">
<g clip-path="url(#clip0_1370_4058)">
<path d="M19.8304 11.5464C20.1224 11.5464 20.4112 11.5597 20.6963 11.5859C15.9946 12.0165 12.3141 15.919 12.3141 20.6695C12.3141 25.4201 15.9946 29.3226 20.696 29.7532C20.4112 29.7794 20.1224 29.7927 19.8304 29.7927C14.723 29.7927 10.5827 25.7081 10.5827 20.6695C10.5827 15.631 14.723 11.5464 19.8304 11.5464Z" fill="white" fill-opacity="0.503059"/>
<path d="M19.9926 32.5762C20.1739 32.5773 20.3891 32.5804 20.6327 32.5864C18.1114 32.6445 12.9615 32.9779 10.4332 34.6632C6.7498 37.2146 6.35795 45.0234 6.35795 46.647C6.35795 47.1109 6.51469 47.5748 6.90654 47.9613C7.22002 48.2706 7.69024 48.5026 8.16046 48.5026H6.42903C5.95881 48.5026 5.48859 48.2706 5.17512 47.9613C4.78327 47.5748 4.62653 47.1109 4.62653 46.647C4.62653 45.0234 5.01838 37.2146 8.70176 34.6632C11.6014 32.7303 17.9494 32.5757 19.8303 32.5757L19.9926 32.5762Z" fill="white" fill-opacity="0.499099"/>
<path d="M27.8204 34.5859C28.1339 34.3539 28.4474 34.1993 28.7609 34.0447C25.5477 32.7303 20.532 32.5757 18.9646 32.5757C17.0837 32.5757 10.7358 32.7303 7.8361 34.6632C4.15271 37.2146 3.76086 45.0234 3.76086 46.647C3.76086 47.1109 3.9176 47.5748 4.30945 47.9613C4.62293 48.2706 5.09315 48.5026 5.56337 48.5026H22.1778C22.4129 44.7141 23.3533 37.6012 27.8204 34.5859Z" stroke="#2A738D" stroke-width="1.73913" stroke-linejoin="round"/>
<path d="M18.9648 29.7927C24.0721 29.7927 28.2124 25.7081 28.2124 20.6695C28.2124 15.631 24.0721 11.5464 18.9648 11.5464C13.8574 11.5464 9.7171 15.631 9.7171 20.6695C9.7171 25.7081 13.8574 29.7927 18.9648 29.7927Z" stroke="#2A738D" stroke-width="1.73913" stroke-linejoin="round"/>
<path d="M58.0445 32.6538C58.2476 32.6548 58.4889 32.6576 58.7618 32.6637C56.6436 32.7158 52.5333 32.9845 49.8281 34.1223C50.1406 34.2769 50.4531 34.5089 50.7656 34.6635C55.1406 37.6015 56.2344 44.3279 56.3906 48.5029H54.6646C54.5084 44.3279 53.4146 37.6015 49.0396 34.6635C48.7271 34.5089 48.4146 34.2769 48.1021 34.1223C51.2271 32.808 56.2271 32.6533 57.8677 32.6533L58.0445 32.6538Z" fill="white" fill-opacity="0.503059"/>
<path d="M57.8678 11.5464C58.1589 11.5464 58.4468 11.5597 58.731 11.5859C54.044 12.0166 50.3751 15.919 50.3751 20.6695C50.3751 25.42 54.044 29.3225 58.7306 29.7532C58.4468 29.7794 58.1589 29.7927 57.8678 29.7927C52.7764 29.7927 48.649 25.7081 48.649 20.6695C48.649 15.631 52.7764 11.5464 57.8678 11.5464Z" fill="white" fill-opacity="0.503059"/>
<path d="M72.2391 46.4154C72.161 44.4052 71.6923 37.1376 68.0985 34.7408C65.2079 32.808 58.8798 32.6533 57.0048 32.6533C55.3641 32.6533 50.3641 32.808 47.2391 34.1223C47.5516 34.2769 47.8641 34.5089 48.1766 34.6635C52.5516 37.6015 53.6454 44.3279 53.8016 48.5029H70.3641C71.3798 48.5029 72.161 47.7297 72.161 46.7246C72.2391 46.57 72.2391 46.4927 72.2391 46.4154Z" stroke="#2A738D" stroke-width="1.73913" stroke-linejoin="round"/>
<path d="M57.0048 29.7927C62.0962 29.7927 66.2236 25.7081 66.2236 20.6695C66.2236 15.631 62.0962 11.5464 57.0048 11.5464C51.9134 11.5464 47.7861 15.631 47.7861 20.6695C47.7861 25.7081 51.9134 29.7927 57.0048 29.7927Z" stroke="#2A738D" stroke-width="1.73913" stroke-linejoin="round"/>
<path d="M38.7262 28.5619C38.9802 28.5629 39.2844 28.5663 39.6297 28.5737C36.4888 28.6415 29.9447 29.0506 26.7449 31.188C22.1202 34.3008 21.6282 44.223 21.5298 46.1685C21.5298 46.7522 21.7266 47.3358 22.2186 47.8222C22.6122 48.2113 23.2026 48.5032 23.793 48.5032H21.6191C21.0287 48.5032 20.4383 48.2113 20.0447 47.8222C19.5527 47.3358 19.3559 46.7522 19.3559 46.1685C19.4543 44.223 19.9463 34.3008 24.571 31.188C28.2117 28.7561 36.182 28.5615 38.5435 28.5615L38.7262 28.5619Z" fill="#CDDDE2"/>
<path d="M38.5435 2.10254C38.9103 2.10254 39.2732 2.11936 39.6313 2.15225C33.7277 2.69382 29.1064 7.60396 29.1064 13.5811C29.1064 19.558 33.7271 24.4679 39.6296 25.01C39.2724 25.043 38.9099 25.0597 38.5435 25.0597C32.1309 25.0597 26.9325 19.9206 26.9325 13.5811C26.9325 7.24168 32.1309 2.10254 38.5435 2.10254Z" fill="#CDDDE2"/>
<path d="M51.4291 31.188C47.7884 28.7561 39.8181 28.5615 37.4566 28.5615C35.095 28.5615 27.1248 28.7561 23.484 31.188C18.8593 34.3008 18.3673 44.223 18.2689 46.1685C18.2689 46.7522 18.4657 47.3358 18.9577 47.8222C19.3513 48.2113 19.9417 48.5032 20.5321 48.5032H54.2827C55.5618 48.5032 56.5458 47.5304 56.5458 46.2658C56.5458 46.1685 56.5458 46.0712 56.5458 45.8767C56.4474 43.4448 55.857 34.2035 51.4291 31.188Z" fill="#CDDDE2" stroke="#2A738D" stroke-width="2.17391" stroke-linejoin="round"/>
<path d="M37.4565 25.0597C43.8691 25.0597 49.0675 19.9206 49.0675 13.5811C49.0675 7.24168 43.8691 2.10254 37.4565 2.10254C31.0439 2.10254 25.8455 7.24168 25.8455 13.5811C25.8455 19.9206 31.0439 25.0597 37.4565 25.0597Z" fill="#CDDDE2" stroke="#2A738D" stroke-width="2.17391" stroke-linejoin="round"/>
<path d="M0.5 50.1343H74.413" stroke="#2A738D" stroke-width="2.17391" stroke-linecap="round"/>
<path d="M77.6739 50.1343H79.8478" stroke="#2A738D" stroke-width="2.17391" stroke-linecap="round"/>
<path d="M83.1087 50.1343H87.4565" stroke="#2A738D" stroke-width="2.17391" stroke-linecap="round"/>
</g>
<defs>
<clipPath id="clip0_1370_4058">
<rect width="83" height="50" fill="white" transform="translate(0.5 0.5)"/>
</clipPath>
</defs>
</svg>
