<svg width="61" height="60" viewBox="0 0 61 60" fill="none" xmlns="http://www.w3.org/2000/svg">
<path d="M53.4349 31.6854C53.4649 32.6454 53.3549 33.6354 53.1849 34.6254C53.0049 35.6154 52.7249 36.6054 52.4149 37.5754C51.7549 39.5054 50.9149 41.3254 50.1549 43.0654C50.8249 42.1854 51.4849 41.1654 52.0349 40.0754C52.5849 38.9953 53.0549 37.8754 53.4349 36.8354C54.1749 34.7553 54.5649 33.0254 55.0749 32.7054C55.5749 32.3754 55.5749 34.0354 55.0249 36.1654C54.7549 37.2254 54.3349 38.3854 53.8649 39.4854C53.3949 40.5754 52.8549 41.5854 52.4349 42.4053C52.6483 42.1454 52.8583 41.8853 53.0649 41.6254C52.7449 42.0154 52.4449 42.4154 52.3249 42.8354C52.4949 42.6553 52.6849 42.4054 52.8749 42.1354C53.0749 41.8654 53.2849 41.5854 53.4649 41.2954C53.8549 40.7354 54.2049 40.1954 54.4549 39.9953C54.4149 40.3054 54.3849 40.6153 54.3349 40.9254C55.1849 39.8754 56.0349 38.1354 56.6449 36.2754C57.2549 34.4254 57.6149 32.4854 57.9849 31.1054C57.3849 34.4754 56.3649 37.9854 54.6249 41.3254C53.7649 42.9953 52.7349 44.6154 51.5349 46.1354C50.3349 47.6554 48.9549 49.0754 47.4249 50.3454C45.8949 51.6154 44.2049 52.7253 42.4049 53.6553C40.6049 54.5753 38.6749 55.2754 36.7049 55.7554C32.7549 56.6954 28.5849 56.6754 24.7649 55.7054C22.6249 55.2154 20.5549 54.5054 18.6149 53.5554C17.6349 53.0954 16.7149 52.5554 15.7949 52.0054C14.8949 51.4254 14.0149 50.8253 13.1949 50.1553C12.3549 49.5053 11.5749 48.7854 10.8149 48.0554C10.0749 47.3054 9.35494 46.5354 8.69494 45.7054C7.37494 44.0654 6.21494 42.3054 5.29494 40.4254C4.98494 39.7053 4.52494 38.4354 4.24494 36.9854C3.94494 35.5354 3.77494 33.9154 3.74494 32.5754C3.54494 30.2054 3.64494 27.7954 4.01494 25.4154C4.41494 23.0454 5.05494 20.6954 5.97494 18.4554C8.07494 13.7254 11.6749 9.78535 16.0849 7.06535C20.5049 4.33535 25.7449 2.81535 31.2349 2.73535C31.7849 2.73535 32.3849 2.80535 32.8749 2.91535C33.3749 3.04535 33.7649 3.20535 33.9249 3.34535C34.0849 3.49535 34.0049 3.63535 33.5649 3.73535C33.3449 3.78535 33.0349 3.81535 32.6149 3.85535C32.1949 3.90535 31.6749 3.91535 31.0349 3.96535C28.8949 4.15535 26.7849 4.54535 24.7249 5.13535C22.6649 5.73535 20.6749 6.54535 18.7949 7.55535C18.9449 7.31535 19.4849 6.96535 20.1149 6.67535C20.7349 6.35535 21.4349 6.07535 21.8349 5.79535C20.3049 6.26535 18.9549 6.85535 17.6649 7.55535C16.3849 8.25535 15.1749 9.07535 13.9649 10.0954C15.5749 8.73535 17.3449 7.56535 19.2249 6.60535C16.8749 7.80535 14.5549 9.38535 12.5249 11.3654C10.4749 13.3254 8.73494 15.6854 7.43494 18.2454C6.96494 19.1754 6.31494 19.9654 5.76494 20.9354C5.20494 21.8954 4.74494 23.0754 4.72494 24.6154C5.77494 20.9854 7.61494 17.5654 10.0449 14.6654C12.4749 11.7554 15.4549 9.33535 18.7949 7.56535C18.7949 7.57535 18.7749 7.59535 18.7749 7.60535C21.7249 5.98535 24.7149 5.10535 27.9249 4.66535C27.4249 4.74535 26.9249 4.85535 26.4449 4.95535C25.9649 5.04535 25.4949 5.16535 25.0549 5.23535C27.3849 4.81535 29.7149 4.65535 32.0249 4.77535C34.3349 4.87535 36.6149 5.27535 38.8149 5.95535C35.6349 5.27535 32.3149 5.09535 29.0249 5.47535C25.7349 5.85535 22.4649 6.82535 19.4949 8.38535C16.5249 9.93535 13.8449 12.0654 11.7149 14.6154C9.57494 17.1554 7.98494 20.1154 7.08494 23.1754C7.88494 21.5554 8.67494 19.6454 9.69494 17.9054C10.7149 16.1654 11.9549 14.6054 13.2549 13.7154C11.2549 15.7854 9.59494 18.1954 8.37494 20.8354C7.14494 23.4754 6.34494 26.3454 6.08494 29.3154C6.08494 28.8754 6.07494 28.4354 6.08494 28.0054C5.67494 29.8254 5.63494 31.7754 5.83494 33.6954C6.04494 35.6153 6.51494 37.4954 7.06494 39.2754C7.16494 39.5954 7.25494 39.9154 7.37494 40.2254C7.25494 39.9154 7.17494 39.5854 7.06494 39.2754C6.07494 35.9854 5.77494 32.5854 6.08494 29.3154C6.09494 30.8254 6.10494 32.4154 6.27494 34.3254C6.30494 33.8054 6.33494 33.1654 6.34494 32.4854C6.38494 31.8054 6.40494 31.0654 6.48494 30.3354C6.55494 28.4054 6.85494 26.4854 7.38494 24.6554C6.64494 27.5154 6.55494 30.4754 7.02494 33.0654C6.90494 29.1454 7.60494 25.0854 9.27494 21.5554C8.45494 23.5354 7.90494 25.6154 7.64494 27.7254C7.04494 31.2454 7.21494 34.9454 8.27494 38.4754C8.22494 38.3454 8.18494 38.2054 8.13494 38.0754C8.20494 38.3454 8.30494 38.6054 8.40494 38.8654C8.83494 40.2354 9.40494 41.5754 10.0949 42.8554C10.7349 43.9953 11.5649 44.9954 12.4649 45.8854C12.5949 46.0554 12.7349 46.2154 12.8649 46.3854C12.5449 46.1254 12.3349 46.0354 12.7949 46.6754C13.7649 48.0554 15.0749 49.2553 16.5249 50.3354C17.9849 51.4254 19.5849 52.3754 21.2649 53.3554C22.1449 53.8853 23.4549 54.3354 24.9049 54.6454C25.2749 54.8254 25.4949 54.8254 25.6949 54.8054C26.0049 54.8554 26.3249 54.9254 26.6449 54.9654C27.0349 55.0254 27.4149 55.1054 27.8049 55.1454C28.1949 55.1854 28.5849 55.2154 28.9649 55.2254C28.5849 55.1854 28.2049 55.1554 27.8149 55.1154C27.4249 55.0754 27.0349 55.0154 26.6449 54.9654C26.3549 54.9154 26.0649 54.8454 25.7849 54.7954C25.9949 54.7554 26.2249 54.7154 26.6449 54.7954C24.0249 54.2254 21.4549 53.2253 19.1149 51.7854C16.7749 50.3554 14.6549 48.5254 12.8649 46.3954C13.1449 46.5954 13.5149 46.8954 13.6749 47.0154C13.2649 46.6553 12.8449 46.2953 12.4649 45.9053C11.3449 44.5053 10.3649 42.9854 9.54494 41.3754C9.82494 41.8354 10.1349 42.2453 10.4349 42.5754C8.03494 38.0954 7.01494 32.8554 7.65494 27.7454C8.46494 22.9754 10.7549 18.5954 14.0049 15.2154C12.0949 16.8854 10.4349 19.0754 9.27494 21.5754C9.97494 19.8854 10.8749 18.2754 11.9449 16.7954C13.0249 15.3054 14.2849 13.9554 15.6749 12.7654C18.4549 10.3754 21.8549 8.70535 25.4049 7.93535C25.1149 8.10535 24.7949 8.28535 24.4649 8.45535C24.1349 8.63535 23.8149 8.83535 23.5149 9.02535C23.2049 9.20535 22.9349 9.42535 22.6849 9.61535C22.4449 9.80535 22.2449 9.99535 22.1149 10.1854C22.2449 10.3354 24.3349 9.62535 23.1849 10.2054C22.1549 10.7654 21.2349 11.3154 20.4049 11.8554C19.5749 12.3754 18.8449 12.9254 18.2149 13.4254C16.9649 14.4654 16.1549 15.5054 15.9949 16.5854C15.9949 16.7054 16.2649 16.6254 16.6449 16.4554C17.0449 16.3154 17.5249 16.0754 18.0149 15.9154C18.4849 15.7354 18.9449 15.6154 19.2049 15.6054C19.4649 15.5954 19.5449 15.6854 19.2949 15.9554C18.4049 16.7954 16.8649 18.3454 15.6249 20.3054C15.4149 20.5654 15.2349 20.8554 15.0349 21.1354C14.8449 21.4254 14.6749 21.7354 14.4849 22.0454C14.4249 22.1154 14.4149 22.2854 14.4049 22.4854C13.2949 24.7254 12.7549 27.0554 12.5049 28.3454C12.4149 28.8254 12.3249 29.3054 12.2649 29.7854C12.1749 30.0354 12.0749 30.2454 11.9549 30.4154C12.0349 30.7254 12.0749 31.0354 12.1349 31.3454C12.0849 32.6554 12.1849 33.9654 12.4149 35.2354C12.4649 35.9554 12.5249 36.6954 12.6749 37.4053C12.7449 37.3653 12.8049 37.2254 12.9249 37.3254C13.1449 38.1054 13.4649 38.8554 13.7849 39.5954C14.1349 40.3254 14.5049 41.0454 14.9449 41.7254C15.0749 42.0354 15.2049 42.3254 15.3249 42.6154C15.4349 42.9054 15.5349 43.1954 15.6249 43.4654C16.4449 43.9654 17.4449 45.0054 18.6549 46.0454C19.8449 47.0954 21.2749 48.0954 22.5549 48.6854V48.6654C23.8249 49.3154 25.1649 49.8354 26.5749 50.1954C26.7949 50.3153 26.9949 50.4454 27.1849 50.5854C27.5649 50.5554 27.9349 50.5953 28.1249 50.5854C29.2549 50.8554 30.2249 51.0854 31.2349 51.2453C31.4149 51.1954 31.7549 50.9454 32.1349 50.9354C32.5149 50.9354 32.8949 50.8954 33.2649 50.8754C33.6349 50.8354 33.9949 50.7754 34.3549 50.7254C35.1949 50.6054 36.0449 50.4753 36.8849 50.2453C39.7349 49.5554 42.4049 48.2554 44.7449 46.4754C44.8749 46.4754 44.9649 46.5454 45.0549 46.6154C45.1849 46.4154 45.3749 46.2154 45.5749 46.0254C45.7749 45.8454 45.9649 45.6654 46.0749 45.4854C46.0449 45.5654 46.0449 45.6354 46.0949 45.6654C46.2949 45.3854 46.4749 45.1754 46.6349 45.0054C46.7849 44.8254 46.9349 44.6954 47.0749 44.5654C47.3749 44.3154 47.6649 44.0754 48.0849 43.6154C48.2449 43.3854 48.3049 43.1054 48.4349 42.8654C48.5249 42.7654 48.6049 42.6554 48.6849 42.5454C49.8649 41.6454 50.4049 40.2854 50.9849 38.8354C51.6749 37.4154 52.2149 35.9154 52.5749 34.3554C52.7049 33.7354 52.8649 33.3054 53.0049 32.9254C53.1549 32.5454 53.3149 32.2054 53.4249 31.7554" fill="#FFFAC2"/>
<path d="M32.1621 29.5913V47.5319" stroke="#559CB5" stroke-width="2" stroke-linecap="round" stroke-linejoin="round"/>
<path d="M57.0525 17.7199L31.9425 6.40991L7.27246 17.7199L18.4625 23.2499L32.1625 29.9999L45.8625 23.2499L57.0525 17.7199Z" fill="#DBF1FA" stroke="#DBF1FA" stroke-width="2" stroke-linecap="round" stroke-linejoin="round"/>
<circle cx="32.1621" cy="47.5317" r="5.35938" fill="#559CB5"/>
</svg>
