<svg width="61" height="60" viewBox="0 0 61 60" fill="none" xmlns="http://www.w3.org/2000/svg">
<g clip-path="url(#clip0_1451_18030)">
<path d="M5.64544 27.733C5.60972 26.6793 5.73474 25.5899 5.9312 24.5004C6.12765 23.411 6.43126 22.3216 6.78845 21.25C7.50283 19.1247 8.43153 17.1244 9.27093 15.2135C8.53869 16.1779 7.80645 17.303 7.19922 18.4996C6.592 19.6962 6.07407 20.9285 5.6633 22.0715C4.85962 24.3576 4.431 26.2685 3.85949 26.6079C3.30585 26.965 3.30585 25.1434 3.91307 22.8038C4.21668 21.6429 4.68103 20.357 5.1811 19.1604C5.69902 17.9638 6.28839 16.8566 6.75273 15.9457C6.51461 16.2315 6.28243 16.5172 6.05621 16.803C6.4134 16.3743 6.73487 15.9457 6.87775 15.4635C6.6813 15.66 6.48484 15.9457 6.27053 16.2315C6.05621 16.5351 5.82404 16.8387 5.62758 17.1602C5.19896 17.7853 4.80605 18.3746 4.53815 18.5889C4.57387 18.2496 4.60959 17.9103 4.66317 17.5709C3.71661 18.7318 2.78792 20.6428 2.12712 22.6788C1.44845 24.7147 1.05554 26.84 0.644775 28.376C1.30558 24.6612 2.43073 20.8035 4.3417 17.1423C5.28825 15.3028 6.43126 13.5347 7.73501 11.8559C9.05661 10.1771 10.5747 8.62331 12.2535 7.21241C13.9323 5.80151 15.7897 4.58706 17.7721 3.56907C19.7545 2.55107 21.8798 1.78311 24.0408 1.26519C28.3806 0.229334 32.9705 0.247194 37.1675 1.31877C39.525 1.85455 41.811 2.64037 43.9363 3.69408C45.0078 4.19415 46.0258 4.78351 47.026 5.4086C48.0082 6.05154 48.9905 6.71234 49.8835 7.44458C50.8122 8.15897 51.6695 8.94478 52.5089 9.74846C53.3125 10.57 54.1162 11.4273 54.8306 12.3381C56.2772 14.1419 57.5452 16.0886 58.5632 18.1424C58.9026 18.9283 59.4026 20.3392 59.7241 21.9287C60.0634 23.5182 60.242 25.3041 60.2777 26.7865C60.4921 29.3939 60.3849 32.055 59.9741 34.6625C59.5276 37.27 58.8311 39.8596 57.8131 42.3242C55.4914 47.5214 51.5444 51.8612 46.6866 54.8438C41.8288 57.8442 36.0602 59.5051 30.0237 59.5944C29.4165 59.5944 28.7735 59.523 28.2199 59.398C27.6662 59.2551 27.2376 59.0765 27.059 58.9158C26.8804 58.755 26.9697 58.5943 27.4519 58.4871C27.702 58.4335 28.0413 58.3978 28.4878 58.3621C28.9521 58.3085 29.5236 58.2907 30.238 58.2371C32.5955 58.0228 34.9172 57.5941 37.1854 56.9512C39.4535 56.2904 41.6324 55.3974 43.7041 54.2901C43.5434 54.558 42.9361 54.9331 42.2396 55.2545C41.561 55.6117 40.793 55.9153 40.3465 56.219C42.0253 55.701 43.5255 55.0581 44.9364 54.2901C46.3473 53.5222 47.6868 52.6113 49.0084 51.504C47.2403 53.0042 45.2936 54.2901 43.2219 55.3438C45.8115 54.0222 48.3654 52.2899 50.5979 50.111C52.8482 47.9679 54.777 45.3604 56.1879 42.5386C56.7058 41.5027 57.4202 40.6454 58.0274 39.5739C58.6525 38.5023 59.1347 37.2164 59.1705 35.5198C58.0096 39.5203 55.9915 43.2708 53.3125 46.4677C50.6515 49.6645 47.3653 52.3256 43.6862 54.2723C43.6862 54.2723 43.7041 54.2365 43.722 54.2365C40.4715 56.0225 37.1854 56.9869 33.667 57.4691C34.2207 57.3798 34.7565 57.2548 35.2923 57.1477C35.828 57.0405 36.3281 56.9155 36.8282 56.8262C34.2743 57.2905 31.7025 57.4691 29.1664 57.3441C26.6304 57.2369 24.1122 56.7905 21.7012 56.0582C25.2016 56.8083 28.845 57.0048 32.4705 56.5761C36.0959 56.1654 39.6857 55.0938 42.954 53.3793C46.2223 51.6826 49.1691 49.3252 51.5087 46.5212C53.8662 43.7173 55.6164 40.4847 56.5987 37.1093C55.7236 38.8952 54.8484 40.9848 53.7233 42.9136C52.5981 44.8246 51.2408 46.557 49.8121 47.5214C52.0088 45.2532 53.8305 42.5921 55.1699 39.681C56.5272 36.7878 57.4024 33.6267 57.6881 30.3584C57.6881 30.8406 57.6881 31.3228 57.6881 31.805C58.1346 29.8047 58.1882 27.6437 57.956 25.5363C57.7238 23.4289 57.2059 21.3572 56.5987 19.3926C56.4915 19.0354 56.3844 18.6961 56.2593 18.3389C56.3844 18.6782 56.4737 19.0354 56.5987 19.3926C57.6881 23.0181 58.0096 26.7507 57.6703 30.3584C57.6703 28.6974 57.6524 26.9472 57.4559 24.8576C57.4202 25.4291 57.3845 26.1257 57.3845 26.8758C57.3488 27.6259 57.3131 28.4474 57.2416 29.2511C57.1523 31.3585 56.8309 33.4838 56.2415 35.484C57.063 32.3408 57.1523 29.0903 56.6344 26.2328C56.7594 30.537 55.9915 35.0018 54.1519 38.8952C55.0449 36.7164 55.6521 34.4303 55.9379 32.1086C56.5987 28.2331 56.4022 24.1611 55.2414 20.2856C55.2949 20.4285 55.3485 20.5713 55.4021 20.7142C55.3128 20.4106 55.2056 20.1248 55.1163 19.8391C54.6341 18.3389 54.009 16.8566 53.2589 15.4457C52.5624 14.1955 51.6337 13.0882 50.6515 12.1059C50.5086 11.9273 50.3657 11.7309 50.205 11.5523C50.5622 11.838 50.7943 11.9273 50.2764 11.2308C49.2048 9.71274 47.7761 8.39114 46.1687 7.19455C44.5614 5.99796 42.8111 4.94425 40.9537 3.87268C39.9893 3.30117 38.5427 2.80111 36.9532 2.46178C36.5424 2.26532 36.3103 2.26532 36.0959 2.28318C35.7566 2.2296 35.3994 2.15816 35.0601 2.10458C34.6315 2.03315 34.2028 1.96171 33.7921 1.90813C33.3634 1.87241 32.9348 1.83669 32.524 1.81883C32.9348 1.85455 33.3634 1.89027 33.7921 1.94385C34.2207 1.97957 34.6493 2.05101 35.0779 2.10458C35.3994 2.15816 35.703 2.2296 36.0245 2.28318C35.7923 2.3189 35.5423 2.37248 35.0779 2.28318C37.9533 2.90826 40.793 4.01555 43.3648 5.58719C45.9365 7.15883 48.2761 9.17696 50.2407 11.5166C49.9371 11.3022 49.5263 10.9629 49.3477 10.8379C49.7942 11.2308 50.2585 11.6237 50.6693 12.0702C51.9016 13.6061 52.9911 15.2849 53.8662 17.053C53.5626 16.5351 53.2232 16.1065 52.9018 15.7314C55.545 20.6606 56.6523 26.4293 55.9557 32.055C55.0628 37.3057 52.5446 42.1278 48.9727 45.8247C51.0801 43.9852 52.9018 41.5741 54.1698 38.8416C53.4018 40.699 52.4017 42.4671 51.223 44.1102C50.0442 45.7533 48.6512 47.2356 47.1153 48.5394C44.0613 51.1826 40.3287 53.0042 36.4174 53.8615C36.7389 53.665 37.0961 53.4686 37.4533 53.29C37.8105 53.0935 38.1676 52.8792 38.507 52.6649C38.8463 52.4685 39.1499 52.2184 39.4178 52.022C39.6857 51.8077 39.9 51.5933 40.0429 51.3969C39.9 51.2361 37.5961 52.022 38.8642 51.379C39.9893 50.7539 41.0073 50.1646 41.9181 49.5752C42.829 49.0037 43.6327 48.3965 44.3292 47.8428C45.7044 46.6998 46.5973 45.5568 46.7759 44.3602C46.7759 44.2352 46.4723 44.3245 46.0616 44.5031C45.6329 44.6638 45.0793 44.9317 44.5435 45.0925C44.0256 45.2889 43.5255 45.4139 43.2398 45.4318C42.954 45.4318 42.8647 45.3425 43.1326 45.0389C44.1149 44.1281 45.8115 42.4135 47.1688 40.2525C47.401 39.9668 47.5975 39.6453 47.8118 39.3417C48.0261 39.0202 48.2047 38.6809 48.419 38.3416C48.4905 38.2701 48.4905 38.0915 48.5083 37.8594C49.7228 35.3947 50.3121 32.8408 50.5979 31.4121C50.6872 30.8763 50.7943 30.3584 50.8479 29.8226C50.9551 29.5547 51.0622 29.3046 51.1872 29.1261C51.0979 28.7867 51.0444 28.4295 50.9908 28.0902C51.0444 26.6436 50.9372 25.2148 50.6872 23.8218C50.6336 23.0181 50.5622 22.2144 50.4014 21.4286C50.33 21.4822 50.2585 21.625 50.1335 21.5179C49.8835 20.6606 49.5442 19.8391 49.187 19.0176C48.7941 18.2139 48.4012 17.4281 47.9189 16.678C47.7761 16.3386 47.6332 16.0172 47.5082 15.6957C47.3832 15.3742 47.276 15.0527 47.1688 14.7491C46.258 14.1955 45.1686 13.0525 43.8291 11.9095C42.5254 10.7486 40.9537 9.65917 39.5428 8.99836C38.1498 8.3197 36.6853 7.73034 35.1315 7.33743C34.8994 7.21241 34.6672 7.06953 34.4529 6.9088C34.0421 6.94452 33.6313 6.9088 33.417 6.9088C32.1668 6.60519 31.0953 6.35515 29.988 6.19442C29.7915 6.248 29.4165 6.51589 28.9878 6.53375C28.5592 6.53375 28.1485 6.56947 27.7377 6.60519C27.3269 6.6409 26.934 6.71234 26.5411 6.76592C25.6124 6.9088 24.6837 7.03381 23.755 7.28385C20.6296 8.05181 17.6828 9.48057 15.111 11.4451C14.9681 11.4451 14.861 11.3558 14.7717 11.2844C14.6288 11.4987 14.4145 11.7309 14.2002 11.9273C13.9858 12.1238 13.7715 12.3202 13.6465 12.5167C13.6822 12.4274 13.6822 12.356 13.6287 12.3202C13.4143 12.6238 13.2179 12.856 13.0393 13.0525C12.8607 13.2489 12.7178 13.3918 12.5571 13.5347C12.2178 13.8026 11.9141 14.0883 11.4498 14.5884C11.2712 14.8384 11.2176 15.142 11.0569 15.4099C10.9676 15.5171 10.8783 15.6421 10.789 15.7671C9.48524 16.7494 8.89588 18.2496 8.27079 19.8391C7.52069 21.3929 6.91347 23.0538 6.52056 24.7683C6.37768 25.447 6.19909 25.9113 6.05621 26.34C5.89548 26.7686 5.71688 27.1436 5.59187 27.6259" fill="#FFFAC2"/>
<path d="M6.68408 47.9928V16.429H54.3714V47.9928H6.68408Z" fill="#DBF1FA"/>
<g style="mix-blend-mode:multiply">
<path d="M30.5269 16.3311L9.78467 16.3311V47.7055C12.5762 44.3983 24.9561 43.6108 30.5269 47.993V16.3311Z" fill="#DBF1FA"/>
<path d="M30.5269 16.3311L9.78467 16.3311V47.7055C12.5762 44.3983 24.9561 43.6108 30.5269 47.993V16.3311Z" fill="url(#paint0_linear_1451_18030)" fill-opacity="0.4" style="mix-blend-mode:multiply"/>
</g>
<path fill-rule="evenodd" clip-rule="evenodd" d="M30.5268 16.4599C25.1508 11.747 14.1492 10.7788 10.51 13.942V45.4751C14.1492 42.3119 25.1508 43.2801 30.5268 47.993V16.4599Z" fill="white"/>
<path d="M35.5059 25.265C36.0103 24.9287 37.347 24.458 38.6582 25.265C41.3813 26.9408 43.3639 23.7306 46.2421 24.9575C47.8272 25.6332 48.6629 25.5965 49.5201 25.265" stroke="#559CB5" stroke-width="2.4" stroke-linecap="round" stroke-linejoin="round"/>
<path d="M35.5059 31.7149C36.0103 31.3787 37.347 30.908 38.6582 31.7149C41.3813 33.3908 43.3639 30.1806 46.2421 31.4075C47.8272 32.0832 48.6629 32.0464 49.5201 31.7149" stroke="#559CB5" stroke-width="2.4" stroke-linecap="round" stroke-linejoin="round"/>
<path d="M35.5059 38.1649C36.0103 37.8286 37.347 37.3579 38.6582 38.1649C41.3813 39.8407 43.3639 36.6305 46.2421 37.8574C47.8272 38.5331 48.6629 38.4964 49.5201 38.1649" stroke="#559CB5" stroke-width="2.4" stroke-linecap="round" stroke-linejoin="round"/>
</g>
<defs>
<linearGradient id="paint0_linear_1451_18030" x1="30.5267" y1="33.4542" x2="9.78467" y2="33.4542" gradientUnits="userSpaceOnUse">
<stop stop-color="#559CB5"/>
<stop offset="1" stop-color="white"/>
</linearGradient>
<clipPath id="clip0_1451_18030">
<rect width="60" height="60" fill="white" transform="translate(0.644531)"/>
</clipPath>
</defs>
</svg>
