<svg width="61" height="60" viewBox="0 0 61 60" fill="none" xmlns="http://www.w3.org/2000/svg">
<path d="M8.19453 31.95C8.16453 32.91 8.27453 33.9 8.44453 34.89C8.63453 35.88 8.90453 36.87 9.21453 37.84C9.87453 39.77 10.7145 41.59 11.4745 43.33C10.8045 42.45 10.1445 41.43 9.59453 40.34C9.04453 39.26 8.57453 38.14 8.19453 37.1C7.45453 35.02 7.06453 33.29 6.55453 32.97C6.05453 32.64 6.05453 34.3 6.60453 36.43C6.87453 37.49 7.29453 38.65 7.76453 39.75C8.23453 40.84 8.77453 41.85 9.19453 42.67C8.9812 42.41 8.7712 42.15 8.56453 41.89C8.88453 42.28 9.18453 42.68 9.30453 43.1C9.13453 42.92 8.94453 42.67 8.75453 42.4C8.55453 42.13 8.34453 41.85 8.16453 41.56C7.77453 41 7.42453 40.46 7.17453 40.26C7.21453 40.57 7.24453 40.88 7.29453 41.19C6.44453 40.14 5.59453 38.4 4.98453 36.54C4.37453 34.69 4.01453 32.75 3.64453 31.37C4.24453 34.74 5.26453 38.25 7.00453 41.59C7.86453 43.26 8.89453 44.88 10.0945 46.4C11.2945 47.92 12.6745 49.34 14.2045 50.61C15.7345 51.88 17.4245 52.99 19.2245 53.92C21.0245 54.84 22.9545 55.54 24.9245 56.02C28.8745 56.97 33.0445 56.94 36.8645 55.97C39.0045 55.48 41.0745 54.76 43.0145 53.82C43.9945 53.36 44.9145 52.82 45.8345 52.27C46.7345 51.69 47.6145 51.09 48.4345 50.42C49.2745 49.77 50.0545 49.05 50.8145 48.32C51.5545 47.57 52.2745 46.8 52.9345 45.97C54.2545 44.33 55.4145 42.57 56.3345 40.69C56.6445 39.97 57.1045 38.7 57.3845 37.25C57.6845 35.8 57.8545 34.18 57.8845 32.84C58.0845 30.47 57.9845 28.06 57.6145 25.68C57.2145 23.31 56.5745 20.96 55.6545 18.72C53.5545 13.99 49.9545 10.05 45.5445 7.33C41.1245 4.6 35.8745 3.08 30.3845 3C29.8345 3 29.2345 3.07 28.7445 3.18C28.2445 3.31 27.8545 3.47 27.6945 3.61C27.5345 3.76 27.6145 3.9 28.0545 4C28.2745 4.05 28.5845 4.08 29.0045 4.11C29.4245 4.16 29.9445 4.17 30.5845 4.22C32.7245 4.41 34.8345 4.8 36.8945 5.39C38.9545 5.99 40.9445 6.8 42.8245 7.81C42.6745 7.57 42.1345 7.22 41.5045 6.93C40.8845 6.61 40.1845 6.33 39.7845 6.05C41.3145 6.52 42.6645 7.11 43.9545 7.81C45.2345 8.51 46.4445 9.33 47.6545 10.35C46.0445 8.99 44.2745 7.82 42.3945 6.86C44.7445 8.06 47.0645 9.64 49.0945 11.62C51.1445 13.58 52.8845 15.94 54.1845 18.5C54.6545 19.43 55.3045 20.22 55.8545 21.19C56.4145 22.15 56.8745 23.33 56.8945 24.87C55.8445 21.24 54.0045 17.82 51.5745 14.92C49.1445 12.01 46.1645 9.59 42.8245 7.82C42.8245 7.83 42.8445 7.85 42.8445 7.86C39.8945 6.24 36.9045 5.36 33.6945 4.92C34.1945 5 34.6945 5.11 35.1745 5.21C35.6545 5.3 36.1245 5.42 36.5645 5.49C34.2345 5.07 31.9045 4.91 29.5945 5.03C27.2845 5.13 25.0045 5.53 22.8045 6.21C25.9845 5.53 29.3045 5.35 32.5945 5.73C35.8845 6.11 39.1545 7.08 42.1245 8.64C45.0945 10.19 47.7745 12.32 49.9045 14.87C52.0445 17.41 53.6345 20.37 54.5345 23.43C53.7345 21.81 52.9445 19.9 51.9245 18.16C50.9045 16.42 49.6645 14.86 48.3645 13.97C50.3645 16.04 52.0145 18.45 53.2445 21.09C54.4745 23.73 55.2745 26.6 55.5345 29.57C55.5345 29.13 55.5445 28.69 55.5345 28.26C55.9445 30.08 55.9845 32.03 55.7845 33.95C55.5745 35.87 55.1045 37.75 54.5545 39.53C54.4545 39.85 54.3645 40.17 54.2445 40.48C54.3545 40.17 54.4445 39.84 54.5545 39.53C55.5445 36.24 55.8445 32.84 55.5345 29.57C55.5245 31.08 55.5145 32.67 55.3445 34.58C55.3145 34.06 55.2845 33.42 55.2745 32.74C55.2345 32.06 55.2145 31.32 55.1345 30.59C55.0645 28.66 54.7645 26.74 54.2345 24.91C54.9745 27.77 55.0645 30.73 54.5945 33.32C54.7145 29.4 54.0145 25.34 52.3445 21.81C53.1645 23.79 53.7145 25.87 53.9745 27.98C54.5745 31.5 54.4045 35.2 53.3445 38.73C53.3945 38.6 53.4345 38.46 53.4845 38.33C53.4145 38.6 53.3145 38.86 53.2145 39.12C52.7845 40.49 52.2145 41.83 51.5245 43.11C50.8845 44.25 50.0545 45.25 49.1545 46.14C49.0245 46.31 48.8845 46.47 48.7545 46.64C49.0745 46.38 49.2845 46.29 48.8245 46.93C47.8545 48.31 46.5445 49.51 45.0945 50.59C43.6345 51.68 42.0345 52.63 40.3545 53.61C39.4745 54.13 38.1645 54.59 36.7145 54.9C36.3445 55.08 36.1245 55.08 35.9245 55.06C35.6145 55.11 35.2945 55.18 34.9745 55.22C34.5845 55.28 34.2045 55.35 33.8145 55.4C33.4245 55.44 33.0345 55.47 32.6545 55.48C33.0345 55.44 33.4145 55.41 33.8045 55.37C34.1945 55.33 34.5845 55.27 34.9745 55.22C35.2645 55.17 35.5545 55.1 35.8345 55.05C35.6245 55.01 35.3945 54.97 34.9745 55.05C37.5945 54.48 40.1645 53.48 42.5045 52.04C44.8445 50.61 46.9645 48.78 48.7545 46.65C48.4745 46.85 48.1045 47.15 47.9445 47.27C48.3545 46.91 48.7745 46.55 49.1545 46.16C50.2745 44.76 51.2545 43.24 52.0645 41.63C51.7845 42.09 51.4745 42.5 51.1745 42.83C53.5745 38.35 54.5945 33.11 53.9545 28C53.1345 23.23 50.8545 18.85 47.6045 15.47C49.5145 17.14 51.1745 19.33 52.3345 21.83C51.6345 20.14 50.7345 18.53 49.6645 17.05C48.5845 15.57 47.3245 14.21 45.9345 13.02C43.1545 10.63 39.7545 8.96 36.2045 8.19C36.4945 8.36 36.8145 8.54 37.1445 8.71C37.4745 8.89 37.7945 9.09 38.0945 9.28C38.4045 9.46 38.6745 9.68 38.9245 9.87C39.1645 10.06 39.3645 10.25 39.4945 10.44C39.3645 10.59 37.2745 9.88 38.4245 10.46C39.4545 11.02 40.3745 11.57 41.2045 12.11C42.0345 12.63 42.7645 13.18 43.3945 13.68C44.6445 14.72 45.4545 15.76 45.6145 16.84C45.6145 16.96 45.3445 16.88 44.9645 16.71C44.5645 16.57 44.0845 16.33 43.5945 16.17C43.1245 15.99 42.6645 15.87 42.4045 15.86C42.1445 15.84 42.0645 15.94 42.3145 16.21C43.2045 17.05 44.7445 18.6 45.9845 20.56C46.1945 20.82 46.3745 21.11 46.5745 21.39C46.7645 21.68 46.9345 21.99 47.1245 22.3C47.1845 22.37 47.1945 22.54 47.2045 22.74C48.3145 24.98 48.8545 27.31 49.1045 28.6C49.1945 29.08 49.2845 29.56 49.3445 30.04C49.4345 30.29 49.5345 30.5 49.6545 30.67C49.5745 30.98 49.5345 31.29 49.4745 31.6C49.5245 32.91 49.4245 34.22 49.1945 35.49C49.1445 36.21 49.0845 36.95 48.9345 37.66C48.8645 37.62 48.8045 37.48 48.6845 37.58C48.4645 38.36 48.1445 39.11 47.8245 39.85C47.4745 40.58 47.1045 41.3 46.6645 41.98C46.5345 42.29 46.4045 42.58 46.2845 42.87C46.1745 43.16 46.0745 43.45 45.9845 43.72C45.1645 44.22 44.1645 45.26 42.9545 46.3C41.7645 47.35 40.3345 48.35 39.0545 48.94V48.92C37.7845 49.57 36.4445 50.09 35.0345 50.45C34.8145 50.57 34.6145 50.7 34.4245 50.84C34.0445 50.81 33.6745 50.85 33.4845 50.84C32.3545 51.11 31.3845 51.34 30.3745 51.5C30.1945 51.45 29.8545 51.2 29.4745 51.19C29.0945 51.19 28.7145 51.15 28.3445 51.13C27.9745 51.09 27.6145 51.03 27.2545 50.98C26.4145 50.86 25.5645 50.73 24.7245 50.5C21.8745 49.81 19.2045 48.51 16.8645 46.73C16.7345 46.73 16.6445 46.8 16.5545 46.87C16.4245 46.67 16.2345 46.47 16.0345 46.28C15.8345 46.1 15.6445 45.92 15.5345 45.74C15.5645 45.82 15.5645 45.89 15.5145 45.92C15.3145 45.64 15.1345 45.43 14.9745 45.26C14.8245 45.08 14.6745 44.95 14.5345 44.82C14.2345 44.57 13.9445 44.33 13.5245 43.87C13.3645 43.64 13.3045 43.36 13.1745 43.12C13.0845 43.02 13.0145 42.91 12.9245 42.8C11.7445 41.9 11.2045 40.54 10.6245 39.09C9.93453 37.67 9.39453 36.17 9.03453 34.61C8.90453 33.99 8.74453 33.56 8.60453 33.18C8.45453 32.8 8.29453 32.46 8.18453 32.01" fill="#FFFAC2"/>
<path d="M30.6811 24.7492C34.7167 24.7492 37.9882 21.4777 37.9882 17.4421C37.9882 13.4065 34.7167 10.135 30.6811 10.135C26.6455 10.135 23.374 13.4065 23.374 17.4421C23.374 21.4777 26.6455 24.7492 30.6811 24.7492Z" fill="#DBF1FA"/>
<path d="M20.341 52.3707C20.341 52.3707 18.4334 34.6798 20.341 30.4186C22.2485 26.1575 39.2471 26.1728 41.0623 30.4186C42.8776 34.6644 41.0623 52.3707 41.0623 52.3707" fill="#DBF1FA"/>
<circle cx="19.4931" cy="33.6159" r="2.2021" fill="#559CB5" stroke="#559CB5" stroke-width="4"/>
<circle cx="37.7112" cy="29.8264" r="2" fill="#559CB5" stroke="#559CB5" stroke-width="2.63139"/>
<circle cx="41.0272" cy="47.329" r="2" fill="#559CB5" stroke="#559CB5" stroke-width="3.97439"/>
<circle cx="38.3523" cy="15.656" r="2" fill="#559CB5" stroke="#559CB5" stroke-width="1.35099"/>
<circle cx="26.3583" cy="43.342" r="2" fill="#559CB5" stroke="#559CB5" stroke-width="1.96864"/>
</svg>
