<svg width="61" height="60" viewBox="0 0 61 60" fill="none" xmlns="http://www.w3.org/2000/svg">
<path d="M19.6008 4.08057C19.902 3.94002 20.2152 3.82356 20.5324 3.72317L21.4801 3.40192C22.1146 3.1931 22.737 2.96421 23.3956 2.82768C22.6888 2.94413 22.0142 3.16901 21.3275 3.36979C20.6449 3.57861 19.9461 3.76333 19.2956 4.04844C18.633 4.31749 17.9664 4.57851 17.3119 4.86764L15.4084 5.85549C12.9308 7.26499 10.6338 8.99173 8.6862 11.0357C6.75868 13.0917 5.15241 15.4088 3.9196 17.9025C2.74301 20.4163 1.98003 23.0867 1.60657 25.7933C1.3054 28.5039 1.40177 31.2345 1.89972 33.921C2.46593 36.5914 3.40158 39.1815 4.70667 41.603C6.05995 43.9923 7.72645 46.213 9.67004 48.1887C11.6618 50.1202 13.8624 51.847 16.2879 53.2565C16.8581 53.6661 17.7777 54.1841 18.7013 54.7342C19.1551 55.0193 19.653 55.2322 20.0987 55.453C20.5485 55.6659 20.9621 55.8586 21.2914 56.0152C26.7607 57.9909 33.6878 58.4447 40.1209 56.714C43.3214 55.8506 46.3733 54.5375 49.0276 52.8509C51.6659 51.1442 53.9267 49.1404 55.7418 47.0362C57.5087 44.8798 58.3922 42.6069 58.6572 40.9364C58.7978 40.0971 58.87 39.4345 58.87 38.9607C58.858 38.4868 58.8259 38.2258 58.8259 38.2258C58.9584 36.9127 58.6773 35.5996 57.8862 36.6155C57.6091 37.1536 57.312 37.9246 56.8823 38.7157C56.6534 39.1052 56.4205 39.5148 56.1835 39.9204C56.0631 40.1212 55.9426 40.322 55.8221 40.5228C55.6977 40.7195 55.5491 40.9002 55.4166 41.085C55.1435 41.4504 54.8744 41.7917 54.6255 42.1009C54.3765 42.4101 54.1396 42.6792 53.8946 42.88C53.4288 43.2896 53.0835 43.5024 52.9349 43.398C52.8626 43.3458 53.0112 43.0928 53.2682 42.7394C53.3927 42.5587 53.5653 42.366 53.7139 42.1371C53.8665 41.9082 54.0271 41.6672 54.1878 41.4223C54.0312 41.3339 53.9549 41.0368 53.9308 40.6432C53.8986 40.2417 53.9589 39.7638 53.9589 39.2337C53.995 38.1816 54.1677 37.1255 54.3243 36.6236C54.3323 36.3465 54.4327 35.7522 54.5411 35.0133C54.5652 34.6398 54.5893 34.2222 54.6174 33.7885C54.6375 33.3548 54.7018 32.9171 54.6616 32.4633C54.6616 30.6643 54.2922 28.9496 54.1516 28.4717C54.0111 27.7168 53.734 27.7168 53.3846 28.2027C53.22 28.4597 52.9991 28.785 52.7783 29.1905C52.5453 29.5921 52.3365 30.066 52.0715 30.5679C51.7743 31.0659 51.4732 31.5919 51.1881 32.126C50.8507 32.648 50.4893 33.1661 50.1801 33.668C49.8348 34.1619 49.4533 34.6197 49.1561 35.0534C49.0156 35.2743 48.8349 35.467 48.6783 35.6518C48.5216 35.8365 48.3811 36.0132 48.2566 36.1818C47.7265 36.8324 47.4936 36.6999 47.3852 36.4308C47.2487 36.1417 47.1764 35.6879 46.9274 35.5755C46.8632 35.7522 46.7909 35.9128 46.7186 36.0654C46.6343 36.2099 46.5339 36.3344 46.4375 36.4589C46.2448 36.7039 46.052 36.9167 45.8593 37.1295C45.6826 37.3544 45.4376 37.5311 45.2288 37.76C45.012 37.9809 44.8152 38.2459 44.6064 38.5591C44.5702 38.531 44.3293 38.7037 43.9719 39.0048C43.7992 39.1574 43.5904 39.3382 43.3575 39.5389C43.1045 39.7196 42.8314 39.9204 42.5463 40.1373C42.4058 40.2457 42.2612 40.3581 42.1167 40.4706C41.956 40.5669 41.7954 40.6673 41.6348 40.7677C41.3095 40.9645 41.0003 41.1934 40.675 41.3741C39.9964 41.7034 39.398 42.0969 38.8519 42.2897C38.8519 42.2897 38.6953 42.4021 38.2777 42.639C38.1733 42.6953 38.0568 42.7715 37.9122 42.8358C37.7637 42.892 37.599 42.9563 37.4103 43.0245C37.2215 43.0928 37.0168 43.1691 36.7879 43.2574C36.6714 43.2976 36.5549 43.3418 36.4264 43.39C36.2939 43.4181 36.1574 43.4502 36.0168 43.4823C35.2579 43.655 35.298 43.8277 35.3422 43.9923C35.3154 43.8825 35.2873 43.7715 35.2579 43.659C34.9286 43.9441 34.3263 44.0003 33.736 44.0646C33.1497 44.161 32.5433 44.1048 32.1498 44.2172C32.1444 44.1048 32.1391 43.991 32.1337 43.8759C31.3587 44.1288 30.5636 44.0285 29.7765 43.9923C29.383 43.9602 29.0055 43.8558 28.616 43.8116C28.4232 43.7835 28.2265 43.7594 28.0337 43.7433C27.8369 43.7313 27.6482 43.6751 27.4554 43.655C27.4849 43.5452 27.513 43.4341 27.5398 43.3217C27.1703 43.2293 26.7969 43.145 26.5238 43.0647C26.2507 42.9763 26.0981 42.8559 26.1222 42.7796C26.1624 42.6725 26.2012 42.5641 26.2387 42.4543C25.9255 42.2415 25.3793 42.1411 24.9457 41.9845C24.524 41.8118 24.1867 41.6672 24.267 41.5146C24.2108 41.6164 24.1559 41.7181 24.1024 41.8198C23.9337 41.7476 23.765 41.6753 23.6004 41.603C23.4478 41.5106 23.2952 41.4223 23.1466 41.338C22.8455 41.1653 22.5563 40.9966 22.2712 40.836C22.0102 40.6392 21.7612 40.4505 21.5123 40.2658C21.2673 40.081 21.0143 39.9124 20.8135 39.6996C20.3999 39.2859 19.9542 38.9406 19.6329 38.4989C19.4562 38.2941 19.2836 38.0893 19.1109 37.8885C18.9342 37.6917 18.8137 37.4548 18.6611 37.242C18.5688 37.0974 18.4724 36.9488 18.38 36.8002L18.2355 36.5834L18.115 36.3465C17.9584 36.0292 17.7897 35.716 17.609 35.4068C17.4484 35.0896 17.3319 34.7482 17.1713 34.423C17.103 34.2543 17.0027 34.1017 16.9504 33.925L16.7778 33.407C16.4927 32.7324 16.3682 32.0015 16.1553 31.2867C16.1072 30.9173 16.0509 30.5478 15.9787 30.1744C15.9626 30.082 15.9385 29.9897 15.9305 29.8973L15.9184 29.6122L15.8823 29.042C15.814 27.52 15.8743 25.9499 16.316 24.4641C16.7256 22.9743 17.3681 21.5327 18.2074 20.2236C18.6531 19.7015 18.8057 18.9185 18.0628 19.2759C18.4844 18.6815 19.0667 18.2037 19.5606 17.6616C20.1389 17.1957 20.1831 16.9789 20.2393 16.7621C20.2915 16.5452 20.3316 16.3043 20.9862 15.8826L21.44 15.5212C21.5885 15.3967 21.7411 15.2763 21.9098 15.1799L22.8977 14.5534C23.2269 14.3406 23.6004 14.196 23.9457 14.0113L24.4758 13.7423C24.6525 13.6579 24.8493 13.6017 25.034 13.5294L26.1544 13.1078L27.3229 12.8026C27.5197 12.7544 27.7084 12.6821 27.9092 12.654L28.5116 12.5617C28.9131 12.5095 29.3107 12.4091 29.7163 12.385C30.5314 12.3569 31.3466 12.2484 32.1658 12.3247C32.5714 12.3528 32.989 12.3247 33.3906 12.393L34.5993 12.5617C36.1855 12.8709 37.7677 13.2805 39.2013 13.9993L39.7514 14.2402L40.2694 14.5414C40.6108 14.7462 40.9722 14.9189 41.3015 15.1357C41.94 15.5975 42.6186 16.0151 43.1929 16.5532C43.8233 17.0271 44.3253 17.6254 44.8875 18.1635L45.6183 19.059C45.7388 19.2116 45.8713 19.3522 45.9797 19.5088L46.2929 19.9866C48.0518 22.5045 48.9353 25.4399 49.136 28.4597C49.1481 26.9538 49.1842 25.5965 48.8549 24.2874C48.622 22.9622 48.0598 21.6893 47.2085 20.3681C47.3692 20.2838 47.6944 20.1232 47.2447 19.4445C45.9677 17.3684 43.9317 15.4851 41.8717 14.196C39.8197 12.8709 37.7918 12.1561 36.6232 11.4855C36.2176 11.3128 35.8361 11.0237 35.2017 10.7426C34.8804 10.6261 34.4949 10.5016 34.0211 10.3852C33.7801 10.333 33.5231 10.2486 33.234 10.2286C32.9449 10.2045 32.6236 10.1804 32.2783 10.1643C32.7401 10.2004 33.2099 10.1764 33.6637 10.2486L35.033 10.4414C35.0651 10.2727 35.1334 9.93943 35.1334 9.93943C34.6676 9.8551 34.1857 9.76274 33.6918 9.67439C33.1978 9.58605 32.6798 9.57802 32.1578 9.5218C31.8968 9.4977 31.6317 9.47361 31.3667 9.44952C31.1017 9.44952 30.8326 9.45353 30.5636 9.45755C30.0295 9.47361 29.4793 9.43345 28.9412 9.49369C26.7688 9.61416 24.6485 10.1442 22.8173 10.7586C22.8173 10.7586 22.6688 10.4494 22.5925 10.2928C21.9981 10.5699 21.3797 10.8028 20.8015 11.108C20.5083 11.0959 20.3959 11.0116 20.4401 10.859C20.4842 10.7064 20.677 10.4735 21.0304 10.2446C21.3797 10.0077 21.8576 9.7266 22.4318 9.41338C23.0221 9.13629 23.7289 8.87528 24.4879 8.58213C24.8734 8.45765 25.287 8.36127 25.7046 8.24482C26.1263 8.14442 26.5439 7.99584 26.9896 7.93159C27.4313 7.85931 27.8811 7.79104 28.3309 7.71876L29.0055 7.61436C29.2304 7.60231 29.4593 7.58625 29.6801 7.5742C30.5796 7.52199 31.4591 7.44168 32.2783 7.50192C32.6879 7.51396 33.0854 7.522 33.4629 7.53404C33.8404 7.53404 34.1897 7.60632 34.523 7.63042C34.5471 7.46176 34.5993 7.12444 34.6234 6.95579C34.262 6.91563 33.9046 6.8313 33.5352 6.82728L32.4389 6.77508L32.455 6.43375C35.788 6.57831 38.8077 7.30515 41.5745 8.49379C44.3373 9.69046 46.8792 11.3489 49.132 13.6057C48.9433 13.417 48.7104 13.1801 48.4534 12.9191C48.1843 12.6701 47.8671 12.4211 47.5579 12.1601C47.2487 11.9031 46.9395 11.6461 46.6544 11.4092C46.3492 11.2003 46.0681 11.0076 45.8472 10.855C45.9596 10.7185 46.0721 10.5819 45.1686 9.96352C47.0318 11.1401 48.8871 12.7584 50.4733 14.5735C52.0956 16.3725 53.3003 18.4366 54.3163 20.3039C54.5974 20.7617 54.774 20.7095 54.75 20.1513C54.75 19.5811 54.4247 18.541 53.6898 17.0592C53.22 16.3685 52.8305 15.714 52.3807 15.1357C51.9149 14.5695 51.4812 14.0193 51.0234 13.4893C50.5255 12.9873 50.0315 12.4894 49.5095 11.9633C48.9513 11.4694 48.3409 10.9795 47.6864 10.4293L47.9233 10.1683C48.3691 10.5378 48.859 10.9594 49.373 11.4092C49.638 11.626 49.8749 11.883 50.1159 12.136C50.3568 12.389 50.6058 12.65 50.8507 12.907C51.3647 13.405 51.7743 13.9792 52.2161 14.4892C52.4329 14.7462 52.6457 14.9952 52.8465 15.2361C53.0312 15.4891 53.212 15.73 53.3846 15.9509C53.7741 16.3765 53.5854 15.8425 53.3846 15.2963C53.2923 15.0193 53.1718 14.7542 53.1276 14.6097C53.0875 14.4651 53.1357 14.433 53.3565 14.6337C53.7099 15.0996 54.0111 15.5935 54.3564 16.0633C54.5251 16.3003 54.7018 16.5332 54.8825 16.7661C55.0431 17.011 55.2077 17.252 55.3844 17.4889C55.011 16.7018 54.4367 15.9348 53.8866 15.1196C53.6256 14.702 53.2802 14.3286 52.9549 13.935C52.6257 13.5455 52.3044 13.1479 51.9591 12.7624C50.5174 11.2807 48.9794 9.87919 47.5177 8.81906C47.08 8.40544 46.6383 7.99183 46.301 7.67459C45.9637 7.36137 45.7669 7.10035 45.8633 6.95579C43.1085 5.49007 40.4702 4.43796 38.0167 3.69908C37.7115 3.59869 37.4103 3.49829 37.1131 3.40192C36.816 3.30153 36.5148 3.24531 36.2216 3.16098C35.6354 3.00838 35.0651 2.85177 34.507 2.69516C33.3906 2.42611 32.3305 2.21729 31.3346 1.95628C31.0013 1.88399 30.3307 1.85588 29.4512 1.86793C29.0095 1.88399 28.5156 1.8599 27.9895 1.94021C27.4635 2.00446 26.9013 2.08076 26.319 2.16108C26.0299 2.20525 25.7327 2.24942 25.4315 2.29359C25.1384 2.36186 24.8412 2.43414 24.5401 2.50241C23.9457 2.64697 23.3474 2.79555 22.7571 2.94413C22.1789 3.12484 21.6207 3.32562 21.0826 3.50633C20.5485 3.69908 20.0265 3.85167 19.5767 4.0645" fill="#FFFAC2"/>
<path d="M13.7654 50.9235V11.6399H44.8428V50.9235H13.7654Z" fill="#DBF1FA"/>
<rect x="18.5498" y="18.6414" width="9.4541" height="9.4541" rx="1" fill="white"/>
<path d="M20.6924 22.5006L23.6324 24.9889L30.6451 18.8813" stroke="#559CB5" stroke-width="2.4" stroke-linecap="round" stroke-linejoin="round"/>
<rect x="18.5498" y="34.4678" width="9.4541" height="9.4541" rx="1" fill="white"/>
<path d="M20.6924 38.3273L23.6324 40.8155L30.6451 34.708" stroke="#559CB5" stroke-width="2.4" stroke-linecap="round" stroke-linejoin="round"/>
</svg>
